<?xml version="1.0" standalone="no"?>
<!DOCTYPE svg PUBLIC "-//W3C//DTD SVG 1.1//EN" "http://www.w3.org/Graphics/SVG/1.1/DTD/svg11.dtd" >
<svg xmlns="http://www.w3.org/2000/svg" xmlns:xlink="http://www.w3.org/1999/xlink" version="1.1">
<metadata>
Created by FontForge 20170731 at Thu Dec 15 23:18:21 2016
 By Aleksey,,,
Copyright (c) 2016 by StereoType - Clement Nicolle . All rights reserved.
</metadata>
<defs>
<font id="Bernadette" horiz-adv-x="708" >
  <font-face 
    font-family="Bernadette"
    font-weight="400"
    font-stretch="normal"
    units-per-em="1000"
    panose-1="0 0 0 0 0 0 0 0 0 0"
    ascent="750"
    descent="-250"
    x-height="503"
    cap-height="858"
    bbox="-424.222 -473 1131 1172"
    underline-thickness="50"
    underline-position="-150"
    unicode-range="U+000D-E003"
  />
<missing-glyph horiz-adv-x="261" 
 />
    <glyph glyph-name=".notdef" horiz-adv-x="261" 
 />
    <glyph glyph-name=".null" horiz-adv-x="0" 
 />
    <glyph glyph-name="nonmarkingreturn" unicode="&#xd;" horiz-adv-x="261" 
 />
    <glyph glyph-name="NULL" horiz-adv-x="0" 
 />
    <glyph glyph-name="NULL" horiz-adv-x="0" 
 />
    <glyph glyph-name="space" unicode=" " horiz-adv-x="261" 
 />
    <glyph glyph-name="exclam" unicode="!" horiz-adv-x="513" 
d="M217 784q1 12 12.5 14t27.5 -3.5t34 -16t33.5 -23t25.5 -25.5t9 -23t-16 -45t-37 -82.5t-47.5 -101.5t-47 -104t-36 -89.5t-14.5 -56.5q0 -14 -10.5 -20t-22.5 -6q-19 0 -36 17.5t-17 56.5q0 27 19 75t44 113t48 146t31 174zM100 122q23 0 37.5 -13.5t12.5 -38.5
q-1 -13 -7.5 -29t-17.5 -30.5t-25.5 -24t-31.5 -9.5q-26 0 -48 15t-20 36q1 15 11 32t24.5 30.5t32 22.5t32.5 9z" />
    <glyph glyph-name="quotedbl" unicode="&#x22;" horiz-adv-x="515" 
d="M166 781q0 18 18 17t40 -13t40 -30t18 -34q0 -14 -9 -30.5t-19.5 -36t-19.5 -42.5t-9 -50q0 -15 -11 -20.5t-23 -5.5q-20 0 -37.5 17.5t-17.5 57.5q0 16 4.5 36t10.5 42t10.5 45.5t4.5 46.5zM334 781q0 18 18 17t39.5 -13t39.5 -30t18 -34q0 -14 -9 -30.5t-19.5 -36
t-19.5 -42.5t-9 -50q0 -15 -11 -20.5t-22 -5.5q-20 0 -37.5 17.5t-17.5 57.5q0 16 4.5 36t10.5 42t10.5 45.5t4.5 46.5z" />
    <glyph glyph-name="numbersign" unicode="#" horiz-adv-x="710" 
d="M632 525q13 3 14.5 -11t-4.5 -32.5t-17 -35.5t-22 -20q-8 -2 -51 -1.5t-104 2.5q-8 -23 -17 -46.5t-17 -46.5q46 2 88.5 6.5t78.5 13.5q13 3 14.5 -11t-4.5 -33t-17 -36t-23 -20q-4 -1 -18.5 -1t-36 0.5t-50 1t-60.5 1.5q-21 -60 -35.5 -104.5t-14.5 -55.5t-2.5 -20
t-11.5 -9q-7 0 -16 3t-17 10.5t-13.5 20t-5.5 30.5q0 14 11 47.5t28 80.5q-26 1 -52 1.5t-52 1.5q-11 -31 -20.5 -59t-16 -49.5t-10.5 -36.5t-4 -21q0 -11 -3 -20t-12 -9q-7 0 -16 3t-17 10.5t-13.5 20t-5.5 30.5q0 14 11.5 49t28.5 83q-51 1 -86.5 0.5t-44.5 -3.5
q-11 -4 -19.5 -4t-11.5 8q-2 7 -2 17t4.5 19.5t14 18.5t26.5 15q14 5 53 5t93 -2q8 23 17 47.5t17 49.5q-54 2 -92.5 1t-47.5 -4q-11 -4 -20 -4t-12 8q-2 7 -2 17t4.5 19.5t14.5 18.5t27 15q14 5 54.5 5t96.5 -2q15 50 26 97.5t15 89.5q1 14 15 11t29.5 -15t28.5 -28t12 -28
q-1 -8 -13 -43.5t-31 -86.5q25 -1 49.5 -1h50.5q16 51 27 100t15 91q1 14 15 11t29.5 -15t28.5 -28t12 -28q-1 -8 -13 -43t-31 -86q43 2 82.5 6.5t73.5 12.5zM336 333q16 46 33 96l-102 3q-9 -24 -18 -48.5t-18 -49.5q26 -1 52 -1h53z" />
    <glyph glyph-name="dollar" unicode="$" horiz-adv-x="593" 
d="M480 762q22 -9 38 -24t26.5 -31.5t16 -34t5.5 -31.5q0 -27 -13.5 -66t-34 -74t-45 -60t-47.5 -25q-20 0 -35 8.5t-23.5 18.5t-9 18.5t10.5 8.5t29.5 21.5t36 54.5t30 72t12.5 74q0 19 -16 24q-15 -34 -34 -77.5t-41 -92.5t-45.5 -102t-46.5 -105q17 -14 35.5 -26.5
t34 -26.5t25.5 -32t10 -43q0 -37 -16.5 -63.5t-45 -44t-67 -25.5t-83.5 -8h-13q-14 -30 -22.5 -50.5t-11.5 -27.5q-4 -10 -12 -9t-15.5 8t-11.5 19t1 25q1 3 5.5 14.5t12.5 29.5q-28 7 -50.5 20t-38.5 29t-25 34t-9 36q0 31 12.5 53.5t27.5 34.5t27.5 13.5t12.5 -8.5
q0 -5 -4 -9t-8.5 -10.5t-8.5 -17t-4 -26.5q0 -30 31 -45.5t73 -19.5q14 32 30 69.5t33 77.5q-20 11 -38.5 24.5t-33 31t-23.5 39.5t-9 50q0 37 14 74.5t38 72.5t54.5 65.5t64 53.5t67 36.5t62.5 15.5q22 55 22 61q0 16 9 16.5t20 -7t20 -20t9 -22.5q0 -5 -15 -39zM240 449
q0 -34 13 -60q32 77 65 152.5t59 138.5q-25 -20 -49.5 -48.5t-44 -59.5t-31.5 -63t-12 -60zM330 220q0 20 -17.5 34.5t-43.5 28.5q-14 -32 -27.5 -61.5t-26.5 -57.5q23 2 44 6.5t36.5 12t25 17t9.5 20.5z" />
    <glyph glyph-name="percent" unicode="%" horiz-adv-x="631" 
d="M494 892q0 18 10.5 19t23 -7.5t23 -22t10.5 -25.5q0 -4 -16.5 -43t-43.5 -101t-61.5 -140t-71.5 -160t-73 -162t-65.5 -145.5t-49 -110.5t-24.5 -57q-4 -12 -13.5 -11.5t-17.5 9t-12.5 22t0.5 28.5q2 5 14 34.5t32 76t45.5 106t54 125.5t57.5 134t56 132
q-25 -17 -51.5 -29t-54.5 -17q-22 -23 -52 -37.5t-68 -14.5q-12 0 -30 6.5t-36 20.5t-32 35.5t-17 51.5q-4 30 10 68.5t37.5 72.5t53 57.5t56.5 23.5q25 0 48.5 -10.5t42.5 -27t31 -37t14 -41.5q3 -21 0 -44.5t-11 -46.5q42 14 75.5 54.5t57.5 88.5q23 54 35.5 87.5
t12.5 37.5zM118 543q19 0 35.5 9t32.5 23q-6 14 -4 30t9.5 31t20 26.5t27.5 16.5q3 12 4 24t0 23q-2 13 -4.5 20.5t-10.5 7.5q-16 0 -38 -22t-41.5 -53t-32.5 -63t-10 -52q1 -6 3.5 -13.5t8.5 -7.5zM610 206q4 -35 -6 -74t-33 -71.5t-58.5 -54t-81.5 -21.5q-11 0 -29 7
t-35.5 21t-32 35.5t-18.5 51.5t10 68.5t38 72.5t53.5 57.5t56.5 23.5q25 0 48 -10.5t42 -27t31 -37t15 -41.5zM404 34q27 0 51 18.5t41.5 46t26 59.5t5.5 59q-2 13 -4.5 20.5t-10.5 7.5q-16 0 -38 -22t-41.5 -53t-32 -63t-10.5 -52q2 -6 4 -13.5t9 -7.5z" />
    <glyph glyph-name="ampersand" unicode="&#x26;" horiz-adv-x="646" 
d="M424 255q11 0 22.5 -14t11.5 -30q0 -23 -12.5 -55t-39.5 -60.5t-68.5 -48.5t-98.5 -20q-80 0 -132 34t-65 95q-6 30 -0.5 64t24 67.5t50 63.5t76.5 53q-59 44 -59 118q0 49 26.5 93t65.5 77t84 52t83 19q63 0 90 -43q5 17 5 24q0 6 2 9.5t4 5.5q5 4 14 4t20.5 -5t22 -13
t17.5 -17.5t7 -19.5q0 -7 -6 -20.5t-19 -39.5q-9 -17 -19 -37t-18 -40t-13.5 -38.5t-5.5 -33.5q0 -9 -7 -13q-4 -4 -12 -4t-17.5 3.5t-17.5 10.5t-14 16.5t-6 21.5q0 20 9 46t21 55q-9 8 -20 13.5t-25 5.5q-38 0 -70.5 -15.5t-56.5 -38.5t-37.5 -50t-13.5 -50
q0 -26 15.5 -41.5t32.5 -24.5q5 2 15 3t29 1q42 0 59.5 -19t17.5 -41q0 -23 -12.5 -39.5t-25.5 -16.5q-7 0 -10 3l-5 5t-3.5 3t-7.5 1q-47 0 -82.5 -16t-60.5 -40t-37.5 -52t-12.5 -53q0 -37 23 -58q28 -25 77 -25q53 0 87 19.5t53 45t26 50.5t7 36q0 5 3 10q4 4 10 4z
M539 478q9 0 20.5 -4.5t22 -11t18 -15.5t7.5 -18q0 -34 -14.5 -59t-37.5 -43.5t-51 -32t-56 -25.5q-23 -10 -43.5 -20t-36.5 -21t-25 -24.5t-9 -30.5q0 -11 -6 -15q-7 -5 -15 -5q-13 0 -25 10t-12 26q0 27 10.5 46t27 34t37.5 26.5t42 22.5q23 12 45 24t39 27.5t27 35.5
t10 49q0 24 25 24z" />
    <glyph glyph-name="quotesingle" unicode="'" horiz-adv-x="357" 
d="M166 781q0 18 18 17t40 -13t40 -30t18 -34q0 -14 -9 -30.5t-19.5 -36t-19.5 -42.5t-9 -50q0 -15 -11 -20.5t-23 -5.5q-20 0 -37.5 17.5t-17.5 57.5q0 16 4.5 36t10.5 42t10.5 45.5t4.5 46.5z" />
    <glyph glyph-name="parenleft" unicode="(" horiz-adv-x="390" 
d="M558 785q-21 0 -62 -23t-89 -66t-98.5 -106t-91.5 -143t-67 -176t-26 -205q0 -38 5 -58.5t11.5 -32t11.5 -18.5t5 -19q0 -11 -20 -11.5t-44.5 18.5t-44.5 62.5t-20 120.5q0 84 23 172t61 171t86.5 157t98.5 129.5t98 87.5t86 32q32 0 53.5 -14.5t31 -31.5t8 -31.5
t-15.5 -14.5z" />
    <glyph glyph-name="parenright" unicode=")" horiz-adv-x="390" 
d="M-71 19q21 0 61.5 23t89 66t98.5 106t91 143t67 175.5t26 205.5q0 38 -5 58.5t-11.5 32t-11.5 18.5t-5 19q0 11 20 11.5t44.5 -18.5t44.5 -62.5t20 -120.5q0 -84 -23 -172t-61 -171t-86 -157t-98.5 -129.5t-98.5 -87.5t-85 -32q-33 0 -54.5 14.5t-31 31.5t-7.5 31.5
t16 14.5z" />
    <glyph glyph-name="asterisk" unicode="*" horiz-adv-x="468" 
d="M446 712q2 -3 4 -9.5t2 -14.5t-3 -16t-11 -15h1q-4 -4 -33 -4h-26.5t-31.5 1q6 -14 11.5 -25.5t10.5 -19.5l9 -18q0 -3 1 -5.5t-1 -6.5l1 1q-2 -8 -17.5 -14.5t-33.5 -1.5q-3 2 -12.5 20t-21.5 44q-14 -16 -26 -29t-21 -24q-11 -12 -20 -23q-2 -2 -5.5 -3.5t-4.5 -1.5
q-10 0 -16 15t-3 34q1 5 14.5 20.5t33.5 38.5q-24 1 -43 1.5t-27 -0.5q-10 0 -15 5q-3 7 -2.5 17.5t17.5 23.5q5 4 29 6t51 4q-2 4 -3.5 7.5t-3.5 6.5l1 -1q-9 24 -19 40q-2 3 -2.5 7t-0.5 6l3 8q4 8 9.5 14.5t17.5 4.5q8 -2 22.5 -24.5t31.5 -54.5q11 12 23.5 25.5
t23.5 25.5t19.5 22t13.5 15q3 2 3 3.5t7 1.5q20 0 12 -43q-1 -4 -14 -20.5t-32 -40.5q14 0 26 0.5t21 0.5q11 0 19 1q5 0 6.5 -1t3.5 -3z" />
    <glyph glyph-name="plus" unicode="+" horiz-adv-x="541" 
d="M422 387q11 2 12 -11t-3.5 -30t-13.5 -32t-18 -18q-8 -2 -43.5 -1t-81.5 3q-14 -31 -28 -60.5t-25.5 -53t-20 -37.5t-10.5 -14q-17 0 -28.5 15.5t-11.5 47.5q0 12 11.5 41t28.5 65q-40 2 -70.5 2t-39.5 -4q-8 -3 -15.5 -3.5t-9.5 7.5q-4 13 1.5 33t32.5 31q16 6 51 6.5
t83 -0.5q17 42 30.5 78t13.5 59q0 11 11 9.5t24.5 -9.5t24.5 -20.5t11 -23.5q0 -8 -8.5 -33t-22.5 -58q28 1 57 3.5t58 7.5z" />
    <glyph glyph-name="comma" unicode="," horiz-adv-x="319" 
d="M79 52q12 0 23.5 -5.5t20.5 -14t14.5 -18.5t5.5 -20q0 -9 -12 -30.5t-30.5 -43t-40.5 -38t-42 -16.5q-15 0 -22.5 3.5t-9 9t1 11.5t8.5 12q24 24 37 50.5t20.5 48.5t12 36.5t13.5 14.5z" />
    <glyph glyph-name="hyphen" unicode="-" horiz-adv-x="548" 
d="M437 364q10 2 11 -12.5t-3.5 -33.5t-13.5 -35.5t-18 -19.5q-6 -2 -29.5 -1.5t-56.5 2t-70.5 3.5t-71 3t-58.5 0.5t-33 -3.5t-15.5 -3.5t-9.5 7.5q-2 6 -2 16.5t4 21.5t11.5 21t20.5 15q15 6 48.5 6h78t98 2t109.5 11z" />
    <glyph glyph-name="period" unicode="." horiz-adv-x="306" 
d="M72 -23q-26 0 -48 15t-20 36q1 15 11 32t24.5 30.5t32 22.5t32.5 9q23 0 37.5 -13.5t12.5 -38.5q-1 -13 -7.5 -29t-17.5 -30.5t-25.5 -24t-31.5 -9.5z" />
    <glyph glyph-name="slash" unicode="/" horiz-adv-x="548" 
d="M54 43q2 6 24 39l56 84t77.5 115t88.5 132t88 134.5t76.5 122t54 95t20.5 54.5q0 16 12 16.5t26 -9.5t26 -27t12 -36q0 -6 -20.5 -41t-54.5 -89t-77.5 -121t-89.5 -137.5t-90.5 -138.5t-80.5 -124t-59.5 -94.5t-27.5 -48.5t-15.5 -4.5t-23 18.5t-19 30t-3.5 30z" />
    <glyph glyph-name="zero" unicode="0" horiz-adv-x="649" 
d="M405 839q39 0 73 -20t60 -53t41 -75.5t15 -87.5q0 -72 -15 -145t-42 -141.5t-64.5 -128t-81.5 -103.5t-94 -69.5t-101 -25.5q-57 0 -94.5 28t-60 72t-32 97t-9.5 104q0 77 14 138.5t36 107.5t47.5 76t48.5 43q25 37 55.5 70.5t63.5 58.5t68.5 39.5t71.5 14.5zM182 76
q37 0 74 32t70.5 83.5t62 116t49.5 128.5t33 121t12 95q0 65 -20.5 96t-46.5 31q-23 0 -46.5 -14.5t-46.5 -39t-45.5 -57t-42.5 -68.5q6 -14 6 -23q0 -10 -9.5 -30.5t-23.5 -48t-30 -60t-30 -68t-23.5 -71t-9.5 -68.5q0 -74 13.5 -114.5t53.5 -40.5z" />
    <glyph glyph-name="one" unicode="1" horiz-adv-x="410" 
d="M307 817q4 14 21.5 12t36.5 -13.5t33.5 -29t13.5 -34.5q0 -3 -11.5 -33.5t-29.5 -78t-41 -108.5t-47.5 -125.5t-47.5 -128t-41.5 -116.5t-30.5 -91.5t-13 -52.5q-1 -7 -2 -15.5t-4 -16t-8 -12.5t-12 -5t-25 8t-36 20t-31.5 26t-12.5 26q1 8 23 56t54.5 119t69.5 156
t69 167q-19 -15 -43.5 -28.5t-50 -24.5t-51 -17.5t-47.5 -6.5q-19 0 -28.5 7.5t-9.5 18.5q0 6 17.5 18t45 29t60.5 40t64.5 52t57 64t37.5 77q5 19 10 28.5t10 12.5z" />
    <glyph glyph-name="two" unicode="2" horiz-adv-x="647" 
d="M486 87q11 3 12 -11t-4 -32.5t-14.5 -35.5t-18.5 -20q-7 -2 -43.5 -1t-88.5 3t-111.5 4.5t-112 4.5t-91 1.5t-46.5 -3.5q-9 -3 -16.5 -3.5t-9.5 8.5q-4 12 0.5 31.5t25.5 32.5q7 6 34 26.5t65 52t84.5 72.5t94 87.5t92 96.5t79 100t55.5 97.5t21 89.5q0 16 -7 31.5
t-18.5 28t-26.5 20t-32 7.5q-62 0 -110.5 -30.5t-82.5 -74.5t-51.5 -94t-17.5 -89q0 -20 3 -31t7 -17.5t7 -10.5t3 -10q0 -12 -17.5 -12t-39 15.5t-39 48t-17.5 85.5q0 10 8 34t25.5 54.5t46 63t69 59.5t94 44.5t121.5 17.5q94 0 142.5 -42.5t48.5 -116.5q0 -42 -25 -94
t-65.5 -107.5t-91 -112t-102 -109t-98.5 -97.5t-80 -78q42 -2 87.5 -3t90.5 0t86.5 5.5t74.5 13.5z" />
    <glyph glyph-name="three" unicode="3" horiz-adv-x="622" 
d="M616 646q0 -37 -18.5 -74t-51 -71t-75.5 -62.5t-91 -48.5q39 -26 69 -63t30 -88t-26.5 -96.5t-71 -80.5t-102 -55.5t-119.5 -20.5q-50 0 -92 14t-72.5 36.5t-48 50.5t-17.5 55q0 37 15 64t33.5 42t33.5 16.5t15 -10.5q0 -6 -4.5 -11t-10.5 -12.5t-10.5 -20t-4.5 -31.5
q0 -21 13 -36t34.5 -25t49 -14.5t57.5 -4.5q51 0 91 17t67 42t41 53t14 51q0 45 -19.5 62t-54.5 17q-31 0 -54.5 -4.5t-40 -6t-25 4t-8.5 25.5q0 39 22 59.5t60 21.5q1 0 1.5 0.5t2.5 0.5q43 0 90 20t86 51.5t64.5 71.5t25.5 79q0 22 -6 42.5t-17.5 35.5t-27.5 24t-37 9
q-42 0 -74.5 -18t-55 -45t-34.5 -58.5t-12 -57.5q0 -14 2 -21t5 -11.5t5 -7t2 -6.5q0 -9 -17 -8.5t-37.5 11t-37.5 32.5t-17 57q0 26 16.5 57t50 57.5t84 44t119.5 17.5q47 0 82.5 -13t59.5 -36t36.5 -54.5t12.5 -68.5z" />
    <glyph glyph-name="four" unicode="4" horiz-adv-x="566" 
d="M482 354q11 3 12.5 -11t-4 -33t-14.5 -36t-19 -20q-5 -2 -36 -2h-76q-15 -42 -28.5 -80.5t-23.5 -69t-16 -52.5t-7 -32q-1 -7 -2 -15.5t-4 -16t-8 -12.5t-12 -5t-25 8t-36 20t-31.5 26t-12.5 26q0 4 7.5 21t19.5 44t28.5 62t34.5 76q-45 0 -89.5 -0.5t-81.5 -1t-62 -2
t-32 -4.5q-8 -4 -16 -4t-10 9q-2 8 -1.5 19t6.5 22q0 1 2 3q2 4 4.5 7t5.5 6q17 19 56 56.5t87.5 84t102 98t99.5 100t80 89t45 64.5q0 3 0.5 5.5t0.5 4.5q0 11 6 16q5 9 22 4q12 -2 26 -10t26 -18.5t19.5 -23t6.5 -24.5q0 -4 -14.5 -42.5t-37 -97t-50 -131.5t-54.5 -146
q29 3 56 7.5t50 11.5zM75 325q41 1 89 1t99 2q32 73 64.5 150t55.5 148q-38 -37 -81 -78.5t-85 -82t-79 -77t-63 -63.5z" />
    <glyph glyph-name="five" unicode="5" horiz-adv-x="595" 
d="M648 837q11 3 12.5 -11t-4 -33t-14.5 -36t-19 -20q-7 -2 -39.5 -2t-77 0.5t-94 1t-89.5 0.5q-7 -17 -22 -49.5t-32 -70t-32.5 -76t-24.5 -68.5q11 2 21.5 2h18.5q77 0 127 -21t77 -55.5t32.5 -78.5t-6.5 -89.5t-40.5 -89.5t-69 -78.5t-92 -55.5t-110.5 -21q-50 0 -92 15
t-72.5 38.5t-48 52.5t-17.5 58q0 40 15 68t33.5 44t33.5 18t15 -11q0 -6 -4.5 -11.5t-10.5 -14t-10.5 -21t-4.5 -33.5q0 -22 13 -38t34.5 -26t49 -15t57.5 -5q59 0 103 23t72.5 57.5t41 74.5t8 74.5t-25.5 57.5t-60 23q-29 0 -57.5 -9t-56.5 -15q-4 -2 -7 -2q-7 0 -24 8
t-34.5 20t-30.5 26t-12 26q1 10 18.5 42t40.5 74t45 89t33 88q1 1 1 4q6 22 6 42q0 11 6 16t15.5 4.5t21.5 -5t23 -12.5q28 1 70 0.5t90.5 0.5t100 6t99.5 19z" />
    <glyph glyph-name="six" unicode="6" horiz-adv-x="619" 
d="M589 694q0 -16 -16.5 -25t-36 -11t-35.5 1t-16 11q0 4 1 6.5t2.5 6.5t2.5 10t1 18q0 14 -6.5 24.5t-16 17t-20.5 10t-21 3.5q-30 0 -61 -19.5t-61 -52t-58.5 -74t-52.5 -85.5q26 12 53.5 19t56.5 7q38 0 74 -14t64.5 -36.5t48 -51.5t24.5 -60q12 -74 -9 -149.5t-66 -136
t-109.5 -98.5t-140.5 -38q-84 0 -133 36.5t-69 96.5t-14.5 136t31.5 156t68.5 156t97 136t117 96.5t127.5 36.5q39 0 71 -11t54.5 -29.5t35 -42.5t12.5 -50zM322 519q-22 0 -43.5 -10t-42 -26.5t-38.5 -38.5t-34 -47q8 -11 8 -16q2 -11 -13.5 -36.5t-33.5 -59t-31.5 -71
t-7.5 -71.5q8 -51 25.5 -79t56.5 -28q36 0 69 22t60 57.5t48.5 79.5t35 88t19 83.5t1.5 65.5q-7 45 -30 66t-49 21z" />
    <glyph glyph-name="seven" unicode="7" horiz-adv-x="567" 
d="M573 823q10 -5 19.5 -12.5t16.5 -17.5t9.5 -20.5t-1.5 -20.5q-1 -3 -22 -33.5t-54 -78t-75 -108.5t-86 -125.5t-87 -128t-78 -116.5t-58.5 -91.5t-28.5 -52.5q-2 -7 -5.5 -15.5t-8.5 -16t-11.5 -12.5t-13.5 -5t-24 8t-34 20t-28.5 26t-6.5 26q3 7 29.5 43.5t67.5 92.5
t91 125t99.5 141t94 141.5t73.5 126.5q-37 0 -89.5 0.5t-103.5 1t-90.5 -0.5t-49.5 -5q-9 -4 -16.5 -4t-9.5 9q-2 7 -2 17.5t4 21.5t12 20.5t22 15.5q15 6 59 6h102t121.5 2.5t119.5 14.5q5 8 15 10t21 -2q4 1 7 -3z" />
    <glyph glyph-name="eight" unicode="8" horiz-adv-x="690" 
d="M389 406q-54 -32 -107 -64.5t-94.5 -68t-67 -74t-25.5 -81.5q0 -14 6.5 -29t17.5 -27t25.5 -20t31.5 -8q60 0 108 25t81.5 63.5t51.5 83.5t18 85q0 26 -5 44t-10 31q-2 7 -4 13t-2 11q0 18 24 18q12 0 29 -8.5t34 -31.5q13 -17 25 -48.5t12 -84.5q0 -16 -6.5 -41
t-22 -53.5t-42 -56.5t-66.5 -51t-95.5 -37t-128.5 -14q-98 0 -148 39t-50 116q0 42 26.5 81.5t69 77t97 73.5t110.5 71q52 33 101.5 65t88 64.5t61.5 65.5t23 67q0 14 -6.5 29t-17 27t-25.5 20t-31 8q-63 0 -111 -31t-81 -75t-50 -93.5t-17 -85.5q0 -26 5 -37t9 -17
q2 -3 4.5 -7t2.5 -9q0 -17 -23 -17q-11 0 -28.5 8t-35.5 29q-13 15 -25 41t-12 77q0 17 8 44t26 57t46.5 60t68.5 54.5t92.5 39.5t119.5 15q98 0 147.5 -39.5t49.5 -116.5q0 -41 -24 -77.5t-63.5 -70t-90.5 -65.5t-105 -64z" />
    <glyph glyph-name="nine" unicode="9" horiz-adv-x="633" 
d="M-17 110q0 16 16 25t35.5 11t36 -1t16.5 -11q0 -5 -1 -7t-2.5 -6t-2.5 -10t-1 -18q0 -15 6.5 -25t16 -17t20.5 -10t21 -3q30 0 61 19.5t61 51.5t58.5 74t52.5 86q-26 -12 -53.5 -19t-56.5 -7q-38 0 -74 14t-64.5 36.5t-48 51.5t-24.5 60q-12 74 9 149.5t66 136
t109.5 98.5t140.5 38q84 0 133 -36.5t69 -96.5t14.5 -136t-31.5 -156t-68.5 -156t-97 -136t-117 -96.5t-127.5 -36.5q-39 0 -71 11t-54.5 29.5t-35 42.5t-12.5 50zM250 285q22 0 43.5 10t42 26.5t38.5 38.5t34 47q-8 11 -8 16q-2 10 13.5 36t33.5 59.5t31.5 71t7.5 71.5
q-8 51 -25.5 79t-56.5 28q-36 0 -69 -22t-60 -57.5t-48.5 -79.5t-35 -88t-19 -83.5t-1.5 -65.5q7 -45 30 -66t49 -21z" />
    <glyph glyph-name="colon" unicode=":" horiz-adv-x="292" 
d="M98 174q23 0 37.5 -14t12.5 -39q-1 -12 -7.5 -28.5t-17.5 -30.5t-26 -24t-32 -10q-25 0 -47 15t-20 36q1 16 11 32.5t24.5 30.5t31.5 23t33 9zM217 491q23 0 37.5 -14t12.5 -38q-1 -13 -8 -29t-18 -30.5t-25.5 -24.5t-31.5 -10q-12 0 -24.5 4t-22.5 11t-16 16.5t-5 19.5
q1 16 11.5 32.5t25 30.5t31.5 23t33 9z" />
    <glyph glyph-name="semicolon" unicode=";" horiz-adv-x="240" 
d="M159 464q23 0 37.5 -14t12.5 -38q-1 -13 -7.5 -29t-17.5 -30.5t-25.5 -24.5t-31.5 -10q-13 0 -25.5 4t-22.5 11t-15.5 16.5t-4.5 19.5q1 16 11 32.5t24.5 30.5t32 23t32.5 9zM32 149q15 0 28 -6.5t23 -16t16 -21.5t6 -23t-14 -35.5t-35 -49t-46 -43.5t-48 -19
q-17 0 -25.5 4t-11 10t1 13t10.5 14q28 28 43 58.5t23 56t13.5 42t15.5 16.5z" />
    <glyph glyph-name="less" unicode="&#x3c;" horiz-adv-x="381" 
d="M9 327q-2 8 2.5 18.5t18.5 18.5l3 2q6 4 23 14t36 20q22 12 45.5 25t48.5 27l4 2q8 5 19 11.5t28 15.5l43 25q32 19 49.5 28.5t19.5 11.5q4 2 10 2q4 0 6 -1q7 -3 11 -13q4 -15 -5 -40q-9 -24 -27 -35l-216 -121q18 -15 40 -35.5t41.5 -41.5t34 -39.5t17.5 -28.5
q6 -17 -1 -33.5t-19 -21.5q-8 -4 -19 -1t-19 17q-3 4 -15.5 17t-31 30t-39.5 35.5t-40 35t-33.5 28t-19.5 13.5q-12 1 -15 14z" />
    <glyph glyph-name="equal" unicode="=" horiz-adv-x="530" 
d="M403 447q11 2 12 -11t-4 -30t-14 -32.5t-18 -17.5q-6 -2 -29.5 -1.5t-56.5 2t-70.5 3.5t-71 3t-58.5 0.5t-33 -3.5q-8 -4 -15.5 -4t-9.5 8q-3 13 2.5 33t31.5 31q15 6 48.5 6h78.5t98 2t109 11zM369 285q10 2 11 -11t-3.5 -30t-13.5 -32.5t-18 -17.5q-6 -2 -29.5 -1
t-56.5 3.5t-70.5 5.5t-71 5t-58.5 2t-33 -3t-15.5 -3.5t-9.5 7.5q-4 14 2 34t32 31q15 6 48.5 5t78 -3t98 -1.5t109.5 9.5z" />
    <glyph glyph-name="greater" unicode="&#x3e;" horiz-adv-x="403" 
d="M371 360q2 -9 -3 -19.5t-19 -18.5l-2 -2q-7 -4 -23.5 -13.5t-36.5 -20.5q-22 -12 -45 -25t-49 -27l-4 -2q-8 -5 -19 -11.5t-27 -15.5l-44 -25q-32 -19 -49 -28.5t-20 -10.5q-4 -3 -10 -3q-4 0 -5 1q-8 3 -11 13q-5 18 4 40q9 25 28 35l216 121q-18 15 -40 35.5
t-41.5 41.5t-34 39.5t-18.5 28.5q-6 18 1 34t19 21q8 4 19 1t19 -17q3 -4 15.5 -17t31 -30t40 -35.5t40.5 -35t33.5 -28t19.5 -13.5q11 0 15 -13z" />
    <glyph glyph-name="question" unicode="?" horiz-adv-x="543" 
d="M169 138q23 0 37.5 -13.5t12.5 -38.5q-1 -13 -7.5 -29t-17.5 -30.5t-25.5 -24t-31.5 -9.5q-26 0 -48 15t-20 36q1 15 11 32t24.5 30.5t32 22.5t32.5 9zM104 418q0 -12 -17.5 -13.5t-39 13t-39 47.5t-17.5 90q0 16 7.5 42t24 55.5t43.5 59t66 53t92 38.5t121 15
q94 0 142.5 -37.5t48.5 -111.5q0 -45 -21.5 -91t-55 -90.5t-73.5 -87t-76.5 -80.5t-65.5 -70.5t-39 -57.5q-6 -14 -17 -14q-9 0 -19.5 6t-18.5 15.5t-13.5 22.5t-5.5 27q0 18 22 44t55.5 58.5t72 71t72 81t55.5 89t22 95.5q0 16 -7 31.5t-18.5 28t-26.5 20t-32 7.5
q-62 0 -110.5 -30.5t-82 -74.5t-51 -94t-17.5 -89q0 -20 3 -31t6.5 -17.5t6.5 -10.5t3 -10z" />
    <glyph glyph-name="at" unicode="@" horiz-adv-x="788" 
d="M386 695q50 0 98.5 -15.5t86.5 -47t61.5 -79.5t23.5 -113q0 -83 -23.5 -148t-58.5 -110.5t-75.5 -69.5t-74.5 -24q-15 0 -35.5 2.5t-39.5 12t-32.5 30t-13.5 56.5q0 10 3 25q-23 -34 -46 -60t-37 -26q-15 0 -35 6.5t-37.5 19t-30 30t-12.5 38.5q0 14 7 40t18.5 57
t26.5 63t31.5 58.5t33 43t31.5 16.5q20 0 38 -6t33 -16t27.5 -21.5t21.5 -21.5q5 17 8.5 29t3.5 17q0 13 13.5 12.5t29 -9t29 -22t13.5 -24.5q0 -9 -7 -36.5t-17 -62.5t-21 -71.5t-18 -64.5v-3q-5 -26 -0.5 -42.5t22.5 -16.5t35 17t32 44.5t28 63t22 71.5t14 69.5t5 58.5
q0 162 -154 162q-78 0 -148.5 -40t-125.5 -109q-48 -61 -74.5 -132t-26.5 -139q0 -88 45.5 -130.5t118.5 -42.5q26 0 46.5 7t34.5 13.5t21 9t7 -5.5t-4.5 -25t-15.5 -34t-30 -30t-48 -13q-114 0 -190 73q-74 76 -74 194q0 87 41 180q42 94 112 165q61 60 132.5 93.5
t150.5 33.5zM221 174q10 0 28.5 24t38.5 57t38.5 67t29.5 54q4 10 7 19.5t6 17.5q-9 5 -21.5 9t-26.5 4q-10 0 -24 -18.5t-28 -46.5t-26 -61t-20 -61t-9 -46.5t7 -18.5z" />
    <glyph glyph-name="A" unicode="A" 
d="M591 386q14 -11 17 -25t0 -28q-4 -25 -23 -44.5t-33 -24.5q-17 -57 -30 -107t-19 -90q-2 -9 -2.5 -22t1.5 -18q2 -9 -14 -18t-45 -9q-10 0 -25 3.5t-28.5 14t-21.5 29t-3 49.5q1 10 7.5 30.5t16 49t22.5 63.5t28 75h-16q-31 -1 -68 -4t-77 -8q-49 -59 -99 -112t-97.5 -93
t-91 -63.5t-78.5 -23.5q-34 0 -56 7t-35 17t-17.5 20.5t-3.5 17.5t5.5 8.5t11 0t14.5 -4t18 -2.5q32 0 68.5 16t75.5 44.5t80.5 67t83.5 83.5q-39 -5 -72.5 -9.5t-55.5 -4.5q-29 0 -45.5 10t-25 23.5t-10.5 27t0 19.5q2 16 5 18.5t12.5 -0.5t30.5 -8t59 -5q36 1 84.5 8
t102.5 16q60 71 116.5 145t104 139.5t84 116t57.5 75.5q0 5 1 7q3 18 22.5 13t42 -22t40 -39.5t14.5 -38.5q-1 -8 -13.5 -44t-31.5 -89.5t-42 -120t-46 -136.5zM473 412q25 69 49 141.5t44 141.5q-38 -58 -92 -135.5t-117 -160.5q32 5 61.5 8.5t54.5 4.5z" />
    <glyph glyph-name="B" unicode="B" horiz-adv-x="616" 
d="M409 850q95 0 154.5 -25t86.5 -64.5t23.5 -89t-34 -99t-87 -94t-135.5 -73.5q44 -20 74 -62.5t30 -115.5q0 -52 -22 -95.5t-57.5 -74.5t-81 -48t-92.5 -17q-44 0 -82 8.5t-69 21.5q-11 3 -27.5 11t-32 19.5t-27 24t-11.5 24.5q0 9 9.5 35t25.5 64.5t37.5 86t44.5 100.5
q-5 10 -6.5 21.5t0.5 21.5t6.5 16.5t11.5 6.5q4 0 8 -0.5t8 -0.5q36 83 69 164t53 147q-56 -28 -110.5 -70t-98 -91.5t-70 -103t-26.5 -104.5q0 -21 3 -32t7 -17.5t7 -10.5t3 -10q0 -13 -18 -8.5t-39 25.5t-39 58.5t-18 90.5q0 24 15 56t42 66.5t65.5 69.5t84.5 66
t99.5 54.5t111.5 36.5q3 16 3 30q0 12 6.5 14.5t17 -1.5t23.5 -12.5t25 -20.5q8 1 15 1h14zM431 261q0 50 -21.5 83t-72.5 33q-6 0 -12 -0.5t-13 -1.5q-3 -1 -6 -1t-5 -1q-8 -2 -16.5 -3.5t-16.5 -3.5q-20 -47 -38 -91.5t-32.5 -82.5t-25 -67t-13.5 -45q21 -3 47 -3
q54 0 96 19.5t70.5 47.5t43.5 60t15 57zM301 446q73 6 124.5 35t82.5 69t42 84.5t2 82.5t-37.5 63t-76.5 25h-11t-11 -1q8 -17 7 -29q0 -12 -10 -44t-27 -76.5t-39 -98t-46 -110.5z" />
    <glyph glyph-name="C" unicode="C" horiz-adv-x="577" 
d="M580 734q-1 -9 -6 -30.5t-13 -49.5t-17.5 -59.5t-17.5 -61t-13.5 -54t-5.5 -37.5q0 -9 -12.5 -9t-27 10t-26 31t-9.5 54q1 22 10 49.5t21 55t24.5 53.5t20 46t7.5 32t-12 12q-35 0 -75.5 -31t-81.5 -81t-78.5 -114.5t-66 -132t-45 -132t-14 -114.5t26.5 -81t76 -31
q46 0 90 17t82.5 43.5t71 58.5t56 61.5t36.5 53t13 33.5q0 7 5.5 6t11.5 -7t11 -15.5t5 -19.5q-1 -19 -17 -48t-43 -62t-63.5 -66.5t-79 -60t-88.5 -43.5t-93 -17q-105 0 -162.5 37t-78.5 98t-9 139t46.5 159t87 159t112.5 139t124 98t121 37q54 0 76.5 -31t19.5 -94z" />
    <glyph glyph-name="D" unicode="D" horiz-adv-x="697" 
d="M403 834q84 0 143.5 -33t94.5 -87.5t44.5 -125t-7 -145.5t-58.5 -148.5t-110 -134.5t-163 -103t-217 -55q-2 -14 -7.5 -26t-17.5 -12q-8 0 -29 9.5t-41 23.5q-40 0 -67 12t-42.5 26.5t-18.5 26t5 11.5q12 0 20 -2.5t15.5 -6t17 -6t24.5 -2.5q2 0 3.5 0.5t3.5 0.5
q6 16 24.5 57.5t44.5 98t57 125t60 139t54.5 139t41.5 126.5q-59 -29 -117 -72.5t-103.5 -95t-74 -108t-28.5 -110.5q0 -22 3.5 -34t7 -18.5t7 -10.5t3.5 -10q0 -14 -19 -9t-41.5 26.5t-41 60.5t-18.5 95q0 25 15.5 58.5t44 70t68.5 73.5t89 69t105 57t117 38q1 8 1.5 16
t0.5 16q0 15 10.5 19t25.5 0t31.5 -15t28.5 -24h10zM174 96q72 25 135.5 68t114.5 96t89 112.5t59.5 117.5t25.5 111.5t-12 94t-53.5 64.5t-99.5 24q-3 0 -2 0h2.5h2t-2.5 0q-6 -19 -24.5 -67.5t-43.5 -113t-53 -138.5t-54.5 -144t-49 -129.5t-34.5 -95.5z" />
    <glyph glyph-name="E" unicode="E" horiz-adv-x="583" 
d="M584 328q0 7 5.5 6.5t11.5 -6.5t11 -16t5 -20q-1 -19 -15.5 -48.5t-40 -63t-62 -66.5t-81.5 -60t-97 -44t-109 -17q-75 0 -124.5 24.5t-73.5 64t-24 88.5t23.5 98t69.5 93t113 73q-80 51 -77 144q2 39 18 74.5t41.5 66.5t57.5 56.5t66.5 44t68 28.5t61.5 10q30 0 57.5 -8
t48.5 -23t32.5 -36t10.5 -48q-2 -43 -17 -81.5t-37.5 -68t-49.5 -47t-52 -17.5q-8 0 -13.5 5t-7.5 10.5t-0.5 10.5t7.5 5q10 0 27.5 14t35 35t31 45t16.5 45t-8.5 35t-43.5 14q-48 0 -90.5 -19.5t-74.5 -48.5t-51 -63.5t-20 -64.5q-1 -22 6 -50t34 -42q32 8 66.5 12t72.5 4
q45 0 62.5 -18.5t15.5 -42.5q-1 -23 -14 -39t-23 -16q-5 0 -6.5 2t-3.5 4.5t-6 4.5t-14 2q-80 0 -139.5 -24t-98 -60.5t-56.5 -79t-14.5 -79t28 -60.5t70.5 -24q54 0 103 18t90 46.5t73.5 62t55.5 65t35.5 56t13.5 34.5z" />
    <glyph glyph-name="F" unicode="F" horiz-adv-x="589" 
d="M448 445q43 0 67.5 -6.5t37 -17t15.5 -23.5t3 -27t-6 -27t-14 -23t-16.5 -15.5t-13.5 -5.5q-6 0 -8 7.5t-10.5 16.5t-29.5 16.5t-64 7.5q-22 -54 -46 -105.5t-43.5 -95t-33 -75t-14.5 -46.5q-1 -7 -2 -16t-4 -16.5t-8 -12.5t-12 -5q-8 0 -26 8t-36.5 20t-32 26t-12.5 27
q1 6 12.5 30.5t30 61.5t42 84.5t48.5 99.5q-63 -8 -119 -16t-90 -8q-30 0 -49 10t-30 23.5t-15 27t-4 19.5q0 16 2 19t12.5 0t32.5 -8.5t61 -5.5q46 0 110.5 11t131.5 23q19 43 36.5 86.5t30 83t20 74.5t7.5 62q0 10 -1 24t-5.5 27t-13.5 21.5t-25 8.5q-42 0 -93 -18
t-103.5 -48.5t-101.5 -72t-87.5 -88t-61.5 -95.5t-23 -96q0 -21 3 -32t7 -18t7 -10.5t3 -9.5q0 -13 -18 -8.5t-39.5 25.5t-39.5 58.5t-18 91.5q0 28 19.5 66t55 78t84.5 79.5t107.5 70.5t124 50t135.5 19q48 0 84.5 -14.5t61.5 -38.5t38 -54t13 -61q0 -17 -6 -43t-16 -57.5
t-23.5 -68t-28.5 -75.5z" />
    <glyph glyph-name="G" unicode="G" horiz-adv-x="679" 
d="M557 366q18 0 29.5 -6t19 -15t10.5 -19.5t3 -20.5q0 -20 -13.5 -34t-21.5 -14t-12 3.5t-8 7.5t-10 8t-17 4q-3 -21 -14 -50t-29.5 -61t-43.5 -63.5t-55 -56.5t-64.5 -40.5t-71.5 -15.5q-105 0 -164.5 37t-83 98t-15 139t39.5 159t79.5 159t106.5 139t120 98t119 37
q54 0 77.5 -31t23.5 -94q0 -9 -4.5 -30.5t-11 -49.5t-14.5 -59.5t-14.5 -61t-11 -54t-4.5 -37.5q0 -9 -12.5 -9t-27 10t-27 31t-12.5 54q0 22 8 49.5t18.5 55t22 53.5t18 46t6 32t-12.5 12q-35 0 -74.5 -31t-78 -81t-73.5 -114.5t-60.5 -132t-38.5 -132t-8 -114.5t30.5 -81
t77.5 -31q33 0 67.5 23t65 56.5t55.5 71.5t40 68q-35 -4 -62 -10t-59 -6q-26 0 -42 10.5t-25 23.5t-12 25.5t-3 16.5q0 11 4 12.5t13.5 -1.5t27 -7.5t44.5 -4.5t48.5 4.5t42 10t43 10t51.5 4.5z" />
    <glyph glyph-name="H" unicode="H" horiz-adv-x="623" 
d="M560 437q13 -11 17.5 -23.5t4.5 -25.5q0 -14 -6 -27t-14 -23t-16.5 -16t-14.5 -6q-4 0 -6 3.5t-6 8.5q-19 -51 -36.5 -100t-30.5 -89.5t-21 -71t-8 -45.5q0 -13 -20 -15t-44 5.5t-44 24.5t-20 42q0 13 8.5 40.5t22.5 64.5t32 83t38 97q-36 -1 -78.5 -5.5t-87.5 -10.5
q-22 -56 -43 -110.5t-37 -100.5t-26 -80.5t-10 -51.5q0 -13 -20 -15t-44 5.5t-44 24.5t-20 42q0 13 8.5 38.5t23 60.5t33.5 78t39 90q-45 -6 -76 -6q-30 0 -49 10t-30 23.5t-15.5 27t-4.5 19.5q0 16 2 19t12.5 0t32.5 -8t62 -5q22 0 48.5 2.5t55.5 7.5q19 47 37 94.5
t31.5 92t21.5 84.5t8 72q0 10 -3 22t-10.5 22.5t-19.5 17t-29 6.5q-42 0 -91 -18t-97 -48.5t-93 -72t-79 -88t-54.5 -96t-20.5 -96.5q0 -21 3 -32t7 -17.5t7 -10.5t3 -10q0 -13 -18 -8.5t-40 25.5t-40 59t-18 92q0 28 20 66t55.5 78.5t84.5 80t108 70.5t125.5 50.5
t136.5 19.5q97 0 146 -38.5t49 -114.5q0 -14 -7.5 -41.5t-20 -64t-29 -81t-35.5 -92.5q45 8 88 13.5t79 7.5q31 88 55.5 175.5t31.5 162.5q1 12 12.5 14t27.5 -3.5t35 -16t34.5 -23.5t26 -26.5t9.5 -23.5q-1 -7 -10 -32.5t-23 -64t-33 -87t-39 -101.5z" />
    <glyph glyph-name="I" unicode="I" horiz-adv-x="649" 
d="M501 747q0 10 -3 22t-10.5 22t-19.5 17t-29 7q-42 0 -90.5 -18t-97 -48.5t-93 -71.5t-78.5 -87.5t-54.5 -96t-20.5 -96.5q0 -21 3 -32t7 -17.5t7 -10.5t3 -10q0 -13 -18 -8.5t-39.5 25.5t-39.5 58.5t-18 91.5q0 28 19.5 66t55 78.5t84.5 80t108 70.5t125 50t136 19
q97 0 146 -38t49 -114q0 -32 -18 -93t-45 -134t-59 -151.5t-59 -147t-45 -119.5t-18 -69q0 -13 -20 -15t-44 5.5t-44 24.5t-20 42q0 18 18 63t44.5 106.5t57.5 133t57.5 143t44.5 137.5t18 115z" />
    <glyph glyph-name="J" unicode="J" horiz-adv-x="725" 
d="M578 748q0 10 -3 22t-10.5 22t-19 16.5t-28.5 6.5q-42 0 -90 -17.5t-95.5 -48t-91.5 -71t-78 -86.5t-54 -94.5t-20 -95.5q0 -21 3 -32t7 -17.5t7 -10.5t3 -10q0 -13 -18 -8.5t-39.5 25.5t-39.5 58.5t-18 90.5q0 28 19.5 65.5t54.5 77.5t84 79t107 69.5t123.5 49.5
t134.5 19q95 0 144 -38t49 -113q0 -53 -13.5 -121t-38.5 -143t-60 -152.5t-77.5 -150.5t-92 -137.5t-103.5 -112.5t-111.5 -76t-115.5 -28q-26 0 -50.5 9t-43.5 27.5t-30 45.5t-11 63q0 25 9 42t22 28t27.5 16t24.5 5q12 0 11 -9t-6.5 -24t-12 -35t-6.5 -42q0 -8 0.5 -18.5
t5.5 -21t16 -17.5t31 -7q26 0 61.5 27.5t75 74.5t81.5 110t81.5 134.5t75 147.5t62 149t42 139t15.5 118z" />
    <glyph glyph-name="K" unicode="K" horiz-adv-x="534" 
d="M675 -48q13 0 8.5 -18t-25.5 -39t-58.5 -39t-90.5 -18q-32 0 -74 32.5t-85 86t-82 122t-66 140.5q-29 -76 -49 -135.5t-20 -83.5q0 -9 -10 -12.5t-25 -3t-33 6t-33 14.5t-25 22t-10 30q0 13 9.5 41.5t25.5 66.5t36.5 84.5t42.5 97.5q-14 20 -9 37.5t30 15.5l1 -1
q20 48 38 96.5t32 93.5t22.5 85.5t8.5 73.5q0 10 -3 22t-10.5 22t-19.5 16.5t-29 6.5q-41 0 -89 -17.5t-96 -48t-92 -71t-78 -86.5t-54 -94.5t-20 -95.5q0 -21 3 -32t7 -17.5t7 -10.5t3 -10q0 -13 -18 -8.5t-39 25.5t-39 58.5t-18 90.5q0 28 19.5 65.5t54.5 77.5t83.5 79
t106.5 69.5t123.5 49.5t134.5 19q96 0 149.5 -38.5t53.5 -113.5q0 -15 -8.5 -45t-23 -71t-33 -90t-38.5 -101q49 25 95.5 64t87.5 83t76 89t60 84.5t39 68.5t14 41q0 18 13 16t28 -15.5t28 -35t13 -42.5q0 -32 -19.5 -74.5t-54 -88.5t-80.5 -92.5t-99.5 -86t-111 -68
t-114.5 -39.5q17 -39 40 -81.5t51 -83.5t60 -78.5t66 -66t70 -45t72 -16.5q21 0 32 3t17.5 7t10.5 7t10 3z" />
    <glyph glyph-name="L" unicode="L" horiz-adv-x="537" 
d="M668 -48q10 0 11.5 -15.5t-12 -34t-45 -34t-86.5 -15.5q-31 0 -71 12.5t-84 31t-90.5 40.5t-90.5 40.5t-83.5 31t-69.5 12.5q-21 -15 -46.5 -22.5t-50.5 -5.5q-35 2 -60 19t-25 49q0 30 22.5 43.5t49.5 18.5q32 5 72 2q43 69 74 150t58.5 162.5t56.5 157.5t68.5 134.5
t94 93.5t134.5 35q54 0 77.5 -31t23.5 -93q0 -10 -4.5 -31.5t-11 -49.5t-14.5 -59.5t-14.5 -60.5t-11 -53.5t-4.5 -38.5q0 -9 -12.5 -9t-27 10t-27 31.5t-12.5 54.5q0 22 8 49t18.5 54.5t22 53.5t18 46t6 32t-12.5 12q-42 0 -76.5 -40.5t-64.5 -104t-58 -141t-55.5 -153
t-56.5 -139t-63 -98.5q62 -15 117 -46t105.5 -62.5t97 -55t91.5 -23.5q37 0 55.5 6t27.5 13.5t14.5 14t16.5 6.5z" />
    <glyph glyph-name="M" unicode="M" horiz-adv-x="901" 
d="M711 79q-2 -10 -2 -22.5t2 -18.5q3 -9 -8.5 -20t-40.5 -11q-10 0 -28 6t-34.5 19.5t-28 35t-7.5 51.5q2 19 19 65.5t40.5 109.5t51 138.5t50.5 152.5q-18 -27 -47.5 -71t-64 -97t-70.5 -110t-67 -110t-53 -96.5t-28 -69.5q3 -9 -8.5 -20t-40.5 -11q-9 0 -24.5 4
t-29.5 14.5t-23 29.5t-5 49q2 14 11.5 47t24.5 79.5t33.5 103t37.5 118t37.5 125.5t33.5 125q-33 -54 -79.5 -125t-101 -147t-114.5 -149.5t-119 -131.5t-114 -93.5t-101 -35.5q-34 0 -56 7t-35 16.5t-18 20t-4 17.5t5 8.5t10 0t14.5 -4t18.5 -2.5q43 0 93.5 28.5t104 76
t108.5 110t107.5 129.5t101.5 135t89.5 127t72 105t49.5 69q0 5 1 8q2 14 16 11q1 1 2 1q10 0 15 -6q15 -7 33.5 -21t33.5 -30t25 -32t9 -27q-1 -9 -10.5 -39t-23 -72t-29 -90.5t-29.5 -94.5t-24.5 -84.5t-12.5 -59.5q-3 -5 -5 -16q32 49 71 109.5t79 124.5t79 129t72 124
q1 8 2 14.5t2 13.5q1 12 11.5 12t25.5 -8t31.5 -22t30.5 -29.5t22 -30.5t7 -25q-1 -9 -14 -45.5t-33 -90t-43.5 -119.5t-45 -133.5t-38.5 -132.5t-23 -116z" />
    <glyph glyph-name="N" unicode="N" horiz-adv-x="719" 
d="M793 779q0 -19 -12.5 -56.5t-32.5 -86.5t-45.5 -107t-52 -118t-52.5 -118.5t-45.5 -109.5t-31.5 -90.5t-12 -61.5q5 -9 -11 -20t-45 -11q-10 0 -26.5 4t-33 14.5t-30.5 29.5t-18 49q-2 14 -1 47t3.5 79.5t6 103t6 118t4 126t0.5 125.5q-19 -54 -46.5 -125.5t-62.5 -147.5
t-75 -149.5t-84 -131.5t-89.5 -93.5t-91.5 -35.5q-34 0 -58.5 7t-40 17t-23.5 20.5t-9 17.5t3 8t10.5 -0.5t15.5 -4t19 -2.5q43 0 86 28.5t84 76t80 110t74 129.5t66 135t56 127t44 105t31 69v8q-3 18 22 11q2 -1 3 -1t2 -1q16 -6 37.5 -18.5t41 -28t33 -31t15.5 -26.5
q1 -12 -3 -57.5t-9 -110.5t-8 -142t0 -150q18 37 41 85t46.5 100.5t46 106.5t40 103.5t28 90t10.5 67.5q0 18 14.5 15t32.5 -17.5t32.5 -37t14.5 -43.5z" />
    <glyph glyph-name="O" unicode="O" horiz-adv-x="686" 
d="M479 859q39 0 73.5 -20.5t59.5 -54t38.5 -76.5t9.5 -89q-7 -81 -30 -159.5t-58 -148t-79.5 -128t-94 -101t-103 -66t-106.5 -23.5q-58 0 -99 28.5t-66.5 73t-36 99t-5.5 106.5q7 93 34 164t61 119.5t70 73.5t62 25q8 0 13 -4q25 37 54.5 70t62.5 58t68 39t72 14zM182 80
q38 0 78 27t78 73t72.5 106t62 125t45.5 131.5t23 125.5q6 66 -12.5 98t-44.5 32q-19 0 -42.5 -20t-48.5 -52.5t-50 -75t-47 -88t-40 -90t-29 -82t-14 -63.5t5 -35q7 -8 -2 -12t-25 -2.5t-35 9.5t-31 25q-13 -37 -18 -74q-6 -75 14.5 -116.5t60.5 -41.5z" />
    <glyph glyph-name="P" unicode="P" horiz-adv-x="621" 
d="M424 856q87 0 144.5 -21t88 -55.5t35 -79t-13 -90.5t-56 -90.5t-95 -79t-129 -55.5t-158.5 -21q-2 0 -3 1q-19 -57 -39 -111.5t-36 -101.5t-26 -83.5t-10 -57.5q0 -13 -20 -11.5t-43.5 13.5t-43.5 32t-20 45q0 16 12 52t31.5 86t43 110t47 125t44 131t32.5 127
q-44 -34 -83 -75t-68 -83t-45.5 -81.5t-16.5 -70.5q0 -26 5 -43t9 -27.5t4.5 -15t-9.5 -4.5t-27 10t-34 31.5t-29.5 54.5t-12.5 79q0 33 25 76.5t69 88.5t103.5 86t128.5 69q47 18 96 29t100 11zM260 430q90 2 152 31.5t98.5 72.5t48 92.5t1 91.5t-42.5 70t-82 28
q-32 0 -64.5 -9t-65.5 -25q16 -14 33 -32t17 -30q0 -7 -8 -33t-21 -65.5t-30.5 -88.5t-35.5 -103z" />
    <glyph glyph-name="Q" unicode="Q" horiz-adv-x="713" 
d="M685 -79q13 0 7.5 -18t-28 -40t-61.5 -40t-93 -18q-22 0 -52 13.5t-64 38.5t-69 60.5t-66 80.5q-25 -5 -45 -5q-58 0 -102 28.5t-73.5 73.5t-43 99.5t-10.5 105.5q6 104 33.5 176.5t63 118.5t73 66.5t63.5 20.5q9 0 19 -8q23 38 50.5 72t58.5 59.5t65.5 40t71.5 14.5
q39 0 73 -22.5t59 -58.5t38 -81.5t10 -91.5q-6 -96 -32.5 -182.5t-68 -159t-94.5 -129.5t-112 -95q53 -63 120 -101t137 -38q21 0 32.5 3t18.5 7t11 7t10 3zM209 81q-28 54 -46 115t-23 129q-5 -20 -8 -41.5t-5 -44.5q-5 -75 16.5 -116.5t61.5 -41.5h4zM298 127
q47 43 90.5 103.5t77.5 131.5t56.5 149t27.5 158q4 66 -15 97.5t-45 31.5q-32 0 -61 -20t-55 -54.5t-48 -79t-38.5 -94t-27 -100t-13.5 -96.5q-4 -59 10 -116.5t41 -110.5z" />
    <glyph glyph-name="R" unicode="R" horiz-adv-x="585" 
d="M638 -90q12 0 24.5 7t23 12t17 5t6.5 -15q0 -8 -9 -20t-24.5 -23.5t-36.5 -20t-46 -8.5q-64 0 -113 24.5t-86.5 64.5t-65 90t-48.5 100.5t-37 97t-30 79.5q-18 -48 -33.5 -92t-27 -81t-18.5 -65t-7 -42q0 -13 -20 -15t-44 6t-44 24.5t-20 41.5q0 17 13 55t33.5 90.5
t45 116t48.5 131t44.5 135.5t31.5 131q-45 -35 -85 -76.5t-70 -84t-47 -83t-17 -72.5q0 -26 5 -43.5t9 -28t4.5 -15t-9.5 -4.5t-27.5 10t-34.5 31.5t-29.5 55t-12.5 80.5q0 29 20 67.5t56 79t85.5 79.5t108 69.5t124 49t133.5 18.5q110 0 172.5 -32t83 -81.5t3.5 -108.5
t-66.5 -113t-127 -95t-177.5 -55q8 -20 19.5 -63.5t29.5 -96.5t42.5 -109t58 -102.5t76 -76t96.5 -29.5zM301 793q13 -8 25.5 -17t22 -18.5t15 -19t4.5 -17.5q-1 -7 -9.5 -31.5t-22.5 -61.5t-32 -83.5t-37 -97.5q87 5 147.5 35.5t96.5 73.5t48 91.5t2 89.5t-41 68t-81 27
q-33 0 -68 -10.5t-70 -28.5z" />
    <glyph glyph-name="S" unicode="S" horiz-adv-x="512" 
d="M-84 190q0 -30 25.5 -48t63 -26t82 -7t82 10t63 24.5t25.5 36.5q0 23 -18 40t-45 33.5t-58.5 34.5t-58.5 42t-45 57t-18 80q0 46 16.5 93t44 90.5t64 81.5t76 66t79.5 44t75 16q45 0 78 -17t54.5 -42t32.5 -53.5t11 -50.5t-7.5 -51t-20 -60t-29.5 -60.5t-36 -52.5
t-39 -37.5t-39 -14.5q-24 0 -42.5 10.5t-29 22.5t-11 22.5t12.5 10.5q14 0 36.5 26.5t44 67t37 88t15.5 90.5q0 16 -9 24t-23 8q-21 0 -47 -15.5t-52 -41t-51.5 -59.5t-44.5 -70.5t-31 -73.5t-12 -69q0 -43 13 -72t32 -49.5t42 -37t42 -34.5t32 -41t13 -57q0 -46 -20 -79
t-55 -54t-82.5 -31t-102.5 -10q-50 0 -93 14.5t-74 37t-48.5 50.5t-17.5 55q0 38 15.5 65.5t33.5 42.5t33.5 16.5t15.5 -10.5q0 -6 -4.5 -11t-10.5 -13t-10.5 -20t-4.5 -32z" />
    <glyph glyph-name="T" unicode="T" horiz-adv-x="367" 
d="M511 858q49 0 79.5 -7.5t47.5 -19.5t22.5 -28t5.5 -32t-6.5 -30.5t-16 -26t-19.5 -18t-16 -6.5t-11 8.5t-18 19t-39.5 19t-75.5 8.5q-31 0 -67.5 -3t-76.5 -8q7 -6 13.5 -13.5t12 -15.5t8.5 -15.5t2 -11.5q-1 -10 -18 -56.5t-43 -112.5t-55.5 -143.5t-54.5 -149t-42 -129
t-17 -83.5q0 -12 -19.5 -9.5t-42.5 15t-42.5 32.5t-19.5 43q0 16 12.5 53t32.5 87.5t44 112t47 126.5t41.5 130.5t28.5 124.5q-58 -8 -108.5 -15t-82.5 -7q-34 0 -56 11.5t-34.5 27t-17.5 31t-5 22.5q0 19 2.5 22.5t14.5 0t37 -9.5t71 -6q45 0 107.5 9.5t129.5 21.5
t131 21.5t114 9.5z" />
    <glyph glyph-name="U" unicode="U" horiz-adv-x="833" 
d="M689 788q1 12 12 14t27 -3t34.5 -15.5t34 -23.5t25.5 -26t10 -23q0 -15 -16.5 -65.5t-41.5 -119t-54 -147.5t-54 -150.5t-41.5 -127t-16.5 -78.5q0 -13 -20 -10t-44 16t-44 34.5t-20 46.5q0 26 22.5 83t60.5 155l-45 -75t-49.5 -79t-51.5 -75t-50 -63.5t-45 -44
t-36 -16.5q-35 0 -65 13t-52.5 35t-35.5 50t-13 58q0 18 15 56t38 88t49 109t49 120t38 119t15 107q0 10 -3 22t-10.5 22t-19.5 16.5t-29 6.5q-42 0 -90 -17.5t-95.5 -48t-91.5 -71t-78 -86.5t-54 -95t-20 -95q0 -21 3 -32t7 -17.5t7 -10.5t3 -10q0 -13 -18 -8.5t-39 25.5
t-39 58.5t-18 90.5q0 28 19.5 65.5t54.5 77.5t83.5 79t106.5 69.5t123.5 49.5t134.5 19q193 0 193 -151q0 -30 -15 -82t-37.5 -114t-48.5 -128t-48.5 -124t-37.5 -102t-15 -62q-2 -9 0 -15q2 -5 6 -9.5t15 -4.5q16 0 47.5 37t71 95t82.5 127.5t81.5 134.5t68 117t41.5 74
q9 36 15.5 69.5t8.5 65.5z" />
    <glyph glyph-name="V" unicode="V" horiz-adv-x="787" 
d="M202 -5q-26 0 -47.5 13t-37 35t-24 50t-8.5 58q0 18 15 56t38 88t49 109t49 120t38 119t15 107q0 10 -3 22t-10.5 22t-19.5 16.5t-29 6.5q-42 0 -90 -17.5t-95.5 -48t-91.5 -71t-78 -86.5t-54 -95t-20 -95q0 -21 3 -32t7 -17.5t7 -10.5t3 -10q0 -13 -18 -8.5t-39.5 25.5
t-39.5 58.5t-18 90.5q0 28 19.5 65.5t54.5 77.5t84 79t107 69.5t123.5 49.5t134.5 19q95 0 149.5 -45.5t54.5 -120.5q0 -21 -14.5 -66.5t-36.5 -103.5t-48 -121.5t-48 -121.5t-36.5 -104.5t-14.5 -69.5q0 -8 3 -13q2 -5 7.5 -9t16.5 -4q40 13 82.5 50t84.5 89t83 115
t77.5 127.5t67 127t53 112.5t35 84.5t12.5 44.5q0 18 13 16t28 -15.5t28 -35t13 -42.5q0 -26 -17.5 -72t-48 -104.5t-72 -124t-89.5 -130.5t-101 -124t-106 -104.5t-104 -72.5t-96 -27z" />
    <glyph glyph-name="W" unicode="W" horiz-adv-x="1041" 
d="M1037 831q0 18 14.5 13t32.5 -21.5t32.5 -41t14.5 -45.5q0 -34 -24 -102t-65 -150.5t-96.5 -169t-119 -157.5t-131.5 -116.5t-134 -45.5q-25 0 -46 12.5t-36.5 33.5t-24.5 48.5t-10 56.5q-18 -30 -37.5 -57t-39 -48t-37.5 -33.5t-34 -12.5q-34 0 -64.5 13t-53 35
t-35.5 50t-13 58q0 18 15 56t38 88t49 109t49 120t38 119t15 107q0 10 -3 22t-10.5 22t-19.5 16.5t-29 6.5q-41 0 -89 -17.5t-96 -48t-92 -71t-78 -86.5t-54 -95t-20 -95q0 -21 3 -32t7 -17.5t7 -10.5t3 -10q0 -13 -18 -8.5t-39 25.5t-39 58.5t-18 90.5q0 28 19.5 65.5
t54.5 77.5t83.5 79t106.5 69.5t124 49.5t135 19q47 0 86 -12.5t67 -35.5t43.5 -54.5t15.5 -68.5q0 -21 -17 -67.5t-42 -104.5t-55 -123t-55 -124t-42 -106t-17 -70q0 -8 3 -13q2 -5 7.5 -9t16.5 -4q24 0 53 28t59.5 72t60.5 97.5t56 104t45.5 93t28.5 63.5q6 25 9.5 50
t3.5 51q0 18 20.5 20t44.5 -6t44.5 -23.5t20.5 -31.5q0 -21 -12.5 -61.5t-30.5 -90.5t-40 -104.5t-40 -104.5t-30.5 -91.5t-12.5 -64.5q0 -8 3 -13q2 -5 7.5 -8.5t16.5 -3.5q29 0 64 31.5t72 84t74.5 120t72 139t64.5 141t52 127t35 96t13 48.5z" />
    <glyph glyph-name="X" unicode="X" horiz-adv-x="634" 
d="M678 -82q10 0 19 2.5t16 4t10.5 0t2.5 -8.5t-8.5 -17.5t-23.5 -20.5t-40 -17t-58 -7q-48 0 -91.5 24t-81.5 67t-70.5 103t-59.5 132q-43 -44 -85.5 -78.5t-81.5 -58t-73.5 -36t-60.5 -12.5q-25 0 -44.5 15.5t-19.5 47.5q0 10 2.5 13t8 2.5t13 -3t17.5 -2.5q29 0 63 18
t71 48.5t76 72.5t78 90q-10 34 -16.5 86t-13 110l-13 116t-17 104t-26 75t-38.5 29q-30 0 -63 -17.5t-65.5 -48t-61.5 -71t-51.5 -86.5t-35.5 -95t-13 -95q0 -21 3 -32t7 -17.5t7 -10.5t3 -10q0 -13 -18 -8.5t-39 25.5t-39 58.5t-18 90.5q0 28 13.5 65.5t38.5 77.5t59.5 79
t77.5 69.5t92 49.5t102 19q50 0 84.5 -25t57.5 -65t36.5 -89t21.5 -97.5t12.5 -90.5t9.5 -67q49 70 92.5 138t75.5 124.5t50.5 94.5t18.5 48q0 18 15 12.5t33.5 -23t33.5 -42t15 -45.5q0 -27 -25.5 -75.5t-67.5 -109t-96.5 -129t-111.5 -135.5q20 -73 47.5 -139.5
t63.5 -116.5t80.5 -80t99.5 -30z" />
    <glyph glyph-name="Y" unicode="Y" horiz-adv-x="804" 
d="M690 788q0 18 17.5 13.5t38 -23t38 -46t17.5 -54.5q0 -16 -11 -67t-32 -123.5t-51 -160t-67 -176.5t-80.5 -172.5t-92 -148.5t-101.5 -104t-109 -39q-50 0 -90 10.5t-68 25t-44 30t-17 26.5q-2 10 4 12t16 -0.5t23.5 -6t27.5 -3.5q97 0 168 45t126 127t99.5 195t89.5 250
q-19 -33 -44 -76t-53.5 -88t-58 -88t-57 -76.5t-52 -54t-41.5 -20.5q-34 0 -64.5 13t-53 35t-35.5 50t-13 58q0 18 15 56t38 88t49 109t49 120t38 119t15 107q0 10 -3 22t-10.5 22t-19 16.5t-28.5 6.5q-42 0 -90 -17.5t-95.5 -48t-92 -71t-78 -86.5t-54 -95t-20.5 -95
q0 -21 3 -32t7 -17.5t7 -10.5t3 -10q0 -13 -18 -8.5t-39 25.5t-39 58.5t-18 90.5q0 28 19.5 65.5t54.5 77.5t83.5 79t106.5 69.5t124 49.5t135 19q95 0 151.5 -38t56.5 -113q0 -22 -15.5 -68.5t-39 -106t-50.5 -125.5t-50.5 -126t-39 -107.5t-15.5 -70.5q-1 -11 0 -19
q1 -7 3.5 -12.5t9.5 -5.5q12 0 33 21.5t47.5 57.5t57.5 82.5t62.5 97t62 101.5t56 95.5t45 78.5t28.5 51q12 51 18.5 85.5t6.5 49.5z" />
    <glyph glyph-name="Z" unicode="Z" horiz-adv-x="667" 
d="M604 861q44 0 69.5 -7.5t39 -19.5t17.5 -28t4 -32q0 -18 -8 -33.5t-19 -27.5q-17 -20 -49 -55t-74.5 -81.5t-92.5 -102t-102.5 -116.5t-105 -125t-100.5 -127q39 7 66.5 11t51 6t46 3t50.5 1q49 0 78.5 -7.5t45 -19.5t20 -27.5t4.5 -31.5q0 -17 -8 -31.5t-18.5 -26
t-21.5 -18t-17 -6.5t-10 8.5t-16 19t-38 19t-75 8.5q-29 0 -64 -2.5t-72.5 -7t-76 -10t-74.5 -10.5q-4 -2 -6 -2q-9 0 -21.5 11t-24 27.5t-19.5 35t-8 33.5q0 6 20.5 31.5t55.5 64t81 87t97.5 101.5t105 107t102.5 103.5t90.5 91l69.5 69.5q-16 4 -44 4q-44 0 -91.5 -9
t-93.5 -19.5t-87.5 -19.5t-71.5 -9t-48 13t-27.5 30.5t-12.5 34t-3 23.5q0 15 2.5 17.5t13 0t33 -7t62.5 -4.5t87 10t96.5 21.5t98.5 21.5t93 10z" />
    <glyph glyph-name="bracketleft" unicode="[" horiz-adv-x="590" 
d="M678 915q11 0 11 -19q0 -22 -15 -44q-14 -23 -33 -23h-167q0 -6 -12 -37.5t-32 -80t-47 -110.5t-57 -130.5t-61.5 -139.5t-61 -136.5t-54.5 -122.5t-43 -97q9 0 37.5 0.5t59 1t54.5 1t25 0.5q10 0 10 -19q0 -23 -14 -44q-15 -23 -34 -23h-182h-17.5t-24.5 -1
q-7 0 -10.5 -0.5t-5 -0.5h-3h-4.5q-13 0 -13 19t4.5 38t9.5 30q2 6 18.5 42.5t42 92.5t57.5 126.5t66 147t67.5 152.5t61 142.5t46.5 118.5t25 79q0 5 0.5 8t1.5 7v3q0 16 16 18h1h16.5t41.5 -1h49.5t73 0.5t66.5 1t30 0.5z" />
    <glyph glyph-name="backslash" unicode="\" horiz-adv-x="370" 
d="M256 43q1 -13 -11 -30t-27 -30t-28.5 -18.5t-14.5 4.5t-7.5 48.5t-16.5 94.5t-21.5 124t-24 138.5t-23.5 137.5t-19.5 121t-13 89t-2.5 41q5 19 21.5 36t33 27t28 9.5t7.5 -16.5q-4 -15 -1 -54.5t10.5 -95t18.5 -122t23 -134.5t24 -132t21.5 -115t16 -84t6.5 -39z" />
    <glyph glyph-name="bracketright" unicode="]" horiz-adv-x="590" 
d="M-154 -110q-11 0 -11 18q0 21 15 44q13 24 33 24h167q0 6 12 37t32 80t47 111t57 130.5t61.5 139t61 136t54.5 122.5t43 97h-37.5t-59 -0.5t-54.5 -1t-25 -0.5q-11 0 -11 19q0 20 15 43q15 24 34 24h182h17t25 1q7 0 10.5 0.5t5 0.5h3h4.5q13 0 13 -20q0 -19 -4.5 -38
t-9.5 -29q-2 -7 -18.5 -43t-42 -92t-57.5 -127t-66.5 -147t-67.5 -152.5t-60.5 -143t-46.5 -118.5t-25 -79q0 -5 -2 -15v-2q0 -18 -16 -18h-1h-16.5t-41.5 1h-49.5t-73 -0.5t-66.5 -1t-30 -0.5z" />
    <glyph glyph-name="asciicircum" unicode="^" horiz-adv-x="525" 
d="M132 562q-9 0 -13 3t-6 7t0 11q0 6 9.5 17t24 24.5t32 27.5t34.5 25.5t30.5 19t20.5 7.5t17 -12t20.5 -30.5t19.5 -39.5t14 -39.5t3.5 -30.5t-11.5 -12q-15 0 -28 12.5t-24 27t-19.5 27t-14.5 12.5t-20 -9t-30.5 -19.5t-33 -19.5t-25.5 -9z" />
    <glyph glyph-name="underscore" unicode="_" horiz-adv-x="721" 
d="M29 -88q0 5 3 15.5t10 21t17.5 18.5t25.5 8q69 -1 136 -2q28 0 59 -0.5t61.5 -1t59.5 -0.5h53q34 0 64 1t53.5 2t38.5 2t19 1q7 0 15.5 -4t8.5 -18q0 -28 -18.5 -44t-37.5 -16h-19.5t-52.5 0.5t-81 0.5h-104q-51 0 -103.5 -0.5t-95 -0.5t-70 -0.5t-29.5 -0.5
q-13 0 -13 18z" />
    <glyph glyph-name="grave" unicode="`" horiz-adv-x="459" 
d="M273 568q-18 0 -46 10.5t-55 24.5t-46.5 29.5t-19.5 26.5q0 9 5 20t13 20t17.5 15t17.5 6q5 0 24 -16.5t43 -36.5t47.5 -36.5t38.5 -16.5q7 0 8.5 -7t-3 -16t-15.5 -16t-29 -7z" />
    <glyph glyph-name="a" unicode="a" horiz-adv-x="561" 
d="M561 340q8 12 13 9t7.5 -12t2 -19.5t-2.5 -13.5q-10 -16 -28.5 -43.5t-42.5 -60.5t-51.5 -67.5t-56 -63.5t-56 -48t-50.5 -22h-6q-8 0 -28 3t-41 11.5t-36 24.5t-13 43q1 7 2.5 15t4.5 19q-18 -23 -35.5 -43.5t-33.5 -36.5t-29.5 -25.5t-22.5 -9.5q-20 0 -46 9
t-48.5 25.5t-37 39.5t-12.5 51q2 19 14.5 54t31.5 77t43 85t49 78.5t49 58t44 22.5q27 0 50 -8.5t42.5 -21.5t35 -28.5t26.5 -29.5q20 47 22 62q1 18 19 17t38 -13t36 -29.5t15 -32.5q-1 -13 -15 -53.5t-33 -91.5t-38.5 -103t-31.5 -87q-8 -26 5 -26q11 0 28.5 14.5
t39.5 38.5t46.5 54t48 62t45 62t37.5 54zM60 61q9 0 24.5 15t35 39.5t40.5 54.5t41 60t37 57t28 45q5 14 10.5 26.5t10.5 24.5q-12 6 -27.5 11t-35.5 5q-14 0 -35 -25t-43 -62.5t-42 -81.5t-33.5 -81.5t-17.5 -62.5t7 -25z" />
    <glyph glyph-name="b" unicode="b" horiz-adv-x="525" 
d="M524 340q8 12 12.5 9.5t7 -11.5t2 -19.5t-3.5 -13.5q-13 -17 -39 -50t-61 -72t-76.5 -80t-85 -74.5t-86.5 -55t-81 -21.5q-20 0 -35.5 7t-27 17t-19 21.5t-10.5 21.5q-11 1 -30.5 5t-38.5 13t-31.5 24.5t-10.5 39.5q1 18 20.5 68.5t47.5 119t60 146t60.5 149.5t48 129.5
t22.5 85.5q1 18 19 17t38 -12.5t36.5 -29.5t15.5 -33q-1 -9 -14.5 -48.5t-34 -97t-46 -126.5t-50.5 -136q19 30 40.5 59.5t42.5 53t40 38.5t33 15q36 0 59.5 -10.5t37.5 -28.5t19 -42.5t3 -52.5q-2 -22 -11.5 -54t-25.5 -69t-37 -76t-46 -75q35 30 70.5 64.5t67 68t57.5 64
t41 52.5zM36 43q32 7 67 38.5t67.5 75.5t61 93t47.5 90.5t26 69t-3 27.5q-16 0 -36 -15t-42 -39.5t-44.5 -55.5t-43.5 -63t-39.5 -62t-31.5 -53q-13 -37 -20.5 -60.5t-8.5 -28.5t-0.5 -9.5t0.5 -7.5z" />
    <glyph glyph-name="c" unicode="c" horiz-adv-x="408" 
d="M305 369q-5 -5 -12 1t-18.5 15.5t-29 18t-43.5 8.5q-9 0 -21.5 -15.5t-26.5 -41t-28 -58t-26 -66t-20 -66.5t-10 -58q-2 -17 0.5 -27.5t7.5 -16t12 -7t14 -1.5q17 0 41.5 15.5t51.5 40t56.5 56t57 63.5t52 61.5t43.5 51.5q7 9 12 6.5t8 -9.5t4 -15t-1 -11
q-11 -16 -32.5 -45t-51 -64t-64 -71.5t-72 -66.5t-75 -49t-72.5 -19q-36 0 -63.5 13t-45.5 32.5t-27 41t-7 39.5q2 23 13.5 60t29.5 78.5t41.5 83.5t50 76t54 55t53.5 21q54 0 85 -18.5t46 -41.5t16.5 -44t-3.5 -26z" />
    <glyph glyph-name="d" unicode="d" horiz-adv-x="559" 
d="M561 340q8 12 13 9t7 -12t2 -19.5t-2 -13.5q-10 -16 -28.5 -43.5t-43 -60.5t-52 -67.5t-56 -63.5t-55.5 -48t-50 -22h-7q-8 0 -28 3t-41 11.5t-36 24.5t-13 43q2 13 9 35q-18 -23 -36 -44t-34.5 -37t-30 -25.5t-22.5 -9.5q-20 0 -46 9t-48.5 25.5t-37 39.5t-11.5 51
q1 19 13.5 54t31.5 77t43 85t49.5 78.5t49.5 58t44 22.5q24 0 46 -7.5t40.5 -18.5t33.5 -25.5t27 -27.5q35 98 63.5 198.5t36.5 184.5q1 12 12 14t27 -3.5t34 -16t33.5 -23t25 -25.5t8.5 -23q-1 -9 -14.5 -50t-34 -100.5t-45.5 -130.5t-49.5 -139.5t-45.5 -128.5t-33 -96
q-8 -27 6 -27q10 0 28 14.5t39.5 38.5t46 54t48 62t45 62t38.5 54zM59 61q8 0 22 12.5t31 33t35.5 46.5t37 53.5t35.5 54t30 47.5q8 19 14.5 39t14.5 40q-11 5 -25 8.5t-31 3.5q-14 0 -34.5 -25t-42.5 -62.5t-42.5 -81.5t-34 -81.5t-17.5 -62.5t7 -25z" />
    <glyph glyph-name="e" unicode="e" horiz-adv-x="442" 
d="M441 345q7 9 12 6.5t7.5 -9.5t3 -15t-1.5 -11q-11 -15 -33.5 -44.5t-53 -65t-67 -72t-75 -67t-77 -49.5t-72.5 -19q-25 0 -52.5 13.5t-50.5 34t-37.5 43.5t-12.5 41q4 45 18.5 90t36 85.5t47.5 76t53.5 61t54.5 40.5t49 15q28 0 54 -15t44.5 -37.5t29 -48.5t9.5 -47
q-2 -21 -19.5 -51.5t-44.5 -58t-60 -47.5t-67 -20q-20 0 -35.5 2.5t-28.5 7.5q-10 -27 -16 -50.5t-6.5 -41t6 -28t20.5 -10.5q31 0 65 15.5t68.5 40.5t68 57t63.5 64.5t55.5 62t44.5 51.5zM231 425q-11 0 -25.5 -13t-31 -35t-33.5 -51t-33 -60q39 9 68.5 35t47 53.5t20 49
t-12.5 21.5z" />
    <glyph glyph-name="f" unicode="f" horiz-adv-x="392" 
d="M393 341q8 12 13 9t7.5 -12t2 -19.5t-3.5 -13.5q-17 -22 -41.5 -55.5t-57 -67.5t-71.5 -63t-85 -42q-15 -50 -36.5 -103t-45 -96.5t-48.5 -72t-48 -28.5q-66 0 -103 37t-30 109q1 13 13.5 48t32 85t44.5 112t51.5 130t52 138t47 136.5t36 126t18.5 105.5q1 12 12 14
t27 -3.5t34 -16t33.5 -23t25 -25.5t8.5 -23q0 -7 -10.5 -38t-28 -79.5t-40 -109.5t-46.5 -128q27 -20 32.5 -64t0.5 -99q-1 -14 -5 -32.5t-10 -41.5q30 12 60.5 34.5t59 51t54 60t45.5 60.5zM118 188q0 6 1 16t1 19.5t-2 18t-7 11.5q-10 -27 -19.5 -53.5t-19.5 -52.5
q5 -7 13.5 -12.5t20.5 -8.5q5 19 8 35t4 27zM-19 -164q9 0 22.5 21.5t29 55.5t30.5 75.5t27 81.5q-25 6 -39 19q-17 -45 -31 -84.5t-24.5 -70t-16.5 -50.5t-7 -26q0 -5 1.5 -13.5t7.5 -8.5z" />
    <glyph glyph-name="g" unicode="g" horiz-adv-x="543" 
d="M544 339q8 12 13 9t7.5 -12t2 -19.5t-2.5 -13.5q-4 -6 -22.5 -31t-46 -61t-61 -78t-67 -81.5t-63.5 -72.5t-51 -50q-2 -2 -4 -3t-4 -3q-34 -77 -71.5 -148.5t-76 -126.5t-78 -88t-76.5 -33q-32 0 -51.5 10.5t-30.5 26.5t-14.5 34t-2.5 32q2 19 21 42.5t51 50.5t74 58
t90 66q33 70 65 147.5t61 152.5q-19 -27 -39.5 -54t-39.5 -48.5t-35.5 -35t-26.5 -13.5q-20 0 -46 9t-48.5 25.5t-37 39.5t-12.5 51q2 19 13.5 55t30 78.5t41.5 87.5t47.5 81.5t48 59.5t43.5 23q27 0 50 -8.5t42.5 -21.5t35 -28.5t26.5 -29.5q13 45 15 62q1 18 19 16.5
t38 -13t36.5 -29.5t15.5 -33q-1 -7 -11.5 -43.5t-28.5 -92t-43.5 -125t-55.5 -144.5q22 24 48.5 55.5t53.5 64.5t53 66t47.5 60.5t36.5 48t21 28.5zM67 57q9 0 26.5 18t38 46t43 62.5t43 68t37 61.5t25.5 43q2 8 5 15.5t5 15.5q-12 8 -29 13.5t-38 5.5q-14 0 -34 -26
t-41 -64.5t-40.5 -84t-32 -84t-16 -64.5t7.5 -26zM-95 -392q26 0 60.5 43.5t72.5 113.5q-61 -45 -100.5 -79t-41.5 -57q-2 -15 2 -18t7 -3z" />
    <glyph glyph-name="h" unicode="h" horiz-adv-x="593" 
d="M597 340q8 12 13 9t7.5 -12t2 -19.5t-2.5 -14.5q-10 -16 -31 -45.5t-48 -64t-58.5 -71t-63.5 -66t-61 -48.5t-52 -19q-14 0 -36.5 7.5t-44.5 23t-36.5 39t-11.5 55.5q2 21 11.5 49t22.5 58t27 59.5t24.5 52.5t15.5 37t-1 14q-5 0 -17.5 -15.5t-31 -41t-40.5 -57.5
t-45 -65.5t-45.5 -65.5t-40.5 -56q-6 -18 -9.5 -30t-3.5 -15q-1 -8 0 -11.5t1.5 -6t-0.5 -4.5t-5 -6q-5 -5 -26 -8.5t-43.5 1t-39.5 22t-14 54.5q2 18 17.5 61.5t38 103.5l49.5 132t50.5 146.5t41.5 147t24 134.5q1 12 12 14t27 -3.5t34 -16t33.5 -23t25 -25.5t8.5 -23
q0 -7 -8 -32.5t-21.5 -64.5t-30.5 -88t-35.5 -102t-38 -106.5t-36.5 -102.5q24 38 54.5 84.5t62 87t60 68t48.5 27.5q28 0 48 -11t31.5 -28.5t16 -38.5t2.5 -41q-1 -13 -10.5 -42.5t-23 -66t-27.5 -75t-23.5 -70.5t-13 -52.5t5.5 -20.5q11 0 30 14.5t42.5 39t50 55
t51.5 62.5t48 62.5t39 54.5z" />
    <glyph glyph-name="i" unicode="i" horiz-adv-x="294" 
d="M298 340q8 12 12.5 9t6 -12t0.5 -19.5t-3 -13.5q-10 -16 -28 -43.5t-42 -60.5t-51.5 -67.5t-56 -63.5t-55.5 -48t-50 -22h-6q-8 0 -28 3t-41 11.5t-36 24.5t-13 43q1 18 12.5 51t28 73.5t35 83.5t34.5 81t27 66t12 38q1 18 19 17t38 -13t36.5 -29.5t15.5 -32.5
q-1 -9 -8 -30.5t-17.5 -51t-23.5 -64t-26 -68.5t-24.5 -65.5t-19.5 -54.5q-8 -27 5 -27q11 0 29 14.5t40 38.5t46.5 54t48 62t45.5 62t38 54zM163 551q-16 0 -32 5t-28.5 14t-20 21t-6.5 25q2 20 14.5 41.5t31.5 39t40.5 29t41.5 11.5q30 0 48 -17.5t16 -49.5
q-2 -16 -10.5 -36.5t-22.5 -39t-32.5 -31t-39.5 -12.5z" />
    <glyph glyph-name="j" unicode="j" horiz-adv-x="273" 
d="M136 551q-16 0 -31.5 5t-28 14t-20 21t-6.5 25q1 20 14 41.5t31.5 39t40.5 29t42 11.5q30 0 48 -17.5t16 -49.5q-2 -16 -10.5 -36.5t-22.5 -39t-32.5 -31t-40.5 -12.5zM274 339q8 12 13 9t7.5 -12t2 -19.5t-2.5 -14.5q-4 -6 -22.5 -31t-46 -60.5t-60.5 -77.5t-66.5 -81.5
t-63.5 -72.5t-51 -50q-2 -2 -3.5 -3t-3.5 -3q-34 -77 -71.5 -148.5t-76.5 -126.5t-78.5 -88t-76.5 -33q-31 0 -50.5 10.5t-30.5 26.5t-14.5 34t-2.5 32q2 19 21 42.5t51 50.5t74 58t89 66q29 60 57 126.5t54 132.5t48 128t38.5 112t26.5 85.5t11 48.5q1 18 19 16.5t38 -13
t36 -29.5t15 -33q0 -7 -10.5 -43.5t-28.5 -92t-43.5 -125t-55.5 -144.5q22 24 48.5 55t53 64.5t52.5 66t47 60.5t36 48.5t21 28.5zM-363 -392q26 0 60.5 43.5t72.5 113.5q-61 -45 -100.5 -79t-41.5 -57q-2 -15 1.5 -18t7.5 -3z" />
    <glyph glyph-name="k" unicode="k" horiz-adv-x="493" 
d="M494 340q8 12 12.5 9t7 -12t2 -19.5t-2.5 -13.5q-10 -16 -29 -45t-44 -62.5t-53.5 -69t-57.5 -64t-56.5 -46.5t-50.5 -18t-43 17t-36.5 45t-30 64t-23.5 74q-23 -66 -38 -110t-16 -52t0 -11.5t1.5 -6t-0.5 -4.5t-5 -6q-5 -5 -26 -8.5t-43.5 1.5t-39 22t-13.5 54
q1 18 17 61.5t39 103.5t50 132t51 147t42.5 147.5t23.5 134.5q2 18 24.5 14t49 -19t47.5 -36t20 -36q-1 -7 -10 -35.5t-23.5 -71t-33.5 -95.5t-39 -110q23 24 49.5 47t55 40.5t57 28t55.5 10.5q26 0 37 -19t6.5 -48.5t-23 -65t-52 -68.5t-81 -58.5t-108.5 -34.5
q9 -33 21 -61.5t24.5 -50t26 -34t25.5 -12.5q24 0 54.5 26t62 64t62 81.5t55.5 79.5zM393 459q1 8 -11 4.5t-31.5 -14.5t-44.5 -29.5t-51 -41.5t-50.5 -48.5t-42.5 -51.5q45 10 86 30.5t72.5 46t51 53t21.5 51.5z" />
    <glyph glyph-name="l" unicode="l" horiz-adv-x="291" 
d="M292 338q8 12 13 9t7.5 -12t2 -19.5t-2.5 -14.5q-10 -16 -27.5 -44.5t-41 -62t-51.5 -68t-58.5 -63t-62.5 -46.5t-64 -18q-9 0 -24.5 5.5t-29 18.5t-23 33.5t-6.5 50.5q1 18 16 59.5t36.5 98t47 125t48.5 140t40.5 142t22.5 132.5q1 12 12 14t27 -3.5t34 -16t33.5 -23
t25 -25.5t8.5 -23q-1 -7 -8.5 -32t-20 -62.5t-29.5 -85.5t-35 -99.5t-37 -104.5t-36 -101.5t-31.5 -90t-23.5 -69.5q-3 -20 8 -20q10 0 27 14t37 36.5t42.5 52t44.5 60t42.5 60t36.5 53.5z" />
    <glyph glyph-name="m" unicode="m" horiz-adv-x="752" 
d="M754 341q8 12 13 9t7.5 -12t2 -19.5t-2.5 -14.5q-10 -15 -28 -43.5t-41.5 -62t-51 -69.5t-55.5 -66t-55.5 -51t-50.5 -25q-8 -3 -27 2t-37.5 17t-32 31t-11.5 44q1 17 11 46t24.5 64t31.5 74.5t33 77.5q-35 -43 -68 -84t-61.5 -76.5t-50 -64t-31.5 -44.5q0 -5 -0.5 -9.5
t-4.5 -8.5q-6 -5 -24 -1t-36.5 16t-32 31.5t-10.5 46.5q1 16 8 38.5t17.5 49t22.5 55.5l24 58q-23 -33 -54 -78.5t-62.5 -92.5t-58.5 -89.5t-42 -69.5q1 -8 1 -12.5t-5 -9.5q-6 -6 -25 -2t-39 16t-35 31.5t-13 46.5q1 18 12 48.5t27 67.5t34 77.5t34 78t27 69.5t13 52
q1 18 19 17t38 -13t36.5 -30t15.5 -33q-1 -9 -9 -32.5t-20 -56t-26.5 -70t-28.5 -74.5q11 17 27 41.5t35 52.5t39 57.5t39 56t35.5 48.5t27.5 36v1q1 18 19 17t38 -13t36.5 -29.5t15.5 -32.5q-1 -11 -9.5 -37t-21 -59.5t-27 -71t-27.5 -70.5q12 18 31 45.5t41 58.5t45 63
t45 60.5t40.5 50t30.5 32.5q3 6 10 7q1 1 4 1h2q12 0 28 -8t30 -19t23.5 -24t8.5 -25q-1 -9 -8.5 -32t-19 -55.5t-26 -70t-28.5 -75t-27 -71.5t-21 -58q-6 -22 6 -22q11 0 28 15.5t38 40t44 56.5t45.5 64.5t43.5 63.5t37 55z" />
    <glyph glyph-name="n" unicode="n" horiz-adv-x="564" 
d="M571 338q8 12 13 9t7.5 -12t2 -19.5t-2.5 -13.5q-10 -15 -28.5 -43t-43 -61.5t-52.5 -69t-56.5 -65t-56.5 -50t-51 -24.5q-8 -3 -27 2t-37.5 17t-32 31t-11.5 44q1 19 14 54t30.5 77t37.5 87.5t36 86.5q-19 -20 -45.5 -50t-56 -64t-59.5 -69.5t-56 -67.5t-44.5 -58
t-25.5 -41q-1 -13 1 -21t-5 -14q-6 -5 -25 -1t-39 16t-35 31.5t-13 46.5q1 18 12 48t27 66t34 76t33.5 77t26.5 68.5t13 51.5q1 18 19 17t38.5 -13t36.5 -29.5t15 -32.5q-1 -9 -8.5 -32.5t-19.5 -55t-26.5 -68.5t-28.5 -73q14 19 35.5 46.5t46 59t51.5 64t52 60.5t46.5 48.5
t36.5 28.5q2 2 8 4q2 1 5 1q6 0 8 -1q12 -2 27 -10t27.5 -19t20.5 -23t7 -23q-1 -9 -8.5 -32t-19 -55.5t-26 -70t-28.5 -75t-27 -71.5t-21 -58q-6 -22 6 -22q16 0 46.5 32t66 77.5t70 95t59.5 85.5z" />
    <glyph glyph-name="o" unicode="o" horiz-adv-x="480" 
d="M484 344q7 11 12 8t7 -11t1.5 -18t-3.5 -13q-17 -23 -43.5 -58t-62 -68.5t-78.5 -60.5t-92 -33q-35 -43 -76 -71t-84 -28q-36 0 -63.5 16t-46.5 40t-28 51.5t-7 50.5q1 17 9.5 38.5t21 44.5t27 46t29.5 42q9 38 30 73t49.5 61.5t60.5 42t62 15.5q33 0 58 -17t41.5 -43
t24 -57t4.5 -58q-3 -38 -22 -88t-49 -100q29 10 59.5 31t59 48t54 57t45.5 59zM205 471q-17 0 -35 -7.5t-36 -20t-34.5 -30t-29.5 -38.5q11 -1 27.5 -6.5t32.5 -14t26.5 -20t9.5 -24.5q-1 -7 -8 -19.5t-17.5 -29t-24 -35.5t-26.5 -38q30 -23 66 -35q16 26 30.5 55.5t25 57.5
t17.5 52.5t9 42.5q5 60 -1 85t-32 25zM43 56q20 0 39.5 13.5t38.5 35.5q-35 15 -61 40q-11 -18 -19.5 -34.5t-12 -28.5t-0.5 -19t15 -7z" />
    <glyph glyph-name="p" unicode="p" horiz-adv-x="542" 
d="M543 344q8 12 13 9t7.5 -12t2 -19.5t-3.5 -13.5q-13 -17 -39 -50t-61 -72.5t-76.5 -81t-85 -75.5t-86.5 -55.5t-81 -21.5q-21 0 -37.5 7.5t-28.5 19t-19 24t-9 22.5q-20 -55 -37.5 -105.5t-31.5 -90.5t-22.5 -66t-9.5 -32q0 -7 1 -11l1.5 -6t-0.5 -4.5t-5 -6.5
q-6 -5 -26.5 -5t-42.5 9t-38.5 29.5t-13.5 57.5q1 18 16.5 59.5t38 99t49 126.5t50 141t41.5 143t23 132q1 12 12.5 14t27 -3t34 -15.5t33.5 -23t25 -25.5t9 -23q-1 -8 -9.5 -35t-22.5 -69q20 31 43 64t45.5 59.5t43 43.5t35.5 17q36 0 60 -10.5t38 -28.5t19 -42.5t2 -52.5
q-2 -21 -11.5 -52.5t-25 -68t-36 -75.5t-44.5 -75q35 30 70 64.5t66.5 68t56.5 64.5t40 53zM45 41q32 2 67.5 32t69.5 74t64 94.5t50 94t27.5 72.5t-2.5 29q-16 0 -36.5 -16t-43.5 -42t-46.5 -58.5t-45 -66t-40 -64t-30.5 -51.5q-8 -24 -17 -48.5t-17 -49.5z" />
    <glyph glyph-name="q" unicode="q" horiz-adv-x="558" 
d="M237 -123q-23 -67 -38 -119.5t-17 -78.5q-1 -11 -0.5 -19t1 -13.5t-0.5 -9.5t-5 -8q-5 -5 -26 -5t-43.5 9t-39 30t-13.5 58q1 14 14.5 56t34.5 100.5t46.5 128t51.5 138.5q-20 -26 -41 -52t-40.5 -46.5t-36 -33t-26.5 -12.5q-20 0 -46 9t-48.5 25.5t-37 39.5t-12.5 51
q2 19 14.5 54t31.5 77t43 85t49 78.5t49 58t44 22.5q27 0 50.5 -8.5t43 -22t35.5 -29t27 -29.5q9 25 14 41.5t6 21.5q1 18 19 17t38 -13t36 -29.5t15 -32.5q0 -8 -12 -43t-31.5 -87t-43.5 -116.5t-48 -130.5q14 18 49 55t75.5 80.5t80 88t62.5 77.5q8 12 13 9t7.5 -12
t2 -19.5t-2.5 -13.5q-10 -15 -35 -44.5t-58.5 -67t-71 -80.5t-73 -85.5t-64 -81.5t-42.5 -68zM281 357l9 24q-12 7 -29 12.5t-37 5.5q-14 0 -35 -25t-43 -62.5t-42 -81.5t-33.5 -81.5t-17.5 -62.5t7 -25q8 0 22 12.5t31 33.5t36 47.5t38 54.5q44 65 94 149v-1z" />
    <glyph glyph-name="r" unicode="r" horiz-adv-x="371" 
d="M376 339q8 12 13 9t7.5 -12t2 -19.5t-2.5 -13.5q-10 -15 -27 -45t-39.5 -65.5t-48.5 -73t-52.5 -69t-53 -52.5t-49.5 -24q-1 0 -2.5 -0.5t-3.5 -0.5q-8 0 -28 3t-41 12t-36 25t-13 43t18 64t34 74t33 69t16 47q2 18 -9 31.5t-31 27.5q-14 -22 -27.5 -40t-21.5 -29
q-3 -5 -8 -2t-9 9.5t-5.5 13.5t1.5 12q8 10 17 24.5t21 31.5q-17 12 -34 26t-29.5 33t-19 43t-3.5 56q3 39 24.5 72t49.5 57.5t57.5 38t49.5 13.5q22 0 36.5 -22.5t9.5 -76.5q-4 -44 -22.5 -91.5t-42.5 -92.5q19 -15 41.5 -27.5t41 -26.5t30 -32t9.5 -45q-1 -12 -11.5 -43
t-24 -69t-28 -77t-24.5 -68q-8 -28 5 -28q11 0 27.5 16.5t36.5 43t42.5 60t44.5 68t42.5 66.5t36.5 56zM60 551q-2 -26 4 -45.5t18 -34.5q22 40 38.5 82t19.5 78q3 32 -2 43t-16 11q-9 0 -19.5 -14t-19.5 -34.5t-15.5 -43.5t-7.5 -42z" />
    <glyph glyph-name="s" unicode="s" horiz-adv-x="349" 
d="M351 341q8 12 13.5 10.5t8.5 -9t3 -17t-2 -12.5q-19 -31 -60 -58t-89 -53q6 -21 4 -47q-3 -30 -21 -62.5t-45.5 -59.5t-62 -44.5t-70.5 -17.5q-12 0 -23.5 7.5t-20.5 19t-14.5 25.5t-4.5 27q1 18 12 34.5t28.5 31.5t40.5 29t49 28q-3 43 -19.5 79t-39.5 70
q-5 -6 -9 -11.5t-7 -10.5t-8.5 -2t-9.5 9.5t-5.5 13.5t1.5 12t7 10t8 11q-28 42 -48.5 88t-15.5 105q3 39 24.5 72t49.5 57.5t57.5 38t49.5 13.5q22 0 36.5 -22.5t9.5 -76.5q-4 -48 -26 -101t-49 -101q27 -47 60.5 -95t51.5 -97q42 23 78.5 48.5t57.5 57.5zM66 551
q-2 -22 3 -43.5t15 -43.5q23 42 41 85.5t21 81.5q3 32 -2 43t-16 11q-9 0 -19 -14t-19 -34.5t-15.5 -43.5t-8.5 -42zM30 30q14 0 25 10.5t19.5 26t13.5 33.5t7 32q-32 -20 -53 -40.5t-23 -43.5q-1 -7 2.5 -12.5t8.5 -5.5z" />
    <glyph glyph-name="t" unicode="t" horiz-adv-x="303" 
d="M353 639q40 0 61.5 -12.5t30 -27t6.5 -27t-10 -12.5q-7 0 -10.5 3.5t-10.5 7t-19.5 7t-37.5 3.5q-17 0 -54.5 -5t-84.5 -13q-21 -59 -45.5 -128t-47.5 -135.5t-43 -123.5t-32 -92q-8 -28 6 -28q10 0 28 14.5t39.5 38.5t46 54.5t48 62t45 62t38.5 54.5q8 12 13 9t7.5 -12
t2 -19.5t-2.5 -14.5q-10 -16 -28.5 -43.5t-43 -60.5t-52 -67.5t-56 -63t-55.5 -48t-50 -21.5q-2 0 -3.5 -0.5t-3.5 -0.5q-8 0 -28 3t-41 12t-36 25t-13 43q2 18 18 63.5t39.5 107.5t51 136t51.5 150q-25 -3 -46 -5t-35 -2q-29 0 -47.5 18t-27 39t-8 39t10.5 18q4 0 11 -4.5
t19.5 -10.5t32 -10.5t48.5 -4.5q19 0 35 0.5t31 0.5q14 51 23.5 98t13.5 89q1 12 12 14t27 -3t34 -15.5t33.5 -23t25 -25.5t8.5 -23q-1 -7 -8.5 -33t-21.5 -64q25 3 49 5t56 2z" />
    <glyph glyph-name="u" unicode="u" horiz-adv-x="555" 
d="M559 341q8 12 13 9t7 -12t2 -19.5t-3 -14.5q-10 -15 -28.5 -43t-42 -61t-51.5 -68t-56 -64t-55.5 -49.5t-50.5 -24.5q-9 -3 -27.5 2t-37.5 17.5t-32 31.5t-11 44q0 8 3 19.5t8 25.5q-20 -25 -42 -49t-45.5 -43t-47.5 -30.5t-47 -11.5q-12 0 -30.5 7.5t-35 22t-27.5 35.5
t-9 48q2 18 12.5 46.5t26 63.5t32.5 72.5t32.5 72.5t26 65.5t12.5 50.5q2 18 20 17t38 -13t36 -29.5t15 -32.5q-1 -10 -13.5 -41t-30 -72t-37 -85.5t-34.5 -81.5t-21.5 -61.5t1.5 -24.5q21 0 52.5 24.5t66 62.5t68 85.5t59.5 92.5q23 54 40.5 99.5t19.5 71.5q1 18 19 17
t38 -13t36 -29.5t15 -32.5q-1 -9 -8.5 -32t-19 -55.5t-26 -70.5t-28.5 -75.5t-27 -71.5t-21 -58q-5 -22 7 -22q11 0 28 14.5t38 39t44.5 55t46.5 62.5t44 62.5t38 54.5z" />
    <glyph glyph-name="v" unicode="v" horiz-adv-x="425" 
d="M16 -9q-2 0 -4 -1h-5q-14 0 -31.5 4.5t-33 15.5t-25 29.5t-7.5 46.5q3 27 18.5 61t35 83t38.5 116t27 159q1 12 12 13.5t27 -3.5t34 -15.5t33 -23t25 -25.5t9 -23t-10.5 -39.5t-23 -70t-30 -86t-30.5 -86.5q-5 -18 -2 -29t17 -11q21 0 50 26.5t60.5 67.5t63.5 91
t57.5 96.5t41.5 84.5t18 56q2 26 11.5 30.5t19.5 -3t17.5 -22.5t6.5 -28q-3 -31 -25 -79t-57 -102.5t-78.5 -110t-88.5 -102t-87.5 -79t-75.5 -40.5q-2 0 -4 -1h-4z" />
    <glyph glyph-name="w" unicode="w" horiz-adv-x="705" 
d="M302 -7q-1 0 -1.5 -0.5t-2.5 -0.5h-5q-14 0 -31.5 4.5t-33 15.5t-25 29.5t-7.5 46.5q2 23 11.5 42t21.5 44.5t25.5 62.5t23.5 96q-34 -42 -70 -86.5t-68.5 -85.5t-59.5 -75.5t-43 -57.5v-3q-1 -7 0 -11l1.5 -6t-0.5 -4.5t-5 -6.5q-5 -5 -26 -5t-43 9t-38.5 29.5
t-13.5 57.5q3 27 18.5 61t35 83t38.5 116t27 159q1 12 12 13.5t27 -3.5t34 -15.5t33 -23t25 -25.5t9 -23q-1 -9 -9.5 -37t-22 -66t-29 -81.5t-29.5 -83.5q26 38 60.5 86.5t67 91.5t58.5 72.5t35 29.5h1q13 3 35 -6t43 -23.5t36 -31t14 -29.5q-1 -9 -8 -31.5t-17.5 -52
t-22.5 -63.5t-24 -65q-5 -32 17 -32q20 0 49.5 26.5t61 67.5t63.5 91t57.5 96.5t41.5 84.5t18 56q2 26 11.5 30.5t19.5 -3t17.5 -22.5t6.5 -28q-3 -31 -25 -79t-57 -102.5t-78.5 -110t-88.5 -102t-87.5 -79t-75.5 -40.5q-2 0 -4 -1h-4z" />
    <glyph glyph-name="x" unicode="x" horiz-adv-x="545" 
d="M602 341q8 12 13 9t7.5 -12t2 -19.5t-2.5 -14.5q-10 -16 -29.5 -44.5t-44 -62.5t-53 -69t-57.5 -63.5t-56.5 -46.5t-50.5 -18q-32 0 -58 14.5t-47.5 38.5t-39 56t-31.5 67q-45 -45 -76.5 -87t-34.5 -75q-2 -20 -12.5 -17t-22.5 18t-21.5 36.5t-7.5 39.5q1 10 13 27.5
t32.5 39.5t47 47.5t56.5 52.5q-11 37 -18 71t-12 62q-4 14 -8 17t-9 1t-10 -9q-15 -23 -27 -41q-11 -16 -21 -31l-14 -21q-3 -6 -8.5 -4t-9.5 9t-5 16t5 18q13 20 30.5 46.5t35.5 50t35.5 39.5t31.5 16q22 0 39 -11.5t30 -31t23 -46t18 -56.5q27 24 51 46t42 40t28.5 31
t11.5 20q1 16 12 17.5t23.5 -6.5t22 -23t8.5 -33q-1 -10 -16.5 -28t-40.5 -41t-57 -51t-66 -58q8 -40 17 -78t20.5 -67.5t27 -47.5t38.5 -18q11 0 28.5 14.5t39 38.5t46 54t48 62t45 62t38.5 54z" />
    <glyph glyph-name="y" unicode="y" horiz-adv-x="551" 
d="M555 341q8 12 13 9t7.5 -12t2 -19.5t-2.5 -14.5q-4 -6 -22 -30t-45 -58.5t-60 -75t-65.5 -78.5t-62.5 -70.5t-51 -49.5q-2 -2 -4 -3t-4 -3q-34 -77 -71 -148.5t-76 -126.5t-78.5 -88t-76.5 -33q-32 0 -51.5 10.5t-30.5 26.5t-14.5 34t-1.5 32q1 19 20.5 42.5t51.5 50.5
t74 58t89 66q36 75 70.5 159.5t64.5 164.5q-20 -29 -45.5 -62t-54.5 -61t-60 -46.5t-61 -18.5q-12 0 -30 8t-34.5 22.5t-27.5 35.5t-9 48q1 18 12 47t26 64t32.5 73t32.5 73.5t25.5 66t12.5 50.5q1 18 19 17t38 -13t36 -29.5t15 -32.5q-1 -10 -13.5 -41.5t-30 -72.5
t-36.5 -86t-33.5 -83t-21 -62.5t1.5 -24.5q24 0 62 32.5t78.5 81t77 104.5t56.5 104q14 44 22 73.5t9 41.5q1 18 19 17t38.5 -13t36.5 -30t15 -33q-1 -7 -11.5 -43.5t-28.5 -92t-43.5 -125.5t-55.5 -145q22 24 48 54t52.5 62t52 63.5t46.5 58.5t35.5 47t20.5 28zM-79 -379
q26 0 60.5 43.5t72.5 113.5q-60 -45 -100 -79t-42 -57q-1 -15 2.5 -18t6.5 -3z" />
    <glyph glyph-name="z" unicode="z" horiz-adv-x="564" 
d="M570 340q8 12 13 9t7 -12t1.5 -19.5t-3.5 -13.5q-13 -17 -34.5 -46.5t-50 -63.5t-62.5 -69.5t-71 -64t-76 -46.5t-77 -18q-28 0 -47 5t-36 11.5t-36.5 11.5t-48.5 5t-43.5 -4t-23 -8.5t-14 -8t-15.5 -3.5q-6 0 -7 13t5 30.5t19.5 35t36.5 25.5q27 31 67.5 66.5t86 74
t92.5 80.5t87 87l3 3q-22 -6 -47 -13.5t-49.5 -14.5t-46.5 -11.5t-38 -4.5q-31 0 -51.5 8t-33.5 19q-10 -11 -14 -20l-5 -10q-15 -23 -28 -41q-11 -17 -22 -32t-16 -22q-4 -6 -9 -3t-8.5 10.5t-3.5 17.5t7 19q30 44 49.5 79t22.5 69q0 3 2 5q2 12 5.5 20t8.5 8q3 0 8 -5
t14 -11.5t23.5 -11.5t36.5 -5q51 0 84 3.5t57.5 8t46.5 8.5t52 4q28 0 43.5 -12t22 -27t6 -29t-4.5 -18q-6 -14 -25 -35.5t-46.5 -48t-60.5 -56t-66.5 -59t-64.5 -57.5t-54 -51q38 -9 71.5 -18t63.5 -9q23 0 49.5 13t54 34.5t55 49.5t52.5 57.5t47 58.5t39 53z" />
    <glyph glyph-name="braceleft" unicode="{" horiz-adv-x="507" 
d="M443 865q18 0 30 -7t16.5 -16t0.5 -16t-17 -7q-11 0 -25.5 -21.5t-30 -55.5t-32 -75t-31 -79.5t-26 -69.5t-18.5 -45q-10 -21 -25.5 -29.5t-30 -13t-25 -9.5t-10.5 -19q0 -11 8 -30t8 -44q0 -8 -10.5 -32.5t-26 -58t-33.5 -71t-33.5 -71t-26 -59t-10.5 -34.5
q0 -14 4.5 -25t7 -18.5t0 -11t-17.5 -3.5q-14 0 -28.5 6.5t-26 17t-19 24.5t-7.5 29t11.5 44.5t28.5 66t36.5 76.5t36.5 77t28.5 66.5t11.5 44.5q0 6 -3 10l-6 8t-6 10t-3 17q0 9 7.5 14t18 11.5t22.5 16.5t22 28l19.5 45.5t31 71t39 81.5t45 76.5t48 57t47.5 22.5z" />
    <glyph glyph-name="bar" unicode="|" horiz-adv-x="536" 
d="M246 834q0 20 10 20.5t21 -10.5t20 -30.5t8 -38.5q0 -3 -1.5 -37t-3.5 -87.5t-5 -121.5t-6 -140t-6 -143t-6 -130t-5.5 -101t-3.5 -57q0 -7 -1.5 -16t-4.5 -16.5t-8 -12.5t-12 -5q-8 0 -18 8t-19 20t-15 26.5t-5 27.5q1 6 3.5 38.5t7 82t10 113t11 132t11 139t9.5 134.5
t6.5 117t2.5 88z" />
    <glyph glyph-name="braceright" unicode="}" horiz-adv-x="507" 
d="M21 -46q-18 0 -30 7t-16.5 16t-1 16t17.5 7q11 0 25.5 21.5t30 55.5t32 75t31 79.5t26 69.5t18.5 45q10 21 25.5 29.5t30 13t25 9.5t10.5 19q0 11 -8 30.5t-8 43.5q0 8 10.5 32.5t26 58t33.5 71t33.5 71t26 59t10.5 35.5q0 14 -4.5 24.5t-7 18t0 11t17.5 3.5
q14 0 28.5 -6.5t26 -17t18.5 -24.5t7 -29t-11.5 -44t-28 -65.5t-36.5 -77t-36.5 -77t-28 -66t-11.5 -44.5q0 -6 3 -10t6 -8.5t6 -11t3 -16.5q0 -9 -7.5 -14t-18 -11.5t-22.5 -16t-22 -27.5l-19.5 -45.5t-31 -71t-39 -81.5t-45 -77t-48 -57.5t-47.5 -22.5z" />
    <glyph glyph-name="asciitilde" unicode="~" horiz-adv-x="483" 
d="M125 593q-15 0 -18 17.5t5 39t26 39t45 17.5q19 0 34 -6t28 -12.5t23.5 -12.5t21.5 -6q10 0 18.5 4.5t15.5 10t13.5 10t12.5 4.5q19 0 23.5 -18t-4.5 -39t-30 -39t-52 -18q-16 0 -30 6t-26.5 13t-24.5 13t-24 6t-20 -4.5t-14.5 -10t-12 -10t-10.5 -4.5z" />
    <glyph glyph-name="exclamdown" unicode="&#xa1;" horiz-adv-x="513" 
d="M145 -17q-1 -12 -12.5 -14t-27.5 3.5t-34 16t-33.5 23t-25.5 25.5t-9 23t16 45t37 82.5t47.5 101.5t47 104t36 89t14.5 57q0 14 10.5 20t22.5 6q19 0 36 -17.5t17 -56.5q0 -27 -19 -75t-44 -113t-48 -146t-31 -174zM262 645q-23 0 -37.5 13.5t-12.5 38.5q1 13 7.5 29
t17.5 30t25.5 24t31.5 10q26 0 48 -15t20 -36q-1 -15 -11 -32t-24.5 -30.5t-32 -22.5t-32.5 -9z" />
    <glyph glyph-name="cent" unicode="&#xa2;" horiz-adv-x="408" 
d="M347 539q11 -13 18 -26t10 -24t2.5 -19t-3.5 -11q-6 -6 -16 4t-30 22q-12 -36 -26.5 -76.5t-29.5 -83l-30 -85t-29 -81.5q9 1 21.5 5t26.5 11.5t29 19.5t29 31q7 9 11.5 6t7.5 -10t3.5 -15t-1.5 -11q-13 -21 -27.5 -39.5t-32.5 -33t-40.5 -23.5t-52.5 -12
q-17 -47 -28.5 -78.5t-15.5 -39.5q-3 -8 -12.5 -3.5t-19 15t-16 24.5t-2.5 25q2 4 7.5 20t15.5 42q-26 7 -46 21.5t-34 31.5t-21 34.5t-7 32.5q0 23 8 60.5t22.5 79t34.5 84t43.5 76.5t49 55.5t52.5 21.5q21 0 38 -3t32 -8q11 34 17 58t6 35q0 13 9.5 13t21.5 -8t21.5 -22
t9.5 -30q0 -5 -7 -27.5t-19 -58.5zM140 217q0 -20 10 -33q13 36 27.5 76t29.5 81t29 82t27 78q-15 -5 -36 -36t-40.5 -74t-33 -90t-13.5 -84z" />
    <glyph glyph-name="sterling" unicode="&#xa3;" horiz-adv-x="603" 
d="M523 785q9 0 20.5 -5t22 -13t17.5 -17.5t7 -19.5q0 -8 -6 -21t-19 -39q-9 -17 -19 -37t-18 -40t-13.5 -38.5t-5.5 -33.5q0 -8 -6 -14q-6 -3 -13 -3t-16.5 3.5t-18 10.5t-14.5 16.5t-6 21.5q0 20 9 46t21 55l14 35q-2 1 -7 1q-27 0 -51 -19t-46 -51t-43 -74.5t-43 -89.5
q35 2 57.5 3.5t27.5 1.5q7 0 15 -5.5t8 -21.5q0 -29 -17 -47t-34 -18h-4t-13 0.5t-29 1t-51 0.5q-20 -44 -42 -86t-47 -80q-5 -5 -13 -13.5t-19 -17.5q48 -14 97 -26t87 -12q36 0 55.5 7.5t29 16t12.5 16t8 7.5t12.5 -5.5t14 -15t11.5 -22t5 -26.5t-4 -27t-16.5 -23.5
t-35 -17t-58.5 -6.5t-83 15t-96 33.5t-95 33.5t-79 15t-51.5 -5t-27.5 -8t-10.5 0t-1.5 19q0 6 3.5 16.5t13 21t25.5 18.5t41 8q14 0 33 -4t42 -10q3 11 9 25q20 35 37 73.5t33 79.5q-61 -1 -84 -2t-26 -1q-11 0 -11 19q0 6 3 18t9 24t15.5 21t23.5 9q7 -1 21 -2
q11 -1 31 -1.5t51 -0.5q24 63 49.5 122t55.5 104t68 72t88 27q26 0 42 -10.5t25 -24.5q3 10 3 18q0 5 2 8.5t4 5.5q5 5 14 5z" />
    <glyph glyph-name="dieresis" unicode="&#xa8;" horiz-adv-x="521" 
d="M154 581q-11 0 -22.5 3.5t-20.5 9.5t-14 14.5t-3 18.5q1 14 9.5 28.5t21.5 26.5t28 20t29 8q21 0 33.5 -11.5t10.5 -34.5q-1 -12 -7 -26t-15.5 -27t-22.5 -21.5t-27 -8.5zM321 571q-12 0 -23.5 3.5t-20.5 9.5t-14.5 14t-4.5 17q1 15 10.5 30t22.5 27t28.5 20t29.5 8
q21 0 33.5 -11.5t10.5 -34.5q-1 -12 -7 -26t-15.5 -27t-22.5 -21.5t-27 -8.5z" />
    <glyph glyph-name="copyright" unicode="&#xa9;" horiz-adv-x="877" 
d="M777 498q6 -42 1.5 -85.5t-18.5 -86.5t-36.5 -83.5t-53.5 -75.5q-54 -62 -120.5 -94.5t-139.5 -32.5q-51 0 -102 18t-93.5 52t-72 83t-38.5 111q-10 74 17.5 153.5t87.5 148.5q57 66 123 102t138 36q49 0 75.5 -8t49.5 -23l3 -2l3 -1q47 -13 79 -36.5t52 -53t30.5 -61.5
t14.5 -61zM387 116q64 0 119 27.5t95.5 77.5t63.5 119.5t23 153.5q0 42 -11 78.5t-29.5 63.5t-44 42t-55.5 15q-36 0 -76 -12.5t-80 -35.5t-76 -55t-64 -71.5t-44.5 -86t-16.5 -96.5q0 -40 15 -79t41.5 -70.5t62.5 -51t77 -19.5zM513 396q-5 -5 -17.5 -5t-24 4t-18 10.5
t-0.5 14.5q13 19 23 43t15.5 45.5t6 36.5t-4.5 15q-4 0 -14 -10.5t-23 -29t-27.5 -43t-26.5 -52t-19.5 -57.5t-7.5 -58t8.5 -49t31.5 -21q26 0 40 15.5t21 33.5t10.5 33.5t8.5 15.5q14 0 27 -15.5t13 -41.5q0 -13 -9 -28.5t-24 -28.5t-35 -22t-42 -9q-13 0 -33.5 5.5
t-39.5 21t-33 44.5t-14 76t18 93t44.5 83t57 59.5t54.5 22.5q13 0 26.5 -6.5t24.5 -17.5t18 -25t7 -29q0 -14 -5.5 -34.5t-13 -40t-14.5 -33.5t-9 -16z" />
    <glyph glyph-name="guillemotleft" unicode="&#xab;" horiz-adv-x="661" 
d="M9 327q-2 8 2.5 18.5t18.5 18.5l3 2q6 4 23 14t36 20q22 12 45.5 25t48.5 27l4 2q8 5 19 11.5t28 15.5l43 25q32 19 49.5 28.5t19.5 11.5q4 2 10 2q4 0 6 -1q7 -3 11 -13q4 -15 -5 -40q-9 -24 -27 -35l-216 -121q18 -15 40 -35.5t41.5 -41.5t34 -39.5t17.5 -28.5
q6 -17 -1 -33.5t-19 -21.5q-8 -4 -19 -1t-19 17q-3 4 -15.5 17t-31 30t-39.5 35.5t-40 35t-33.5 28t-19.5 13.5q-12 1 -15 14zM246 308q-2 8 2.5 18.5t18.5 18.5l3 2q6 4 23 14t36 20q11 6 28 15.5t36 19.5t37 19.5t30 16.5l4 2q8 5 19 11.5t28 15.5l43 25q32 19 49.5 28.5
t19.5 11.5q4 2 10 2q4 0 6 -1q7 -3 11 -13q4 -15 -5 -40q-9 -24 -27 -35l-253 -140q18 -15 35.5 -31.5t31.5 -33t24.5 -31t13.5 -24.5q6 -17 -1 -33.5t-19 -21.5q-8 -4 -19 -1t-19 17q-3 4 -13.5 15t-26 25t-33 30t-33.5 29.5t-28 23t-17 11.5q-12 1 -15 14z" />
    <glyph glyph-name="registered" unicode="&#xae;" horiz-adv-x="833" 
d="M741 499q6 -41 1.5 -85t-18.5 -86.5t-36.5 -83.5t-53.5 -76q-54 -61 -120.5 -93.5t-139.5 -32.5q-51 0 -102 18t-93.5 51.5t-72 82.5t-38.5 111q-11 74 17 153.5t88 148.5q57 66 123 102t138 36q49 0 75.5 -7.5t49.5 -23.5l2 -2l3 -1q48 -13 80 -36.5t52 -53t30.5 -61.5
t14.5 -61zM351 118q64 0 119 27.5t95 77.5t63 119.5t23 152.5q0 42 -10.5 78.5t-29.5 63.5t-44 42t-55 15q-54 0 -116.5 -27.5t-116.5 -75.5t-89.5 -113t-35.5 -141q0 -40 15.5 -79t42 -70t62.5 -50.5t77 -19.5zM449 597q30 0 49 -8.5t29.5 -21t14.5 -27.5t4 -28
q0 -18 -13.5 -39.5t-34 -42.5t-45 -39.5t-46.5 -30.5q4 -17 14.5 -41t24.5 -46t30 -37t32 -15q3 0 5.5 -4.5t-0.5 -9.5t-13.5 -9.5t-32.5 -4.5q-19 0 -36.5 12.5t-33.5 32.5t-28.5 43.5t-20.5 46.5q-8 -33 -14 -58t-6 -33q0 -6 -1.5 -11.5t-7.5 -5.5q-3 0 -13 3.5t-20.5 8.5
t-18.5 11.5t-8 11.5q0 3 4.5 17t12.5 35t18 48t20.5 55t20.5 55.5t19 50.5q-12 -9 -19.5 -17t-7.5 -11q0 -4 -6.5 -2.5t-14 7t-14 13t-6.5 15.5q0 10 26 29.5t64 32.5q2 7 10 4q15 5 30.5 7.5t32.5 2.5zM369 402q14 5 35.5 18t41.5 29.5t34.5 34.5t14.5 35q0 13 -6 20.5
t-14.5 11.5t-16.5 5t-12 1q-16 0 -37 -8q0 -3 -4 -16t-9.5 -33.5t-12.5 -45.5t-14 -52z" />
    <glyph glyph-name="degree" unicode="&#xb0;" horiz-adv-x="475" 
d="M385 680q4 -35 -6 -74t-33 -71.5t-58.5 -54t-81.5 -21.5q-11 0 -29 7t-35.5 21t-32 35.5t-18.5 51.5t10 68.5t38 72.5t53.5 57.5t56.5 23.5q25 0 48 -10.5t42 -27t31 -37t15 -41.5zM179 508q27 0 51 18.5t41.5 46t26 59.5t5.5 59q-2 13 -4.5 20.5t-10.5 7.5
q-16 0 -38 -22t-41.5 -53t-32 -63t-10.5 -52q2 -6 4 -13.5t9 -7.5z" />
    <glyph glyph-name="acute" unicode="&#xb4;" horiz-adv-x="548" 
d="M146 584q14 0 38 17t47.5 37t43 37t24.5 17q8 0 17.5 -6t17 -15.5t12.5 -20.5t5 -21q0 -11 -19.5 -26t-46 -29t-55 -24t-46.5 -10q-17 0 -28 7t-15.5 15t-3.5 15t9 7z" />
    <glyph glyph-name="mu" unicode="&#xb5;" horiz-adv-x="0" 
 />
    <glyph glyph-name="guillemotright" unicode="&#xbb;" horiz-adv-x="638" 
d="M387 369q2 -9 -3 -19.5t-19 -18.5l-2 -2q-3 -2 -12 -7t-20 -11t-22.5 -13t-21.5 -12q-22 -12 -45 -25t-49 -27l-4 -2q-8 -5 -19 -11.5t-27 -15.5l-44 -25q-32 -19 -49 -28.5t-20 -10.5q-4 -3 -10 -3q-4 0 -5 1q-8 3 -11 13q-5 18 4 40q9 25 28 35l232 130q-18 15 -37 33
t-35.5 36t-28.5 34t-16 26q-6 18 1 34t19 21q8 4 19 1t19 -17q2 -4 14 -15.5t28.5 -27t35.5 -32t36.5 -31t30.5 -25t18 -12.5q11 0 15 -13zM611 360q2 -9 -3 -19.5t-19 -18.5l-2 -2q-7 -4 -23.5 -13.5t-36.5 -20.5q-22 -12 -45 -25t-49 -27l-4 -2q-8 -5 -19 -11.5t-27 -15.5
l-44 -25q-32 -19 -49 -28.5t-20 -10.5q-4 -3 -10 -3q-4 0 -5 1q-8 3 -11 13q-5 18 4 40q9 25 28 35l216 121q-18 15 -40 35.5t-41.5 41.5t-34 39.5t-18.5 28.5q-6 18 1 34t19 21q8 4 19 1t19 -17q3 -4 15.5 -17t31 -30t40 -35.5t40.5 -35t33.5 -28t19.5 -13.5q11 0 15 -13z
" />
    <glyph glyph-name="questiondown" unicode="&#xbf;" horiz-adv-x="543" 
d="M358 673q-23 0 -37.5 13.5t-12.5 38.5q1 13 7.5 29t17.5 30t25.5 24t31.5 10q26 0 48 -15t20 -36q-1 -15 -11 -32t-24.5 -30.5t-32 -22.5t-32.5 -9zM423 393q0 12 17.5 13.5t39 -13t39 -47.5t17.5 -90q0 -17 -7.5 -42.5t-24 -55t-43.5 -59t-66 -53t-92 -38.5t-121 -15
q-94 0 -142.5 37.5t-48.5 111.5q0 45 21.5 91t55 90.5t73.5 87t76.5 80.5t65 70.5t39.5 57.5q6 14 17 14q9 0 19.5 -6t18.5 -15.5t13.5 -22.5t5.5 -27q0 -18 -22 -44t-55.5 -58.5t-72 -71t-72 -81t-55.5 -89t-22 -95.5q0 -16 7 -31.5t18.5 -28t26.5 -20t32 -7.5
q62 0 110.5 30.5t82 74.5t51 94t17.5 89q0 20 -3 31t-6.5 17.5t-6.5 10.5t-3 10z" />
    <glyph glyph-name="Agrave" unicode="&#xc0;" 
d="M591 386q14 -11 17 -25t0 -28q-4 -25 -23 -44.5t-33 -24.5q-17 -57 -30 -107t-19 -90q-2 -9 -2.5 -22t1.5 -18q2 -9 -14 -18t-45 -9q-10 0 -25 3.5t-28.5 14t-21.5 29t-3 49.5q1 10 7.5 30.5t16 49t22.5 63.5t28 75h-16q-31 -1 -68 -4t-77 -8q-49 -59 -99 -112t-97.5 -93
t-91 -63.5t-78.5 -23.5q-34 0 -56 7t-35 17t-17.5 20.5t-3.5 17.5t5.5 8.5t11 0t14.5 -4t18 -2.5q32 0 68.5 16t75.5 44.5t80.5 67t83.5 83.5q-39 -5 -72.5 -9.5t-55.5 -4.5q-29 0 -45.5 10t-25 23.5t-10.5 27t0 19.5q2 16 5 18.5t12.5 -0.5t30.5 -8t59 -5q36 1 84.5 8
t102.5 16q60 71 116.5 145t104 139.5t84 116t57.5 75.5q0 5 1 7q3 18 22.5 13t42 -22t40 -39.5t14.5 -38.5q-1 -8 -13.5 -44t-31.5 -89.5t-42 -120t-46 -136.5zM473 412q25 69 49 141.5t44 141.5q-38 -58 -92 -135.5t-117 -160.5q32 5 61.5 8.5t54.5 4.5zM715 944
q-18 0 -46 10.5t-55 24.5t-46.5 29.5t-19.5 26.5q0 9 5 20t13 20t17.5 15t17.5 6q5 0 24 -16.5t43 -36.5t47.5 -36.5t38.5 -16.5q7 0 8.5 -7t-3 -16t-15.5 -16t-29 -7z" />
    <glyph glyph-name="Aacute" unicode="&#xc1;" 
d="M591 386q14 -11 17 -25t0 -28q-4 -25 -23 -44.5t-33 -24.5q-17 -57 -30 -107t-19 -90q-2 -9 -2.5 -22t1.5 -18q2 -9 -14 -18t-45 -9q-10 0 -25 3.5t-28.5 14t-21.5 29t-3 49.5q1 10 7.5 30.5t16 49t22.5 63.5t28 75h-16q-31 -1 -68 -4t-77 -8q-49 -59 -99 -112t-97.5 -93
t-91 -63.5t-78.5 -23.5q-34 0 -56 7t-35 17t-17.5 20.5t-3.5 17.5t5.5 8.5t11 0t14.5 -4t18 -2.5q32 0 68.5 16t75.5 44.5t80.5 67t83.5 83.5q-39 -5 -72.5 -9.5t-55.5 -4.5q-29 0 -45.5 10t-25 23.5t-10.5 27t0 19.5q2 16 5 18.5t12.5 -0.5t30.5 -8t59 -5q36 1 84.5 8
t102.5 16q60 71 116.5 145t104 139.5t84 116t57.5 75.5q0 5 1 7q3 18 22.5 13t42 -22t40 -39.5t14.5 -38.5q-1 -8 -13.5 -44t-31.5 -89.5t-42 -120t-46 -136.5zM473 412q25 69 49 141.5t44 141.5q-38 -58 -92 -135.5t-117 -160.5q32 5 61.5 8.5t54.5 4.5zM537 981
q14 0 38 17t47.5 37t43 37t24.5 17q8 0 17.5 -6t17 -15.5t12.5 -20.5t5 -21q0 -11 -19.5 -26t-46 -29t-55 -24t-46.5 -10q-17 0 -28 7t-15.5 15t-3.5 15t9 7z" />
    <glyph glyph-name="Acircumflex" unicode="&#xc2;" 
d="M591 386q14 -11 17 -25t0 -28q-4 -25 -23 -44.5t-33 -24.5q-17 -57 -30 -107t-19 -90q-2 -9 -2.5 -22t1.5 -18q2 -9 -14 -18t-45 -9q-10 0 -25 3.5t-28.5 14t-21.5 29t-3 49.5q1 10 7.5 30.5t16 49t22.5 63.5t28 75h-16q-31 -1 -68 -4t-77 -8q-49 -59 -99 -112t-97.5 -93
t-91 -63.5t-78.5 -23.5q-34 0 -56 7t-35 17t-17.5 20.5t-3.5 17.5t5.5 8.5t11 0t14.5 -4t18 -2.5q32 0 68.5 16t75.5 44.5t80.5 67t83.5 83.5q-39 -5 -72.5 -9.5t-55.5 -4.5q-29 0 -45.5 10t-25 23.5t-10.5 27t0 19.5q2 16 5 18.5t12.5 -0.5t30.5 -8t59 -5q36 1 84.5 8
t102.5 16q60 71 116.5 145t104 139.5t84 116t57.5 75.5q0 5 1 7q3 18 22.5 13t42 -22t40 -39.5t14.5 -38.5q-1 -8 -13.5 -44t-31.5 -89.5t-42 -120t-46 -136.5zM473 412q25 69 49 141.5t44 141.5q-38 -58 -92 -135.5t-117 -160.5q32 5 61.5 8.5t54.5 4.5zM559 946
q-9 0 -13 3t-6 7t0 11q0 6 9.5 17t24 24.5t32 27.5t34.5 25.5t30.5 19t20.5 7.5t17 -12t20.5 -30.5t19.5 -39.5t14 -39.5t3.5 -30.5t-11.5 -12q-15 0 -28 12.5t-24 27t-19.5 27t-14.5 12.5t-20 -9t-30.5 -19.5t-33 -19.5t-25.5 -9z" />
    <glyph glyph-name="Atilde" unicode="&#xc3;" 
d="M591 386q14 -11 17 -25t0 -28q-4 -25 -23 -44.5t-33 -24.5q-17 -57 -30 -107t-19 -90q-2 -9 -2.5 -22t1.5 -18q2 -9 -14 -18t-45 -9q-10 0 -25 3.5t-28.5 14t-21.5 29t-3 49.5q1 10 7.5 30.5t16 49t22.5 63.5t28 75h-16q-31 -1 -68 -4t-77 -8q-49 -59 -99 -112t-97.5 -93
t-91 -63.5t-78.5 -23.5q-34 0 -56 7t-35 17t-17.5 20.5t-3.5 17.5t5.5 8.5t11 0t14.5 -4t18 -2.5q32 0 68.5 16t75.5 44.5t80.5 67t83.5 83.5q-39 -5 -72.5 -9.5t-55.5 -4.5q-29 0 -45.5 10t-25 23.5t-10.5 27t0 19.5q2 16 5 18.5t12.5 -0.5t30.5 -8t59 -5q36 1 84.5 8
t102.5 16q60 71 116.5 145t104 139.5t84 116t57.5 75.5q0 5 1 7q3 18 22.5 13t42 -22t40 -39.5t14.5 -38.5q-1 -8 -13.5 -44t-31.5 -89.5t-42 -120t-46 -136.5zM473 412q25 69 49 141.5t44 141.5q-38 -58 -92 -135.5t-117 -160.5q32 5 61.5 8.5t54.5 4.5zM559 951
q-15 0 -18 17.5t5 39t26 39t45 17.5q19 0 34 -6t28 -12.5t23.5 -12.5t21.5 -6q10 0 18.5 4.5t15.5 10t13.5 10t12.5 4.5q19 0 23.5 -18t-4.5 -39t-30 -39t-52 -18q-16 0 -30 6t-26.5 13t-24.5 13t-24 6t-20 -4.5t-14.5 -10t-12 -10t-10.5 -4.5z" />
    <glyph glyph-name="Adieresis" unicode="&#xc4;" 
d="M591 386q14 -11 17 -25t0 -28q-4 -25 -23 -44.5t-33 -24.5q-17 -57 -30 -107t-19 -90q-2 -9 -2.5 -22t1.5 -18q2 -9 -14 -18t-45 -9q-10 0 -25 3.5t-28.5 14t-21.5 29t-3 49.5q1 10 7.5 30.5t16 49t22.5 63.5t28 75h-16q-31 -1 -68 -4t-77 -8q-49 -59 -99 -112t-97.5 -93
t-91 -63.5t-78.5 -23.5q-34 0 -56 7t-35 17t-17.5 20.5t-3.5 17.5t5.5 8.5t11 0t14.5 -4t18 -2.5q32 0 68.5 16t75.5 44.5t80.5 67t83.5 83.5q-39 -5 -72.5 -9.5t-55.5 -4.5q-29 0 -45.5 10t-25 23.5t-10.5 27t0 19.5q2 16 5 18.5t12.5 -0.5t30.5 -8t59 -5q36 1 84.5 8
t102.5 16q60 71 116.5 145t104 139.5t84 116t57.5 75.5q0 5 1 7q3 18 22.5 13t42 -22t40 -39.5t14.5 -38.5q-1 -8 -13.5 -44t-31.5 -89.5t-42 -120t-46 -136.5zM473 412q25 69 49 141.5t44 141.5q-38 -58 -92 -135.5t-117 -160.5q32 5 61.5 8.5t54.5 4.5zM583 949
q-11 0 -22.5 3.5t-20.5 9.5t-14 14.5t-3 18.5q1 14 9.5 28.5t21.5 26.5t28 20t29 8q21 0 33.5 -11.5t10.5 -34.5q-1 -12 -7 -26t-15.5 -27t-22.5 -21.5t-27 -8.5zM750 939q-12 0 -23.5 3.5t-20.5 9.5t-14.5 14t-4.5 17q1 15 10.5 30t22.5 27t28.5 20t29.5 8q21 0 33.5 -11.5
t10.5 -34.5q-1 -12 -7 -26t-15.5 -27t-22.5 -21.5t-27 -8.5z" />
    <glyph glyph-name="Aring" unicode="&#xc5;" 
d="M591 386q14 -11 17 -25t0 -28q-4 -25 -23 -44.5t-33 -24.5q-17 -57 -30 -107t-19 -90q-2 -9 -2.5 -22t1.5 -18q2 -9 -14 -18t-45 -9q-10 0 -25 3.5t-28.5 14t-21.5 29t-3 49.5q1 10 7.5 30.5t16 49t22.5 63.5t28 75h-16q-31 -1 -68 -4t-77 -8q-49 -59 -99 -112t-97.5 -93
t-91 -63.5t-78.5 -23.5q-34 0 -56 7t-35 17t-17.5 20.5t-3.5 17.5t5.5 8.5t11 0t14.5 -4t18 -2.5q32 0 68.5 16t75.5 44.5t80.5 67t83.5 83.5q-39 -5 -72.5 -9.5t-55.5 -4.5q-29 0 -45.5 10t-25 23.5t-10.5 27t0 19.5q2 16 5 18.5t12.5 -0.5t30.5 -8t59 -5q36 1 84.5 8
t102.5 16q60 71 116.5 145t104 139.5t84 116t57.5 75.5q0 5 1 7q3 18 22.5 13t42 -22t40 -39.5t14.5 -38.5q-1 -8 -13.5 -44t-31.5 -89.5t-42 -120t-46 -136.5zM473 412q25 69 49 141.5t44 141.5q-38 -58 -92 -135.5t-117 -160.5q32 5 61.5 8.5t54.5 4.5zM667 955
q-8 0 -20 4t-23.5 13t-20.5 22.5t-11 33.5q-3 19 6 44t24.5 47t35 37.5t37.5 15.5q16 0 31 -6.5t26.5 -17.5t19 -24.5t9.5 -26.5q3 -23 -3 -48t-21 -46t-37.5 -34.5t-52.5 -13.5zM718 1122q-11 0 -24.5 -14.5t-26 -34t-20.5 -40t-7 -33.5q0 -13 7 -13q19 0 34.5 12t27 29.5
t17 37.5t3.5 37q-3 19 -11 19z" />
    <glyph glyph-name="AE" unicode="&#xc6;" horiz-adv-x="927" 
d="M1052 858q11 0 11 -20q0 -6 -3 -17.5t-9 -23.5t-15.5 -21t-23.5 -9l-96 2q-42 1 -91 1.5t-94 0.5h-8q-3 -12 -13.5 -45.5t-26 -80.5t-34 -104.5t-37.5 -117.5q38 4 81 9t88 13q11 1 12 -12t-3.5 -30t-13.5 -32t-18 -18q-5 -2 -21.5 -3t-40 -2t-52 -2t-57.5 -2
q-13 -41 -25 -79.5t-22.5 -71.5t-18.5 -60t-12 -44q28 0 60.5 -0.5t66 -1t65.5 -0.5h59q31 0 47 1t23 2t9 2t5 1q8 0 15.5 -5t7.5 -21q0 -30 -17 -48t-34 -18q-1 0 -6.5 0.5t-22 0.5t-47.5 0.5t-83 0.5q-51 0 -102.5 -0.5t-92.5 -1.5q-4 -1 -9 -1h-10q-7 0 -11 1
q-21 -1 -33 -1h-14q-12 0 -12 20q0 2 0.5 5t1.5 8q-7 11 -10 26.5t0 36.5q1 10 7.5 30.5t16 49t22.5 63.5t28 75h-16q-31 -1 -68 -4t-77 -8q-49 -59 -99 -112t-97.5 -93t-91 -63.5t-78.5 -23.5q-34 0 -56 7t-35 17t-17.5 20.5t-3.5 17.5t5.5 8.5t11 0t14.5 -4t18 -2.5
q32 0 68.5 16t75.5 44.5t80.5 67t83.5 83.5q-39 -5 -72.5 -9.5t-55.5 -4.5q-29 0 -45.5 10t-25 23.5t-10.5 27t0 19.5q2 16 5 18.5t12.5 -0.5t30.5 -8t59 -5q36 1 84.5 8t102.5 16q60 71 116.5 145t104 139.5t84 116t57.5 75.5q0 5 1 7q3 17 21.5 13t40.5 -20q19 0 59 -0.5
t109 -0.5q94 0 153 1.5t64 1.5zM566 695q-38 -58 -92 -135.5t-117 -160.5q32 5 61.5 8.5t54.5 4.5q25 69 49 141.5t44 141.5z" />
    <glyph glyph-name="Ccedilla" unicode="&#xc7;" horiz-adv-x="577" 
d="M128 -10q24 0 42 -18t18 -37q0 -9 -11.5 -29t-28.5 -40t-37.5 -35.5t-39.5 -15.5q-14 0 -21 3t-9 8t1 11t8 11q23 23 35.5 48t19 46t11 34.5t12.5 13.5zM580 734q-1 -9 -6 -30.5t-13 -49.5t-17.5 -59.5t-17.5 -61t-13.5 -54t-5.5 -37.5q0 -9 -12.5 -9t-27 10t-26 31
t-9.5 54q1 22 10 49.5t21 55t24.5 53.5t20 46t7.5 32t-12 12q-35 0 -75.5 -31t-81.5 -81t-78.5 -114.5t-66 -132t-45 -132t-14 -114.5t26.5 -81t76 -31q46 0 90 17t82.5 43.5t71 58.5t56 61.5t36.5 53t13 33.5q0 7 5.5 6t11.5 -7t11 -15.5t5 -19.5q-1 -19 -17 -48t-43 -62
t-63.5 -66.5t-79 -60t-88.5 -43.5t-93 -17q-105 0 -162.5 37t-78.5 98t-9 139t46.5 159t87 159t112.5 139t124 98t121 37q54 0 76.5 -31t19.5 -94z" />
    <glyph glyph-name="Egrave" unicode="&#xc8;" horiz-adv-x="583" 
d="M584 328q0 7 5.5 6.5t11.5 -6.5t11 -16t5 -20q-1 -19 -15.5 -48.5t-40 -63t-62 -66.5t-81.5 -60t-97 -44t-109 -17q-75 0 -124.5 24.5t-73.5 64t-24 88.5t23.5 98t69.5 93t113 73q-80 51 -77 144q2 39 18 74.5t41.5 66.5t57.5 56.5t66.5 44t68 28.5t61.5 10q30 0 57.5 -8
t48.5 -23t32.5 -36t10.5 -48q-2 -43 -17 -81.5t-37.5 -68t-49.5 -47t-52 -17.5q-8 0 -13.5 5t-7.5 10.5t-0.5 10.5t7.5 5q10 0 27.5 14t35 35t31 45t16.5 45t-8.5 35t-43.5 14q-48 0 -90.5 -19.5t-74.5 -48.5t-51 -63.5t-20 -64.5q-1 -22 6 -50t34 -42q32 8 66.5 12t72.5 4
q45 0 62.5 -18.5t15.5 -42.5q-1 -23 -14 -39t-23 -16q-5 0 -6.5 2t-3.5 4.5t-6 4.5t-14 2q-80 0 -139.5 -24t-98 -60.5t-56.5 -79t-14.5 -79t28 -60.5t70.5 -24q54 0 103 18t90 46.5t73.5 62t55.5 65t35.5 56t13.5 34.5zM515 917q-18 0 -46 10.5t-55 24.5t-46.5 29.5
t-19.5 26.5q0 9 5 20t13 20t17.5 15t17.5 6q5 0 24 -16.5t43 -36.5t47.5 -36.5t38.5 -16.5q7 0 8.5 -7t-3 -16t-15.5 -16t-29 -7z" />
    <glyph glyph-name="Eacute" unicode="&#xc9;" horiz-adv-x="583" 
d="M584 328q0 7 5.5 6.5t11.5 -6.5t11 -16t5 -20q-1 -19 -15.5 -48.5t-40 -63t-62 -66.5t-81.5 -60t-97 -44t-109 -17q-75 0 -124.5 24.5t-73.5 64t-24 88.5t23.5 98t69.5 93t113 73q-80 51 -77 144q2 39 18 74.5t41.5 66.5t57.5 56.5t66.5 44t68 28.5t61.5 10q30 0 57.5 -8
t48.5 -23t32.5 -36t10.5 -48q-2 -43 -17 -81.5t-37.5 -68t-49.5 -47t-52 -17.5q-8 0 -13.5 5t-7.5 10.5t-0.5 10.5t7.5 5q10 0 27.5 14t35 35t31 45t16.5 45t-8.5 35t-43.5 14q-48 0 -90.5 -19.5t-74.5 -48.5t-51 -63.5t-20 -64.5q-1 -22 6 -50t34 -42q32 8 66.5 12t72.5 4
q45 0 62.5 -18.5t15.5 -42.5q-1 -23 -14 -39t-23 -16q-5 0 -6.5 2t-3.5 4.5t-6 4.5t-14 2q-80 0 -139.5 -24t-98 -60.5t-56.5 -79t-14.5 -79t28 -60.5t70.5 -24q54 0 103 18t90 46.5t73.5 62t55.5 65t35.5 56t13.5 34.5zM337 945q14 0 38 17t47.5 37t43 37t24.5 17
q8 0 17.5 -6t17 -15.5t12.5 -20.5t5 -21q0 -11 -19.5 -26t-46 -29t-55 -24t-46.5 -10q-17 0 -28 7t-15.5 15t-3.5 15t9 7z" />
    <glyph glyph-name="Ecircumflex" unicode="&#xca;" horiz-adv-x="583" 
d="M584 328q0 7 5.5 6.5t11.5 -6.5t11 -16t5 -20q-1 -19 -15.5 -48.5t-40 -63t-62 -66.5t-81.5 -60t-97 -44t-109 -17q-75 0 -124.5 24.5t-73.5 64t-24 88.5t23.5 98t69.5 93t113 73q-80 51 -77 144q2 39 18 74.5t41.5 66.5t57.5 56.5t66.5 44t68 28.5t61.5 10q30 0 57.5 -8
t48.5 -23t32.5 -36t10.5 -48q-2 -43 -17 -81.5t-37.5 -68t-49.5 -47t-52 -17.5q-8 0 -13.5 5t-7.5 10.5t-0.5 10.5t7.5 5q10 0 27.5 14t35 35t31 45t16.5 45t-8.5 35t-43.5 14q-48 0 -90.5 -19.5t-74.5 -48.5t-51 -63.5t-20 -64.5q-1 -22 6 -50t34 -42q32 8 66.5 12t72.5 4
q45 0 62.5 -18.5t15.5 -42.5q-1 -23 -14 -39t-23 -16q-5 0 -6.5 2t-3.5 4.5t-6 4.5t-14 2q-80 0 -139.5 -24t-98 -60.5t-56.5 -79t-14.5 -79t28 -60.5t70.5 -24q54 0 103 18t90 46.5t73.5 62t55.5 65t35.5 56t13.5 34.5zM352 922q-9 0 -13 3t-6 7t0 11q0 6 9.5 17t24 24.5
t32 27.5t34.5 25.5t30.5 19t20.5 7.5t17 -12t20.5 -30.5t19.5 -39.5t14 -39.5t3.5 -30.5t-11.5 -12q-15 0 -28 12.5t-24 27t-19.5 27t-14.5 12.5t-20 -9t-30.5 -19.5t-33 -19.5t-25.5 -9z" />
    <glyph glyph-name="Edieresis" unicode="&#xcb;" horiz-adv-x="583" 
d="M584 328q0 7 5.5 6.5t11.5 -6.5t11 -16t5 -20q-1 -19 -15.5 -48.5t-40 -63t-62 -66.5t-81.5 -60t-97 -44t-109 -17q-75 0 -124.5 24.5t-73.5 64t-24 88.5t23.5 98t69.5 93t113 73q-80 51 -77 144q2 39 18 74.5t41.5 66.5t57.5 56.5t66.5 44t68 28.5t61.5 10q30 0 57.5 -8
t48.5 -23t32.5 -36t10.5 -48q-2 -43 -17 -81.5t-37.5 -68t-49.5 -47t-52 -17.5q-8 0 -13.5 5t-7.5 10.5t-0.5 10.5t7.5 5q10 0 27.5 14t35 35t31 45t16.5 45t-8.5 35t-43.5 14q-48 0 -90.5 -19.5t-74.5 -48.5t-51 -63.5t-20 -64.5q-1 -22 6 -50t34 -42q32 8 66.5 12t72.5 4
q45 0 62.5 -18.5t15.5 -42.5q-1 -23 -14 -39t-23 -16q-5 0 -6.5 2t-3.5 4.5t-6 4.5t-14 2q-80 0 -139.5 -24t-98 -60.5t-56.5 -79t-14.5 -79t28 -60.5t70.5 -24q54 0 103 18t90 46.5t73.5 62t55.5 65t35.5 56t13.5 34.5zM364 928q-11 0 -22.5 3.5t-20.5 9.5t-14 14.5
t-3 18.5q1 14 9.5 28.5t21.5 26.5t28 20t29 8q21 0 33.5 -11.5t10.5 -34.5q-1 -12 -7 -26t-15.5 -27t-22.5 -21.5t-27 -8.5zM531 918q-12 0 -23.5 3.5t-20.5 9.5t-14.5 14t-4.5 17q1 15 10.5 30t22.5 27t28.5 20t29.5 8q21 0 33.5 -11.5t10.5 -34.5q-1 -12 -7 -26t-15.5 -27
t-22.5 -21.5t-27 -8.5z" />
    <glyph glyph-name="Igrave" unicode="&#xcc;" horiz-adv-x="649" 
d="M501 747q0 10 -3 22t-10.5 22t-19.5 17t-29 7q-42 0 -90.5 -18t-97 -48.5t-93 -71.5t-78.5 -87.5t-54.5 -96t-20.5 -96.5q0 -21 3 -32t7 -17.5t7 -10.5t3 -10q0 -13 -18 -8.5t-39.5 25.5t-39.5 58.5t-18 91.5q0 28 19.5 66t55 78.5t84.5 80t108 70.5t125 50t136 19
q97 0 146 -38t49 -114q0 -32 -18 -93t-45 -134t-59 -151.5t-59 -147t-45 -119.5t-18 -69q0 -13 -20 -15t-44 5.5t-44 24.5t-20 42q0 18 18 63t44.5 106.5t57.5 133t57.5 143t44.5 137.5t18 115zM524 923q-18 0 -46 10.5t-55 24.5t-46.5 29.5t-19.5 26.5q0 9 5 20t13 20
t17.5 15t17.5 6q5 0 24 -16.5t43 -36.5t47.5 -36.5t38.5 -16.5q7 0 8.5 -7t-3 -16t-15.5 -16t-29 -7z" />
    <glyph glyph-name="Iacute" unicode="&#xcd;" horiz-adv-x="649" 
d="M501 747q0 10 -3 22t-10.5 22t-19.5 17t-29 7q-42 0 -90.5 -18t-97 -48.5t-93 -71.5t-78.5 -87.5t-54.5 -96t-20.5 -96.5q0 -21 3 -32t7 -17.5t7 -10.5t3 -10q0 -13 -18 -8.5t-39.5 25.5t-39.5 58.5t-18 91.5q0 28 19.5 66t55 78.5t84.5 80t108 70.5t125 50t136 19
q97 0 146 -38t49 -114q0 -32 -18 -93t-45 -134t-59 -151.5t-59 -147t-45 -119.5t-18 -69q0 -13 -20 -15t-44 5.5t-44 24.5t-20 42q0 18 18 63t44.5 106.5t57.5 133t57.5 143t44.5 137.5t18 115zM364 975q14 0 38 17t47.5 37t43 37t24.5 17q8 0 17.5 -6t17 -15.5t12.5 -20.5
t5 -21q0 -11 -19.5 -26t-46 -29t-55 -24t-46.5 -10q-17 0 -28 7t-15.5 15t-3.5 15t9 7z" />
    <glyph glyph-name="Icircumflex" unicode="&#xce;" horiz-adv-x="649" 
d="M501 747q0 10 -3 22t-10.5 22t-19.5 17t-29 7q-42 0 -90.5 -18t-97 -48.5t-93 -71.5t-78.5 -87.5t-54.5 -96t-20.5 -96.5q0 -21 3 -32t7 -17.5t7 -10.5t3 -10q0 -13 -18 -8.5t-39.5 25.5t-39.5 58.5t-18 91.5q0 28 19.5 66t55 78.5t84.5 80t108 70.5t125 50t136 19
q97 0 146 -38t49 -114q0 -32 -18 -93t-45 -134t-59 -151.5t-59 -147t-45 -119.5t-18 -69q0 -13 -20 -15t-44 5.5t-44 24.5t-20 42q0 18 18 63t44.5 106.5t57.5 133t57.5 143t44.5 137.5t18 115zM355 923q-9 0 -13 3t-6 7t0 11q0 6 9.5 17t24 24.5t32 27.5t34.5 25.5t30.5 19
t20.5 7.5t17 -12t20.5 -30.5t19.5 -39.5t14 -39.5t3.5 -30.5t-11.5 -12q-15 0 -28 12.5t-24 27t-19.5 27t-14.5 12.5t-20 -9t-30.5 -19.5t-33 -19.5t-25.5 -9z" />
    <glyph glyph-name="Idieresis" unicode="&#xcf;" horiz-adv-x="649" 
d="M501 747q0 10 -3 22t-10.5 22t-19.5 17t-29 7q-42 0 -90.5 -18t-97 -48.5t-93 -71.5t-78.5 -87.5t-54.5 -96t-20.5 -96.5q0 -21 3 -32t7 -17.5t7 -10.5t3 -10q0 -13 -18 -8.5t-39.5 25.5t-39.5 58.5t-18 91.5q0 28 19.5 66t55 78.5t84.5 80t108 70.5t125 50t136 19
q97 0 146 -38t49 -114q0 -32 -18 -93t-45 -134t-59 -151.5t-59 -147t-45 -119.5t-18 -69q0 -13 -20 -15t-44 5.5t-44 24.5t-20 42q0 18 18 63t44.5 106.5t57.5 133t57.5 143t44.5 137.5t18 115zM350 928q-11 0 -22.5 3.5t-20.5 9.5t-14 14.5t-3 18.5q1 14 9.5 28.5
t21.5 26.5t28 20t29 8q21 0 33.5 -11.5t10.5 -34.5q-1 -12 -7 -26t-15.5 -27t-22.5 -21.5t-27 -8.5zM517 918q-12 0 -23.5 3.5t-20.5 9.5t-14.5 14t-4.5 17q1 15 10.5 30t22.5 27t28.5 20t29.5 8q21 0 33.5 -11.5t10.5 -34.5q-1 -12 -7 -26t-15.5 -27t-22.5 -21.5t-27 -8.5z
" />
    <glyph glyph-name="Ntilde" unicode="&#xd1;" horiz-adv-x="719" 
d="M793 779q0 -19 -12.5 -56.5t-32.5 -86.5t-45.5 -107t-52 -118t-52.5 -118.5t-45.5 -109.5t-31.5 -90.5t-12 -61.5q5 -9 -11 -20t-45 -11q-10 0 -26.5 4t-33 14.5t-30.5 29.5t-18 49q-2 14 -1 47t3.5 79.5t6 103t6 118t4 126t0.5 125.5q-19 -54 -46.5 -125.5t-62.5 -147.5
t-75 -149.5t-84 -131.5t-89.5 -93.5t-91.5 -35.5q-34 0 -58.5 7t-40 17t-23.5 20.5t-9 17.5t3 8t10.5 -0.5t15.5 -4t19 -2.5q43 0 86 28.5t84 76t80 110t74 129.5t66 135t56 127t44 105t31 69v8q-3 18 22 11q2 -1 3 -1t2 -1q16 -6 37.5 -18.5t41 -28t33 -31t15.5 -26.5
q1 -12 -3 -57.5t-9 -110.5t-8 -142t0 -150q18 37 41 85t46.5 100.5t46 106.5t40 103.5t28 90t10.5 67.5q0 18 14.5 15t32.5 -17.5t32.5 -37t14.5 -43.5zM467 955q-15 0 -18 17.5t5 39t26 39t45 17.5q19 0 34 -6t28 -12.5t23.5 -12.5t21.5 -6q10 0 18.5 4.5t15.5 10t13.5 10
t12.5 4.5q19 0 23.5 -18t-4.5 -39t-30 -39t-52 -18q-16 0 -30 6t-26.5 13t-24.5 13t-24 6t-20 -4.5t-14.5 -10t-12 -10t-10.5 -4.5z" />
    <glyph glyph-name="Ograve" unicode="&#xd2;" horiz-adv-x="686" 
d="M479 859q39 0 73.5 -20.5t59.5 -54t38.5 -76.5t9.5 -89q-7 -81 -30 -159.5t-58 -148t-79.5 -128t-94 -101t-103 -66t-106.5 -23.5q-58 0 -99 28.5t-66.5 73t-36 99t-5.5 106.5q7 93 34 164t61 119.5t70 73.5t62 25q8 0 13 -4q25 37 54.5 70t62.5 58t68 39t72 14zM182 80
q38 0 78 27t78 73t72.5 106t62 125t45.5 131.5t23 125.5q6 66 -12.5 98t-44.5 32q-19 0 -42.5 -20t-48.5 -52.5t-50 -75t-47 -88t-40 -90t-29 -82t-14 -63.5t5 -35q7 -8 -2 -12t-25 -2.5t-35 9.5t-31 25q-13 -37 -18 -74q-6 -75 14.5 -116.5t60.5 -41.5zM545 918
q-18 0 -46 10.5t-55 24.5t-46.5 29.5t-19.5 26.5q0 9 5 20t13 20t17.5 15t17.5 6q5 0 24 -16.5t43 -36.5t47.5 -36.5t38.5 -16.5q7 0 8.5 -7t-3 -16t-15.5 -16t-29 -7z" />
    <glyph glyph-name="Oacute" unicode="&#xd3;" horiz-adv-x="686" 
d="M479 859q39 0 73.5 -20.5t59.5 -54t38.5 -76.5t9.5 -89q-7 -81 -30 -159.5t-58 -148t-79.5 -128t-94 -101t-103 -66t-106.5 -23.5q-58 0 -99 28.5t-66.5 73t-36 99t-5.5 106.5q7 93 34 164t61 119.5t70 73.5t62 25q8 0 13 -4q25 37 54.5 70t62.5 58t68 39t72 14zM182 80
q38 0 78 27t78 73t72.5 106t62 125t45.5 131.5t23 125.5q6 66 -12.5 98t-44.5 32q-19 0 -42.5 -20t-48.5 -52.5t-50 -75t-47 -88t-40 -90t-29 -82t-14 -63.5t5 -35q7 -8 -2 -12t-25 -2.5t-35 9.5t-31 25q-13 -37 -18 -74q-6 -75 14.5 -116.5t60.5 -41.5zM389 968q14 0 38 17
t47.5 37t43 37t24.5 17q8 0 17.5 -6t17 -15.5t12.5 -20.5t5 -21q0 -11 -19.5 -26t-46 -29t-55 -24t-46.5 -10q-17 0 -28 7t-15.5 15t-3.5 15t9 7z" />
    <glyph glyph-name="Ocircumflex" unicode="&#xd4;" horiz-adv-x="686" 
d="M479 859q39 0 73.5 -20.5t59.5 -54t38.5 -76.5t9.5 -89q-7 -81 -30 -159.5t-58 -148t-79.5 -128t-94 -101t-103 -66t-106.5 -23.5q-58 0 -99 28.5t-66.5 73t-36 99t-5.5 106.5q7 93 34 164t61 119.5t70 73.5t62 25q8 0 13 -4q25 37 54.5 70t62.5 58t68 39t72 14zM182 80
q38 0 78 27t78 73t72.5 106t62 125t45.5 131.5t23 125.5q6 66 -12.5 98t-44.5 32q-19 0 -42.5 -20t-48.5 -52.5t-50 -75t-47 -88t-40 -90t-29 -82t-14 -63.5t5 -35q7 -8 -2 -12t-25 -2.5t-35 9.5t-31 25q-13 -37 -18 -74q-6 -75 14.5 -116.5t60.5 -41.5zM401 933q-9 0 -13 3
t-6 7t0 11q0 6 9.5 17t24 24.5t32 27.5t34.5 25.5t30.5 19t20.5 7.5t17 -12t20.5 -30.5t19.5 -39.5t14 -39.5t3.5 -30.5t-11.5 -12q-15 0 -28 12.5t-24 27t-19.5 27t-14.5 12.5t-20 -9t-30.5 -19.5t-33 -19.5t-25.5 -9z" />
    <glyph glyph-name="Otilde" unicode="&#xd5;" horiz-adv-x="686" 
d="M479 859q39 0 73.5 -20.5t59.5 -54t38.5 -76.5t9.5 -89q-7 -81 -30 -159.5t-58 -148t-79.5 -128t-94 -101t-103 -66t-106.5 -23.5q-58 0 -99 28.5t-66.5 73t-36 99t-5.5 106.5q7 93 34 164t61 119.5t70 73.5t62 25q8 0 13 -4q25 37 54.5 70t62.5 58t68 39t72 14zM182 80
q38 0 78 27t78 73t72.5 106t62 125t45.5 131.5t23 125.5q6 66 -12.5 98t-44.5 32q-19 0 -42.5 -20t-48.5 -52.5t-50 -75t-47 -88t-40 -90t-29 -82t-14 -63.5t5 -35q7 -8 -2 -12t-25 -2.5t-35 9.5t-31 25q-13 -37 -18 -74q-6 -75 14.5 -116.5t60.5 -41.5zM382 925
q-15 0 -18 17.5t5 39t26 39t45 17.5q19 0 34 -6t28 -12.5t23.5 -12.5t21.5 -6q10 0 18.5 4.5t15.5 10t13.5 10t12.5 4.5q19 0 23.5 -18t-4.5 -39t-30 -39t-52 -18q-16 0 -30 6t-26.5 13t-24.5 13t-24 6t-20 -4.5t-14.5 -10t-12 -10t-10.5 -4.5z" />
    <glyph glyph-name="Odieresis" unicode="&#xd6;" horiz-adv-x="686" 
d="M479 859q39 0 73.5 -20.5t59.5 -54t38.5 -76.5t9.5 -89q-7 -81 -30 -159.5t-58 -148t-79.5 -128t-94 -101t-103 -66t-106.5 -23.5q-58 0 -99 28.5t-66.5 73t-36 99t-5.5 106.5q7 93 34 164t61 119.5t70 73.5t62 25q8 0 13 -4q25 37 54.5 70t62.5 58t68 39t72 14zM182 80
q38 0 78 27t78 73t72.5 106t62 125t45.5 131.5t23 125.5q6 66 -12.5 98t-44.5 32q-19 0 -42.5 -20t-48.5 -52.5t-50 -75t-47 -88t-40 -90t-29 -82t-14 -63.5t5 -35q7 -8 -2 -12t-25 -2.5t-35 9.5t-31 25q-13 -37 -18 -74q-6 -75 14.5 -116.5t60.5 -41.5zM403 934
q-11 0 -22.5 3.5t-20.5 9.5t-14 14.5t-3 18.5q1 14 9.5 28.5t21.5 26.5t28 20t29 8q21 0 33.5 -11.5t10.5 -34.5q-1 -12 -7 -26t-15.5 -27t-22.5 -21.5t-27 -8.5zM570 924q-12 0 -23.5 3.5t-20.5 9.5t-14.5 14t-4.5 17q1 15 10.5 30t22.5 27t28.5 20t29.5 8q21 0 33.5 -11.5
t10.5 -34.5q-1 -12 -7 -26t-15.5 -27t-22.5 -21.5t-27 -8.5z" />
    <glyph glyph-name="multiply" unicode="&#xd7;" horiz-adv-x="595" 
d="M414 205q9 -6 4.5 -16.5t-16 -20t-25 -15t-22.5 -1.5q-8 3 -28.5 32.5t-46.5 69.5q-25 -22 -48.5 -41t-41.5 -33.5t-29.5 -23t-13.5 -8.5q-17 2 -27 13t-8 30q1 7 12 19t29 28t41 34.5t48 38.5q-30 45 -55.5 79t-36.5 38q-9 2 -14.5 6t-2.5 12q3 6 8.5 13t14 12t19.5 6.5
t25 -2.5q8 -3 17.5 -14t21 -28t24.5 -38t28 -44q21 18 41 35.5t35 33.5t24.5 30t10.5 25q1 12 9.5 9.5t18 -11.5t16.5 -22.5t6 -24.5q-1 -6 -11.5 -19t-27.5 -30.5t-39 -38.5t-46 -42q20 -28 41.5 -52t44.5 -39z" />
    <glyph glyph-name="Oslash" unicode="&#xd8;" horiz-adv-x="686" 
d="M581 819q40 -34 62.5 -87.5t17.5 -112.5q-7 -81 -30 -159.5t-58 -148t-79.5 -128t-94 -101t-103 -66t-106.5 -23.5q-22 0 -38 4q-19 -38 -31 -62.5t-14 -32.5q-3 -10 -15 -4.5t-25 18.5t-22 30t-6 30q1 4 9 19.5t22 41.5q-25 22 -43 53t-28.5 66t-14.5 72t-1 72
q7 93 34 164t61 119.5t70 73.5t62 25q8 0 13 -4q25 37 54.5 70t62.5 58t68 39t72 14h9.5t9.5 -1q16 37 14 50q-2 16 10 16.5t27 -9.5t28.5 -27t15.5 -36q0 -7 -13 -33zM472 796q-25 -8 -55.5 -42.5t-60.5 -83t-57.5 -105.5t-48 -109t-31 -94t-5.5 -61q35 64 72 132t71 133
t64 124t51 106zM108 238q-3 -35 0.5 -62.5t11.5 -47.5q18 33 38.5 70.5t42.5 78.5q-17 0 -39 7.5t-36 27.5q-13 -37 -18 -74zM542 668q3 37 -2 66q-31 -62 -74.5 -144.5t-91 -171.5t-94 -177t-84.5 -160q37 5 76 34.5t76 75.5t70 105t59 122.5t43 128t22 121.5z" />
    <glyph glyph-name="Ugrave" unicode="&#xd9;" horiz-adv-x="833" 
d="M689 788q1 12 12 14t27 -3t34.5 -15.5t34 -23.5t25.5 -26t10 -23q0 -15 -16.5 -65.5t-41.5 -119t-54 -147.5t-54 -150.5t-41.5 -127t-16.5 -78.5q0 -13 -20 -10t-44 16t-44 34.5t-20 46.5q0 26 22.5 83t60.5 155l-45 -75t-49.5 -79t-51.5 -75t-50 -63.5t-45 -44
t-36 -16.5q-35 0 -65 13t-52.5 35t-35.5 50t-13 58q0 18 15 56t38 88t49 109t49 120t38 119t15 107q0 10 -3 22t-10.5 22t-19.5 16.5t-29 6.5q-42 0 -90 -17.5t-95.5 -48t-91.5 -71t-78 -86.5t-54 -95t-20 -95q0 -21 3 -32t7 -17.5t7 -10.5t3 -10q0 -13 -18 -8.5t-39 25.5
t-39 58.5t-18 90.5q0 28 19.5 65.5t54.5 77.5t83.5 79t106.5 69.5t123.5 49.5t134.5 19q193 0 193 -151q0 -30 -15 -82t-37.5 -114t-48.5 -128t-48.5 -124t-37.5 -102t-15 -62q-2 -9 0 -15q2 -5 6 -9.5t15 -4.5q16 0 47.5 37t71 95t82.5 127.5t81.5 134.5t68 117t41.5 74
q9 36 15.5 69.5t8.5 65.5zM636 865q-18 0 -46 10.5t-55 24.5t-46.5 29.5t-19.5 26.5q0 9 5 20t13 20t17.5 15t17.5 6q5 0 24 -16.5t43 -36.5t47.5 -36.5t38.5 -16.5q7 0 8.5 -7t-3 -16t-15.5 -16t-29 -7z" />
    <glyph glyph-name="Uacute" unicode="&#xda;" horiz-adv-x="833" 
d="M689 788q1 12 12 14t27 -3t34.5 -15.5t34 -23.5t25.5 -26t10 -23q0 -15 -16.5 -65.5t-41.5 -119t-54 -147.5t-54 -150.5t-41.5 -127t-16.5 -78.5q0 -13 -20 -10t-44 16t-44 34.5t-20 46.5q0 26 22.5 83t60.5 155l-45 -75t-49.5 -79t-51.5 -75t-50 -63.5t-45 -44
t-36 -16.5q-35 0 -65 13t-52.5 35t-35.5 50t-13 58q0 18 15 56t38 88t49 109t49 120t38 119t15 107q0 10 -3 22t-10.5 22t-19.5 16.5t-29 6.5q-42 0 -90 -17.5t-95.5 -48t-91.5 -71t-78 -86.5t-54 -95t-20 -95q0 -21 3 -32t7 -17.5t7 -10.5t3 -10q0 -13 -18 -8.5t-39 25.5
t-39 58.5t-18 90.5q0 28 19.5 65.5t54.5 77.5t83.5 79t106.5 69.5t123.5 49.5t134.5 19q193 0 193 -151q0 -30 -15 -82t-37.5 -114t-48.5 -128t-48.5 -124t-37.5 -102t-15 -62q-2 -9 0 -15q2 -5 6 -9.5t15 -4.5q16 0 47.5 37t71 95t82.5 127.5t81.5 134.5t68 117t41.5 74
q9 36 15.5 69.5t8.5 65.5zM491 893q14 0 38 17t47.5 37t43 37t24.5 17q8 0 17.5 -6t17 -15.5t12.5 -20.5t5 -21q0 -11 -19.5 -26t-46 -29t-55 -24t-46.5 -10q-17 0 -28 7t-15.5 15t-3.5 15t9 7z" />
    <glyph glyph-name="Ucircumflex" unicode="&#xdb;" horiz-adv-x="833" 
d="M689 788q1 12 12 14t27 -3t34.5 -15.5t34 -23.5t25.5 -26t10 -23q0 -15 -16.5 -65.5t-41.5 -119t-54 -147.5t-54 -150.5t-41.5 -127t-16.5 -78.5q0 -13 -20 -10t-44 16t-44 34.5t-20 46.5q0 26 22.5 83t60.5 155l-45 -75t-49.5 -79t-51.5 -75t-50 -63.5t-45 -44
t-36 -16.5q-35 0 -65 13t-52.5 35t-35.5 50t-13 58q0 18 15 56t38 88t49 109t49 120t38 119t15 107q0 10 -3 22t-10.5 22t-19.5 16.5t-29 6.5q-42 0 -90 -17.5t-95.5 -48t-91.5 -71t-78 -86.5t-54 -95t-20 -95q0 -21 3 -32t7 -17.5t7 -10.5t3 -10q0 -13 -18 -8.5t-39 25.5
t-39 58.5t-18 90.5q0 28 19.5 65.5t54.5 77.5t83.5 79t106.5 69.5t123.5 49.5t134.5 19q193 0 193 -151q0 -30 -15 -82t-37.5 -114t-48.5 -128t-48.5 -124t-37.5 -102t-15 -62q-2 -9 0 -15q2 -5 6 -9.5t15 -4.5q16 0 47.5 37t71 95t82.5 127.5t81.5 134.5t68 117t41.5 74
q9 36 15.5 69.5t8.5 65.5zM472 873q-9 0 -13 3t-6 7t0 11q0 6 9.5 17t24 24.5t32 27.5t34.5 25.5t30.5 19t20.5 7.5t17 -12t20.5 -30.5t19.5 -39.5t14 -39.5t3.5 -30.5t-11.5 -12q-15 0 -28 12.5t-24 27t-19.5 27t-14.5 12.5t-20 -9t-30.5 -19.5t-33 -19.5t-25.5 -9z" />
    <glyph glyph-name="Udieresis" unicode="&#xdc;" horiz-adv-x="833" 
d="M689 788q1 12 12 14t27 -3t34.5 -15.5t34 -23.5t25.5 -26t10 -23q0 -15 -16.5 -65.5t-41.5 -119t-54 -147.5t-54 -150.5t-41.5 -127t-16.5 -78.5q0 -13 -20 -10t-44 16t-44 34.5t-20 46.5q0 26 22.5 83t60.5 155l-45 -75t-49.5 -79t-51.5 -75t-50 -63.5t-45 -44
t-36 -16.5q-35 0 -65 13t-52.5 35t-35.5 50t-13 58q0 18 15 56t38 88t49 109t49 120t38 119t15 107q0 10 -3 22t-10.5 22t-19.5 16.5t-29 6.5q-42 0 -90 -17.5t-95.5 -48t-91.5 -71t-78 -86.5t-54 -95t-20 -95q0 -21 3 -32t7 -17.5t7 -10.5t3 -10q0 -13 -18 -8.5t-39 25.5
t-39 58.5t-18 90.5q0 28 19.5 65.5t54.5 77.5t83.5 79t106.5 69.5t123.5 49.5t134.5 19q193 0 193 -151q0 -30 -15 -82t-37.5 -114t-48.5 -128t-48.5 -124t-37.5 -102t-15 -62q-2 -9 0 -15q2 -5 6 -9.5t15 -4.5q16 0 47.5 37t71 95t82.5 127.5t81.5 134.5t68 117t41.5 74
q9 36 15.5 69.5t8.5 65.5zM490 893q-11 0 -22.5 3.5t-20.5 9.5t-14 14.5t-3 18.5q1 14 9.5 28.5t21.5 26.5t28 20t29 8q21 0 33.5 -11.5t10.5 -34.5q-1 -12 -7 -26t-15.5 -27t-22.5 -21.5t-27 -8.5zM657 883q-12 0 -23.5 3.5t-20.5 9.5t-14.5 14t-4.5 17q1 15 10.5 30
t22.5 27t28.5 20t29.5 8q21 0 33.5 -11.5t10.5 -34.5q-1 -12 -7 -26t-15.5 -27t-22.5 -21.5t-27 -8.5z" />
    <glyph glyph-name="Yacute" unicode="&#xdd;" horiz-adv-x="804" 
d="M690 788q0 18 17.5 13.5t38 -23t38 -46t17.5 -54.5q0 -16 -11 -67t-32 -123.5t-51 -160t-67 -176.5t-80.5 -172.5t-92 -148.5t-101.5 -104t-109 -39q-50 0 -90 10.5t-68 25t-44 30t-17 26.5q-2 10 4 12t16 -0.5t23.5 -6t27.5 -3.5q97 0 168 45t126 127t99.5 195t89.5 250
q-19 -33 -44 -76t-53.5 -88t-58 -88t-57 -76.5t-52 -54t-41.5 -20.5q-34 0 -64.5 13t-53 35t-35.5 50t-13 58q0 18 15 56t38 88t49 109t49 120t38 119t15 107q0 10 -3 22t-10.5 22t-19 16.5t-28.5 6.5q-42 0 -90 -17.5t-95.5 -48t-92 -71t-78 -86.5t-54 -95t-20.5 -95
q0 -21 3 -32t7 -17.5t7 -10.5t3 -10q0 -13 -18 -8.5t-39 25.5t-39 58.5t-18 90.5q0 28 19.5 65.5t54.5 77.5t83.5 79t106.5 69.5t124 49.5t135 19q95 0 151.5 -38t56.5 -113q0 -22 -15.5 -68.5t-39 -106t-50.5 -125.5t-50.5 -126t-39 -107.5t-15.5 -70.5q-1 -11 0 -19
q1 -7 3.5 -12.5t9.5 -5.5q12 0 33 21.5t47.5 57.5t57.5 82.5t62.5 97t62 101.5t56 95.5t45 78.5t28.5 51q12 51 18.5 85.5t6.5 49.5zM495 901q14 0 38 17t47.5 37t43 37t24.5 17q8 0 17.5 -6t17 -15.5t12.5 -20.5t5 -21q0 -11 -19.5 -26t-46 -29t-55 -24t-46.5 -10
q-17 0 -28 7t-15.5 15t-3.5 15t9 7z" />
    <glyph glyph-name="germandbls" unicode="&#xdf;" horiz-adv-x="568" 
d="M582 565q-1 -45 -23.5 -92.5t-59 -94t-83 -89t-95.5 -76.5q26 -17 48 -44.5t22 -66.5q0 -35 -15.5 -66t-41.5 -54.5t-60 -37.5t-70 -14q-34 0 -55.5 16t-32 35.5t-10.5 36t9 16.5q8 0 14.5 -6t15.5 -12.5t21.5 -12.5t32.5 -6q30 0 53.5 13t39 32t24 40t8.5 36
q0 31 -11.5 42.5t-32.5 11.5q-16 0 -29 -3t-22.5 -4.5t-15 0t-7.5 10.5q-6 10 -6 26t5.5 31.5t16 26.5t26.5 11q31 0 64.5 33t63 82t51 107t29 107t-3 82t-44.5 33q-19 0 -46 -27t-58.5 -72.5t-66 -106t-67.5 -127.5t-62.5 -137t-52 -134t-35.5 -118.5t-13 -91.5
q0 -7 -1.5 -15t-4.5 -15.5t-7.5 -12.5t-11.5 -5q-8 0 -29.5 7.5t-44.5 19.5t-40.5 26t-16.5 26q65 233 150 416q36 78 80.5 153t95.5 133.5t109 94.5t123 36q37 0 69 -18.5t55 -47t36 -64t13 -69.5z" />
    <glyph glyph-name="agrave" unicode="&#xe0;" horiz-adv-x="561" 
d="M561 340q8 12 13 9t7.5 -12t2 -19.5t-2.5 -13.5q-10 -16 -28.5 -43.5t-42.5 -60.5t-51.5 -67.5t-56 -63.5t-56 -48t-50.5 -22h-6q-8 0 -28 3t-41 11.5t-36 24.5t-13 43q1 7 2.5 15t4.5 19q-18 -23 -35.5 -43.5t-33.5 -36.5t-29.5 -25.5t-22.5 -9.5q-20 0 -46 9
t-48.5 25.5t-37 39.5t-12.5 51q2 19 14.5 54t31.5 77t43 85t49 78.5t49 58t44 22.5q27 0 50 -8.5t42.5 -21.5t35 -28.5t26.5 -29.5q20 47 22 62q1 18 19 17t38 -13t36 -29.5t15 -32.5q-1 -13 -15 -53.5t-33 -91.5t-38.5 -103t-31.5 -87q-8 -26 5 -26q11 0 28.5 14.5
t39.5 38.5t46.5 54t48 62t45 62t37.5 54zM60 61q9 0 24.5 15t35 39.5t40.5 54.5t41 60t37 57t28 45q5 14 10.5 26.5t10.5 24.5q-12 6 -27.5 11t-35.5 5q-14 0 -35 -25t-43 -62.5t-42 -81.5t-33.5 -81.5t-17.5 -62.5t7 -25zM267 568q-18 0 -46 10.5t-55 24.5t-46.5 29.5
t-19.5 26.5q0 9 5 20t13 20t17.5 15t17.5 6q5 0 24 -16.5t43 -36.5t47.5 -36.5t38.5 -16.5q7 0 8.5 -7t-3 -16t-15.5 -16t-29 -7z" />
    <glyph glyph-name="aacute" unicode="&#xe1;" horiz-adv-x="561" 
d="M561 340q8 12 13 9t7.5 -12t2 -19.5t-2.5 -13.5q-10 -16 -28.5 -43.5t-42.5 -60.5t-51.5 -67.5t-56 -63.5t-56 -48t-50.5 -22h-6q-8 0 -28 3t-41 11.5t-36 24.5t-13 43q1 7 2.5 15t4.5 19q-18 -23 -35.5 -43.5t-33.5 -36.5t-29.5 -25.5t-22.5 -9.5q-20 0 -46 9
t-48.5 25.5t-37 39.5t-12.5 51q2 19 14.5 54t31.5 77t43 85t49 78.5t49 58t44 22.5q27 0 50 -8.5t42.5 -21.5t35 -28.5t26.5 -29.5q20 47 22 62q1 18 19 17t38 -13t36 -29.5t15 -32.5q-1 -13 -15 -53.5t-33 -91.5t-38.5 -103t-31.5 -87q-8 -26 5 -26q11 0 28.5 14.5
t39.5 38.5t46.5 54t48 62t45 62t37.5 54zM60 61q9 0 24.5 15t35 39.5t40.5 54.5t41 60t37 57t28 45q5 14 10.5 26.5t10.5 24.5q-12 6 -27.5 11t-35.5 5q-14 0 -35 -25t-43 -62.5t-42 -81.5t-33.5 -81.5t-17.5 -62.5t7 -25zM138 584q14 0 38 17t47.5 37t43 37t24.5 17
q8 0 17.5 -6t17 -15.5t12.5 -20.5t5 -21q0 -11 -19.5 -26t-46 -29t-55 -24t-46.5 -10q-17 0 -28 7t-15.5 15t-3.5 15t9 7z" />
    <glyph glyph-name="acircumflex" unicode="&#xe2;" horiz-adv-x="561" 
d="M561 340q8 12 13 9t7.5 -12t2 -19.5t-2.5 -13.5q-10 -16 -28.5 -43.5t-42.5 -60.5t-51.5 -67.5t-56 -63.5t-56 -48t-50.5 -22h-6q-8 0 -28 3t-41 11.5t-36 24.5t-13 43q1 7 2.5 15t4.5 19q-18 -23 -35.5 -43.5t-33.5 -36.5t-29.5 -25.5t-22.5 -9.5q-20 0 -46 9
t-48.5 25.5t-37 39.5t-12.5 51q2 19 14.5 54t31.5 77t43 85t49 78.5t49 58t44 22.5q27 0 50 -8.5t42.5 -21.5t35 -28.5t26.5 -29.5q20 47 22 62q1 18 19 17t38 -13t36 -29.5t15 -32.5q-1 -13 -15 -53.5t-33 -91.5t-38.5 -103t-31.5 -87q-8 -26 5 -26q11 0 28.5 14.5
t39.5 38.5t46.5 54t48 62t45 62t37.5 54zM60 61q9 0 24.5 15t35 39.5t40.5 54.5t41 60t37 57t28 45q5 14 10.5 26.5t10.5 24.5q-12 6 -27.5 11t-35.5 5q-14 0 -35 -25t-43 -62.5t-42 -81.5t-33.5 -81.5t-17.5 -62.5t7 -25zM174 562q-9 0 -13 3t-6 7t0 11q0 6 9.5 17t24 24.5
t32 27.5t34.5 25.5t30.5 19t20.5 7.5t17 -12t20.5 -30.5t19.5 -39.5t14 -39.5t3.5 -30.5t-11.5 -12q-15 0 -28 12.5t-24 27t-19.5 27t-14.5 12.5t-20 -9t-30.5 -19.5t-33 -19.5t-25.5 -9z" />
    <glyph glyph-name="atilde" unicode="&#xe3;" horiz-adv-x="561" 
d="M561 340q8 12 13 9t7.5 -12t2 -19.5t-2.5 -13.5q-10 -16 -28.5 -43.5t-42.5 -60.5t-51.5 -67.5t-56 -63.5t-56 -48t-50.5 -22h-6q-8 0 -28 3t-41 11.5t-36 24.5t-13 43q1 7 2.5 15t4.5 19q-18 -23 -35.5 -43.5t-33.5 -36.5t-29.5 -25.5t-22.5 -9.5q-20 0 -46 9
t-48.5 25.5t-37 39.5t-12.5 51q2 19 14.5 54t31.5 77t43 85t49 78.5t49 58t44 22.5q27 0 50 -8.5t42.5 -21.5t35 -28.5t26.5 -29.5q20 47 22 62q1 18 19 17t38 -13t36 -29.5t15 -32.5q-1 -13 -15 -53.5t-33 -91.5t-38.5 -103t-31.5 -87q-8 -26 5 -26q11 0 28.5 14.5
t39.5 38.5t46.5 54t48 62t45 62t37.5 54zM60 61q9 0 24.5 15t35 39.5t40.5 54.5t41 60t37 57t28 45q5 14 10.5 26.5t10.5 24.5q-12 6 -27.5 11t-35.5 5q-14 0 -35 -25t-43 -62.5t-42 -81.5t-33.5 -81.5t-17.5 -62.5t7 -25zM162 593q-15 0 -18 17.5t5 39t26 39t45 17.5
q19 0 34 -6t28 -12.5t23.5 -12.5t21.5 -6q10 0 18.5 4.5t15.5 10t13.5 10t12.5 4.5q19 0 23.5 -18t-4.5 -39t-30 -39t-52 -18q-16 0 -30 6t-26.5 13t-24.5 13t-24 6t-20 -4.5t-14.5 -10t-12 -10t-10.5 -4.5z" />
    <glyph glyph-name="adieresis" unicode="&#xe4;" horiz-adv-x="561" 
d="M561 340q8 12 13 9t7.5 -12t2 -19.5t-2.5 -13.5q-10 -16 -28.5 -43.5t-42.5 -60.5t-51.5 -67.5t-56 -63.5t-56 -48t-50.5 -22h-6q-8 0 -28 3t-41 11.5t-36 24.5t-13 43q1 7 2.5 15t4.5 19q-18 -23 -35.5 -43.5t-33.5 -36.5t-29.5 -25.5t-22.5 -9.5q-20 0 -46 9
t-48.5 25.5t-37 39.5t-12.5 51q2 19 14.5 54t31.5 77t43 85t49 78.5t49 58t44 22.5q27 0 50 -8.5t42.5 -21.5t35 -28.5t26.5 -29.5q20 47 22 62q1 18 19 17t38 -13t36 -29.5t15 -32.5q-1 -13 -15 -53.5t-33 -91.5t-38.5 -103t-31.5 -87q-8 -26 5 -26q11 0 28.5 14.5
t39.5 38.5t46.5 54t48 62t45 62t37.5 54zM60 61q9 0 24.5 15t35 39.5t40.5 54.5t41 60t37 57t28 45q5 14 10.5 26.5t10.5 24.5q-12 6 -27.5 11t-35.5 5q-14 0 -35 -25t-43 -62.5t-42 -81.5t-33.5 -81.5t-17.5 -62.5t7 -25zM192 581q-11 0 -22.5 3.5t-20.5 9.5t-14 14.5
t-3 18.5q1 14 9.5 28.5t21.5 26.5t28 20t29 8q21 0 33.5 -11.5t10.5 -34.5q-1 -12 -7 -26t-15.5 -27t-22.5 -21.5t-27 -8.5zM359 571q-12 0 -23.5 3.5t-20.5 9.5t-14.5 14t-4.5 17q1 15 10.5 30t22.5 27t28.5 20t29.5 8q21 0 33.5 -11.5t10.5 -34.5q-1 -12 -7 -26t-15.5 -27
t-22.5 -21.5t-27 -8.5z" />
    <glyph glyph-name="aring" unicode="&#xe5;" horiz-adv-x="561" 
d="M561 340q8 12 13 9t7.5 -12t2 -19.5t-2.5 -13.5q-10 -16 -28.5 -43.5t-42.5 -60.5t-51.5 -67.5t-56 -63.5t-56 -48t-50.5 -22h-6q-8 0 -28 3t-41 11.5t-36 24.5t-13 43q1 7 2.5 15t4.5 19q-18 -23 -35.5 -43.5t-33.5 -36.5t-29.5 -25.5t-22.5 -9.5q-20 0 -46 9
t-48.5 25.5t-37 39.5t-12.5 51q2 19 14.5 54t31.5 77t43 85t49 78.5t49 58t44 22.5q27 0 50 -8.5t42.5 -21.5t35 -28.5t26.5 -29.5q20 47 22 62q1 18 19 17t38 -13t36 -29.5t15 -32.5q-1 -13 -15 -53.5t-33 -91.5t-38.5 -103t-31.5 -87q-8 -26 5 -26q11 0 28.5 14.5
t39.5 38.5t46.5 54t48 62t45 62t37.5 54zM60 61q9 0 24.5 15t35 39.5t40.5 54.5t41 60t37 57t28 45q5 14 10.5 26.5t10.5 24.5q-12 6 -27.5 11t-35.5 5q-14 0 -35 -25t-43 -62.5t-42 -81.5t-33.5 -81.5t-17.5 -62.5t7 -25zM261 604q-8 0 -20 4t-23.5 13t-20.5 22.5t-11 33.5
q-3 19 6 44t24.5 47t35 37.5t37.5 15.5q16 0 31 -6.5t26.5 -17.5t19 -24.5t9.5 -26.5q3 -23 -3 -48t-21 -46t-37.5 -34.5t-52.5 -13.5zM312 771q-11 0 -24.5 -14.5t-26 -34t-20.5 -40t-7 -33.5q0 -13 7 -13q19 0 34.5 12t27 29.5t17 37.5t3.5 37q-3 19 -11 19z" />
    <glyph glyph-name="ae" unicode="&#xe6;" horiz-adv-x="690" 
d="M691 345q7 9 12 6.5t7.5 -9.5t2.5 -15.5t-2 -11.5q-11 -15 -32.5 -44.5t-51 -64.5t-64.5 -72.5t-72.5 -67.5t-75.5 -49.5t-73 -19.5q-24 0 -50 12t-48.5 30t-39 39.5t-19.5 40.5q-18 -23 -35.5 -45t-34 -39t-30.5 -27t-23 -10q-20 0 -46 9t-49 25.5t-38.5 39.5t-13.5 52
q1 19 12.5 54t29.5 77t41 85.5t47 79t47.5 58t43.5 22.5q27 0 50.5 -8.5t43.5 -21t36 -28t28 -29.5q8 23 13.5 38.5t5.5 23.5q2 19 20 17t40 -15q34 23 62 23t54.5 -15.5t46 -38t30.5 -48.5t10 -47q-2 -21 -18.5 -51.5t-42.5 -59t-59 -48.5t-67 -20q-20 0 -36 3t-28 8
q-10 -27 -15.5 -50.5t-5 -41t7 -28t20.5 -10.5q31 0 65 15.5t68 41t67 57.5t62.5 64.5t54 62t42.5 51.5zM478 425q-11 0 -25 -13t-30 -35.5t-32.5 -51.5t-31.5 -60q39 9 67.5 35t45 54t19 49.5t-12.5 21.5zM62 59q9 0 25.5 17t37 44t42 59.5t41.5 64.5q13 38 31.5 73.5
t41.5 66.5q-13 6 -28.5 11t-34.5 5q-14 0 -34.5 -25.5t-41.5 -63t-40.5 -82t-32 -82t-15.5 -63t8 -25.5z" />
    <glyph glyph-name="ccedilla" unicode="&#xe7;" horiz-adv-x="408" 
d="M-20 -4q24 0 42 -18t18 -37q0 -9 -11.5 -29t-28.5 -40t-37.5 -35.5t-39.5 -15.5q-14 0 -21 3t-9 8t1 11t8 11q23 23 35.5 48t19 46t11 34.5t12.5 13.5zM305 369q-5 -5 -12 1t-18.5 15.5t-29 18t-43.5 8.5q-9 0 -21.5 -15.5t-26.5 -41t-28 -58t-26 -66t-20 -66.5t-10 -58
q-2 -17 0.5 -27.5t7.5 -16t12 -7t14 -1.5q17 0 41.5 15.5t51.5 40t56.5 56t57 63.5t52 61.5t43.5 51.5q7 9 12 6.5t8 -9.5t4 -15t-1 -11q-11 -16 -32.5 -45t-51 -64t-64 -71.5t-72 -66.5t-75 -49t-72.5 -19q-36 0 -63.5 13t-45.5 32.5t-27 41t-7 39.5q2 23 13.5 60
t29.5 78.5t41.5 83.5t50 76t54 55t53.5 21q54 0 85 -18.5t46 -41.5t16.5 -44t-3.5 -26z" />
    <glyph glyph-name="egrave" unicode="&#xe8;" horiz-adv-x="442" 
d="M441 345q7 9 12 6.5t7.5 -9.5t3 -15t-1.5 -11q-11 -15 -33.5 -44.5t-53 -65t-67 -72t-75 -67t-77 -49.5t-72.5 -19q-25 0 -52.5 13.5t-50.5 34t-37.5 43.5t-12.5 41q4 45 18.5 90t36 85.5t47.5 76t53.5 61t54.5 40.5t49 15q28 0 54 -15t44.5 -37.5t29 -48.5t9.5 -47
q-2 -21 -19.5 -51.5t-44.5 -58t-60 -47.5t-67 -20q-20 0 -35.5 2.5t-28.5 7.5q-10 -27 -16 -50.5t-6.5 -41t6 -28t20.5 -10.5q31 0 65 15.5t68.5 40.5t68 57t63.5 64.5t55.5 62t44.5 51.5zM231 425q-11 0 -25.5 -13t-31 -35t-33.5 -51t-33 -60q39 9 68.5 35t47 53.5t20 49
t-12.5 21.5zM275 568q-18 0 -46 10.5t-55 24.5t-46.5 29.5t-19.5 26.5q0 9 5 20t13 20t17.5 15t17.5 6q5 0 24 -16.5t43 -36.5t47.5 -36.5t38.5 -16.5q7 0 8.5 -7t-3 -16t-15.5 -16t-29 -7z" />
    <glyph glyph-name="eacute" unicode="&#xe9;" horiz-adv-x="442" 
d="M441 345q-19 -22 -44.5 -51.5t-55.5 -62t-63.5 -64.5t-68 -57t-68.5 -40.5t-65 -15.5q-14 0 -20.5 10.5t-6 28t6.5 41t16 50.5q13 -5 28.5 -7.5t35.5 -2.5q34 0 67 20t60 47.5t44.5 58t19.5 51.5q1 21 -9.5 47t-29 48.5t-44.5 37.5t-54 15q-22 0 -49 -15t-54.5 -40.5
t-53.5 -61t-47.5 -76t-36 -85.5t-18.5 -90q-2 -18 12.5 -41t37.5 -43.5t50.5 -34t52.5 -13.5q34 0 72.5 19t77 49.5t75 67t67 72t53 65t33.5 44.5q2 3 1.5 11t-3 15t-7.5 9.5t-12 -6.5zM231 425q15 0 12.5 -21.5t-20 -49t-47 -53.5t-68.5 -35q16 31 33 60t33.5 51t31 35
t25.5 13zM129 584q14 0 38 17t47.5 37t43 37t24.5 17q8 0 17.5 -6t17 -15.5t12.5 -20.5t5 -21q0 -11 -19.5 -26t-46 -29t-55 -24t-46.5 -10q-17 0 -28 7t-15.5 15t-3.5 15t9 7z" />
    <glyph glyph-name="ecircumflex" unicode="&#xea;" horiz-adv-x="442" 
d="M441 345q7 9 12 6.5t7.5 -9.5t3 -15t-1.5 -11q-11 -15 -33.5 -44.5t-53 -65t-67 -72t-75 -67t-77 -49.5t-72.5 -19q-25 0 -52.5 13.5t-50.5 34t-37.5 43.5t-12.5 41q4 45 18.5 90t36 85.5t47.5 76t53.5 61t54.5 40.5t49 15q28 0 54 -15t44.5 -37.5t29 -48.5t9.5 -47
q-2 -21 -19.5 -51.5t-44.5 -58t-60 -47.5t-67 -20q-20 0 -35.5 2.5t-28.5 7.5q-10 -27 -16 -50.5t-6.5 -41t6 -28t20.5 -10.5q31 0 65 15.5t68.5 40.5t68 57t63.5 64.5t55.5 62t44.5 51.5zM231 425q-11 0 -25.5 -13t-31 -35t-33.5 -51t-33 -60q39 9 68.5 35t47 53.5t20 49
t-12.5 21.5zM115 562q-9 0 -13 3t-6 7t0 11q0 6 9.5 17t24 24.5t32 27.5t34.5 25.5t30.5 19t20.5 7.5t17 -12t20.5 -30.5t19.5 -39.5t14 -39.5t3.5 -30.5t-11.5 -12q-15 0 -28 12.5t-24 27t-19.5 27t-14.5 12.5t-20 -9t-30.5 -19.5t-33 -19.5t-25.5 -9z" />
    <glyph glyph-name="edieresis" unicode="&#xeb;" horiz-adv-x="442" 
d="M441 345q7 9 12 6.5t7.5 -9.5t3 -15t-1.5 -11q-11 -15 -33.5 -44.5t-53 -65t-67 -72t-75 -67t-77 -49.5t-72.5 -19q-25 0 -52.5 13.5t-50.5 34t-37.5 43.5t-12.5 41q4 45 18.5 90t36 85.5t47.5 76t53.5 61t54.5 40.5t49 15q28 0 54 -15t44.5 -37.5t29 -48.5t9.5 -47
q-2 -21 -19.5 -51.5t-44.5 -58t-60 -47.5t-67 -20q-20 0 -35.5 2.5t-28.5 7.5q-10 -27 -16 -50.5t-6.5 -41t6 -28t20.5 -10.5q31 0 65 15.5t68.5 40.5t68 57t63.5 64.5t55.5 62t44.5 51.5zM231 425q-11 0 -25.5 -13t-31 -35t-33.5 -51t-33 -60q39 9 68.5 35t47 53.5t20 49
t-12.5 21.5zM133 581q-11 0 -22.5 3.5t-20.5 9.5t-14 14.5t-3 18.5q1 14 9.5 28.5t21.5 26.5t28 20t29 8q21 0 33.5 -11.5t10.5 -34.5q-1 -12 -7 -26t-15.5 -27t-22.5 -21.5t-27 -8.5zM300 571q-12 0 -23.5 3.5t-20.5 9.5t-14.5 14t-4.5 17q1 15 10.5 30t22.5 27t28.5 20
t29.5 8q21 0 33.5 -11.5t10.5 -34.5q-1 -12 -7 -26t-15.5 -27t-22.5 -21.5t-27 -8.5z" />
    <glyph glyph-name="igrave" unicode="&#xec;" horiz-adv-x="294" 
d="M298 340q8 12 12.5 9t6 -12t0.5 -19.5t-3 -13.5q-10 -16 -28 -43.5t-42 -60.5t-51.5 -67.5t-56 -63.5t-55.5 -48t-50 -22h-6q-8 0 -28 3t-41 11.5t-36 24.5t-13 43q1 18 12.5 51t28 73.5t35 83.5t34.5 81t27 66t12 38q1 18 19 17t38 -13t36.5 -29.5t15.5 -32.5
q-1 -9 -8 -30.5t-17.5 -51t-23.5 -64t-26 -68.5t-24.5 -65.5t-19.5 -54.5q-8 -27 5 -27q11 0 29 14.5t40 38.5t46.5 54t48 62t45.5 62t38 54zM201 568q-18 0 -46 10.5t-55 24.5t-46.5 29.5t-19.5 26.5q0 9 5 20t13 20t17.5 15t17.5 6q5 0 24 -16.5t43 -36.5t47.5 -36.5
t38.5 -16.5q7 0 8.5 -7t-3 -16t-15.5 -16t-29 -7z" />
    <glyph glyph-name="iacute" unicode="&#xed;" horiz-adv-x="294" 
d="M298 340q8 12 12.5 9t6 -12t0.5 -19.5t-3 -13.5q-10 -16 -28 -43.5t-42 -60.5t-51.5 -67.5t-56 -63.5t-55.5 -48t-50 -22h-6q-8 0 -28 3t-41 11.5t-36 24.5t-13 43q1 18 12.5 51t28 73.5t35 83.5t34.5 81t27 66t12 38q1 18 19 17t38 -13t36.5 -29.5t15.5 -32.5
q-1 -9 -8 -30.5t-17.5 -51t-23.5 -64t-26 -68.5t-24.5 -65.5t-19.5 -54.5q-8 -27 5 -27q11 0 29 14.5t40 38.5t46.5 54t48 62t45.5 62t38 54zM55 584q14 0 38 17t47.5 37t43 37t24.5 17q8 0 17.5 -6t17 -15.5t12.5 -20.5t5 -21q0 -11 -19.5 -26t-46 -29t-55 -24t-46.5 -10
q-17 0 -28 7t-15.5 15t-3.5 15t9 7z" />
    <glyph glyph-name="icircumflex" unicode="&#xee;" horiz-adv-x="294" 
d="M298 340q8 12 12.5 9t6 -12t0.5 -19.5t-3 -13.5q-10 -16 -28 -43.5t-42 -60.5t-51.5 -67.5t-56 -63.5t-55.5 -48t-50 -22h-6q-8 0 -28 3t-41 11.5t-36 24.5t-13 43q1 18 12.5 51t28 73.5t35 83.5t34.5 81t27 66t12 38q1 18 19 17t38 -13t36.5 -29.5t15.5 -32.5
q-1 -9 -8 -30.5t-17.5 -51t-23.5 -64t-26 -68.5t-24.5 -65.5t-19.5 -54.5q-8 -27 5 -27q11 0 29 14.5t40 38.5t46.5 54t48 62t45.5 62t38 54zM41 562q-9 0 -13 3t-6 7t0 11q0 6 9.5 17t24 24.5t32 27.5t34.5 25.5t30.5 19t20.5 7.5t17 -12t20.5 -30.5t19.5 -39.5t14 -39.5
t3.5 -30.5t-11.5 -12q-15 0 -28 12.5t-24 27t-19.5 27t-14.5 12.5t-20 -9t-30.5 -19.5t-33 -19.5t-25.5 -9z" />
    <glyph glyph-name="idieresis" unicode="&#xef;" horiz-adv-x="294" 
d="M298 340q8 12 12.5 9t6 -12t0.5 -19.5t-3 -13.5q-10 -16 -28 -43.5t-42 -60.5t-51.5 -67.5t-56 -63.5t-55.5 -48t-50 -22h-6q-8 0 -28 3t-41 11.5t-36 24.5t-13 43q1 18 12.5 51t28 73.5t35 83.5t34.5 81t27 66t12 38q1 18 19 17t38 -13t36.5 -29.5t15.5 -32.5
q-1 -9 -8 -30.5t-17.5 -51t-23.5 -64t-26 -68.5t-24.5 -65.5t-19.5 -54.5q-8 -27 5 -27q11 0 29 14.5t40 38.5t46.5 54t48 62t45.5 62t38 54zM59 581q-11 0 -22.5 3.5t-20.5 9.5t-14 14.5t-3 18.5q1 14 9.5 28.5t21.5 26.5t28 20t29 8q21 0 33.5 -11.5t10.5 -34.5
q-1 -12 -7 -26t-15.5 -27t-22.5 -21.5t-27 -8.5zM226 571q-12 0 -23.5 3.5t-20.5 9.5t-14.5 14t-4.5 17q1 15 10.5 30t22.5 27t28.5 20t29.5 8q21 0 33.5 -11.5t10.5 -34.5q-1 -12 -7 -26t-15.5 -27t-22.5 -21.5t-27 -8.5z" />
    <glyph glyph-name="ntilde" unicode="&#xf1;" horiz-adv-x="564" 
d="M571 338q8 12 13 9t7.5 -12t2 -19.5t-2.5 -13.5q-10 -15 -28.5 -43t-43 -61.5t-52.5 -69t-56.5 -65t-56.5 -50t-51 -24.5q-8 -3 -27 2t-37.5 17t-32 31t-11.5 44q1 19 14 54t30.5 77t37.5 87.5t36 86.5q-19 -20 -45.5 -50t-56 -64t-59.5 -69.5t-56 -67.5t-44.5 -58
t-25.5 -41q-1 -13 1 -21t-5 -14q-6 -5 -25 -1t-39 16t-35 31.5t-13 46.5q1 18 12 48t27 66t34 76t33.5 77t26.5 68.5t13 51.5q1 18 19 17t38.5 -13t36.5 -29.5t15 -32.5q-1 -9 -8.5 -32.5t-19.5 -55t-26.5 -68.5t-28.5 -73q14 19 35.5 46.5t46 59t51.5 64t52 60.5t46.5 48.5
t36.5 28.5q2 2 8 4q2 1 5 1q6 0 8 -1q12 -2 27 -10t27.5 -19t20.5 -23t7 -23q-1 -9 -8.5 -32t-19 -55.5t-26 -70t-28.5 -75t-27 -71.5t-21 -58q-6 -22 6 -22q16 0 46.5 32t66 77.5t70 95t59.5 85.5zM164 593q-15 0 -18 17.5t5 39t26 39t45 17.5q19 0 34 -6t28 -12.5
t23.5 -12.5t21.5 -6q10 0 18.5 4.5t15.5 10t13.5 10t12.5 4.5q19 0 23.5 -18t-4.5 -39t-30 -39t-52 -18q-16 0 -30 6t-26.5 13t-24.5 13t-24 6t-20 -4.5t-14.5 -10t-12 -10t-10.5 -4.5z" />
    <glyph glyph-name="ograve" unicode="&#xf2;" horiz-adv-x="480" 
d="M484 344q7 11 12 8t7 -11t1.5 -18t-3.5 -13q-17 -23 -43.5 -58t-62 -68.5t-78.5 -60.5t-92 -33q-35 -43 -76 -71t-84 -28q-36 0 -63.5 16t-46.5 40t-28 51.5t-7 50.5q1 17 9.5 38.5t21 44.5t27 46t29.5 42q9 38 30 73t49.5 61.5t60.5 42t62 15.5q33 0 58 -17t41.5 -43
t24 -57t4.5 -58q-3 -38 -22 -88t-49 -100q29 10 59.5 31t59 48t54 57t45.5 59zM205 471q-17 0 -35 -7.5t-36 -20t-34.5 -30t-29.5 -38.5q11 -1 27.5 -6.5t32.5 -14t26.5 -20t9.5 -24.5q-1 -7 -8 -19.5t-17.5 -29t-24 -35.5t-26.5 -38q30 -23 66 -35q16 26 30.5 55.5t25 57.5
t17.5 52.5t9 42.5q5 60 -1 85t-32 25zM43 56q20 0 39.5 13.5t38.5 35.5q-35 15 -61 40q-11 -18 -19.5 -34.5t-12 -28.5t-0.5 -19t15 -7zM294 568q-18 0 -46 10.5t-55 24.5t-46.5 29.5t-19.5 26.5q0 9 5 20t13 20t17.5 15t17.5 6q5 0 24 -16.5t43 -36.5t47.5 -36.5
t38.5 -16.5q7 0 8.5 -7t-3 -16t-15.5 -16t-29 -7z" />
    <glyph glyph-name="oacute" unicode="&#xf3;" horiz-adv-x="480" 
d="M484 344q7 11 12 8t7 -11t1.5 -18t-3.5 -13q-17 -23 -43.5 -58t-62 -68.5t-78.5 -60.5t-92 -33q-35 -43 -76 -71t-84 -28q-36 0 -63.5 16t-46.5 40t-28 51.5t-7 50.5q1 17 9.5 38.5t21 44.5t27 46t29.5 42q9 38 30 73t49.5 61.5t60.5 42t62 15.5q33 0 58 -17t41.5 -43
t24 -57t4.5 -58q-3 -38 -22 -88t-49 -100q29 10 59.5 31t59 48t54 57t45.5 59zM205 471q-17 0 -35 -7.5t-36 -20t-34.5 -30t-29.5 -38.5q11 -1 27.5 -6.5t32.5 -14t26.5 -20t9.5 -24.5q-1 -7 -8 -19.5t-17.5 -29t-24 -35.5t-26.5 -38q30 -23 66 -35q16 26 30.5 55.5t25 57.5
t17.5 52.5t9 42.5q5 60 -1 85t-32 25zM43 56q20 0 39.5 13.5t38.5 35.5q-35 15 -61 40q-11 -18 -19.5 -34.5t-12 -28.5t-0.5 -19t15 -7zM147 584q14 0 38 17t47.5 37t43 37t24.5 17q8 0 17.5 -6t17 -15.5t12.5 -20.5t5 -21q0 -11 -19.5 -26t-46 -29t-55 -24t-46.5 -10
q-17 0 -28 7t-15.5 15t-3.5 15t9 7z" />
    <glyph glyph-name="ocircumflex" unicode="&#xf4;" horiz-adv-x="480" 
d="M484 344q7 11 12 8t7 -11t1.5 -18t-3.5 -13q-17 -23 -43.5 -58t-62 -68.5t-78.5 -60.5t-92 -33q-35 -43 -76 -71t-84 -28q-36 0 -63.5 16t-46.5 40t-28 51.5t-7 50.5q1 17 9.5 38.5t21 44.5t27 46t29.5 42q9 38 30 73t49.5 61.5t60.5 42t62 15.5q33 0 58 -17t41.5 -43
t24 -57t4.5 -58q-3 -38 -22 -88t-49 -100q29 10 59.5 31t59 48t54 57t45.5 59zM205 471q-17 0 -35 -7.5t-36 -20t-34.5 -30t-29.5 -38.5q11 -1 27.5 -6.5t32.5 -14t26.5 -20t9.5 -24.5q-1 -7 -8 -19.5t-17.5 -29t-24 -35.5t-26.5 -38q30 -23 66 -35q16 26 30.5 55.5t25 57.5
t17.5 52.5t9 42.5q5 60 -1 85t-32 25zM43 56q20 0 39.5 13.5t38.5 35.5q-35 15 -61 40q-11 -18 -19.5 -34.5t-12 -28.5t-0.5 -19t15 -7zM134 562q-9 0 -13 3t-6 7t0 11q0 6 9.5 17t24 24.5t32 27.5t34.5 25.5t30.5 19t20.5 7.5t17 -12t20.5 -30.5t19.5 -39.5t14 -39.5
t3.5 -30.5t-11.5 -12q-15 0 -28 12.5t-24 27t-19.5 27t-14.5 12.5t-20 -9t-30.5 -19.5t-33 -19.5t-25.5 -9z" />
    <glyph glyph-name="otilde" unicode="&#xf5;" horiz-adv-x="480" 
d="M484 344q7 11 12 8t7 -11t1.5 -18t-3.5 -13q-17 -23 -43.5 -58t-62 -68.5t-78.5 -60.5t-92 -33q-35 -43 -76 -71t-84 -28q-36 0 -63.5 16t-46.5 40t-28 51.5t-7 50.5q1 17 9.5 38.5t21 44.5t27 46t29.5 42q9 38 30 73t49.5 61.5t60.5 42t62 15.5q33 0 58 -17t41.5 -43
t24 -57t4.5 -58q-3 -38 -22 -88t-49 -100q29 10 59.5 31t59 48t54 57t45.5 59zM205 471q-17 0 -35 -7.5t-36 -20t-34.5 -30t-29.5 -38.5q11 -1 27.5 -6.5t32.5 -14t26.5 -20t9.5 -24.5q-1 -7 -8 -19.5t-17.5 -29t-24 -35.5t-26.5 -38q30 -23 66 -35q16 26 30.5 55.5t25 57.5
t17.5 52.5t9 42.5q5 60 -1 85t-32 25zM43 56q20 0 39.5 13.5t38.5 35.5q-35 15 -61 40q-11 -18 -19.5 -34.5t-12 -28.5t-0.5 -19t15 -7zM122 593q-15 0 -18 17.5t5 39t26 39t45 17.5q19 0 34 -6t28 -12.5t23.5 -12.5t21.5 -6q10 0 18.5 4.5t15.5 10t13.5 10t12.5 4.5
q19 0 23.5 -18t-4.5 -39t-30 -39t-52 -18q-16 0 -30 6t-26.5 13t-24.5 13t-24 6t-20 -4.5t-14.5 -10t-12 -10t-10.5 -4.5z" />
    <glyph glyph-name="odieresis" unicode="&#xf6;" horiz-adv-x="480" 
d="M484 344q7 11 12 8t7 -11t1.5 -18t-3.5 -13q-17 -23 -43.5 -58t-62 -68.5t-78.5 -60.5t-92 -33q-35 -43 -76 -71t-84 -28q-36 0 -63.5 16t-46.5 40t-28 51.5t-7 50.5q1 17 9.5 38.5t21 44.5t27 46t29.5 42q9 38 30 73t49.5 61.5t60.5 42t62 15.5q33 0 58 -17t41.5 -43
t24 -57t4.5 -58q-3 -38 -22 -88t-49 -100q29 10 59.5 31t59 48t54 57t45.5 59zM205 471q-17 0 -35 -7.5t-36 -20t-34.5 -30t-29.5 -38.5q11 -1 27.5 -6.5t32.5 -14t26.5 -20t9.5 -24.5q-1 -7 -8 -19.5t-17.5 -29t-24 -35.5t-26.5 -38q30 -23 66 -35q16 26 30.5 55.5t25 57.5
t17.5 52.5t9 42.5q5 60 -1 85t-32 25zM43 56q20 0 39.5 13.5t38.5 35.5q-35 15 -61 40q-11 -18 -19.5 -34.5t-12 -28.5t-0.5 -19t15 -7zM152 581q-11 0 -22.5 3.5t-20.5 9.5t-14 14.5t-3 18.5q1 14 9.5 28.5t21.5 26.5t28 20t29 8q21 0 33.5 -11.5t10.5 -34.5q-1 -12 -7 -26
t-15.5 -27t-22.5 -21.5t-27 -8.5zM319 571q-12 0 -23.5 3.5t-20.5 9.5t-14.5 14t-4.5 17q1 15 10.5 30t22.5 27t28.5 20t29.5 8q21 0 33.5 -11.5t10.5 -34.5q-1 -12 -7 -26t-15.5 -27t-22.5 -21.5t-27 -8.5z" />
    <glyph glyph-name="divide" unicode="&#xf7;" horiz-adv-x="548" 
d="M437 364q10 2 11 -12.5t-3.5 -33.5t-13.5 -35.5t-18 -19.5q-6 -2 -29.5 -1.5t-56.5 2t-70.5 3.5t-71 3t-58.5 0.5t-33 -3.5t-15.5 -3.5t-9.5 7.5q-2 6 -2 16.5t4 21.5t11.5 21t20.5 15q15 6 48.5 6h78t98 2t109.5 11zM221 221q23 0 37.5 -14t12.5 -39q-1 -12 -7.5 -28.5
t-17.5 -30.5t-26 -24t-32 -10q-25 0 -47 15t-20 36q1 16 11 32.5t24.5 30.5t31.5 23t33 9zM340 538q23 0 37.5 -14t12.5 -38q-1 -13 -8 -29t-18 -30.5t-25.5 -24.5t-31.5 -10q-12 0 -24.5 4t-22.5 11t-16 16.5t-5 19.5q1 16 11.5 32.5t25 30.5t31.5 23t33 9z" />
    <glyph glyph-name="oslash" unicode="&#xf8;" horiz-adv-x="480" 
d="M279 486q16 -13 28 -31t19.5 -38t10.5 -40.5t1 -39.5q-3 -28 -14.5 -64.5t-30.5 -75t-44 -75.5t-54.5 -66t-62 -47t-66.5 -18q-31 0 -55 12q-28 -49 -31 -61q-2 -8 -11 -4t-18.5 13.5t-16 22t-4.5 22.5q1 3 8 16t19 33q-20 25 -29 53t-7 51q1 17 9.5 38.5t21 44.5
t27 45.5t29.5 41.5q9 39 30 74t49.5 61.5t61 42t62.5 15.5q5 0 8 -1q18 42 17 55q-1 12 8 12t20 -7t21 -19.5t11 -26.5q0 -7 -17 -39zM71 375q11 -2 29.5 -7.5t34.5 -15.5q18 32 34.5 62t29.5 56q-32 -3 -68 -29.5t-60 -65.5zM239 361q2 16 2.5 29.5t-0.5 24.5
q-21 -39 -47 -85t-53 -94t-53 -94.5t-48 -85.5h4q22 0 44 17t43 44t40 60.5t33.5 67.5t23.5 64.5t11 51.5z" />
    <glyph glyph-name="ugrave" unicode="&#xf9;" horiz-adv-x="555" 
d="M559 341q8 12 13 9t7 -12t2 -19.5t-3 -14.5q-10 -15 -28.5 -43t-42 -61t-51.5 -68t-56 -64t-55.5 -49.5t-50.5 -24.5q-9 -3 -27.5 2t-37.5 17.5t-32 31.5t-11 44q0 8 3 19.5t8 25.5q-20 -25 -42 -49t-45.5 -43t-47.5 -30.5t-47 -11.5q-12 0 -30.5 7.5t-35 22t-27.5 35.5
t-9 48q2 18 12.5 46.5t26 63.5t32.5 72.5t32.5 72.5t26 65.5t12.5 50.5q2 18 20 17t38 -13t36 -29.5t15 -32.5q-1 -10 -13.5 -41t-30 -72t-37 -85.5t-34.5 -81.5t-21.5 -61.5t1.5 -24.5q21 0 52.5 24.5t66 62.5t68 85.5t59.5 92.5q23 54 40.5 99.5t19.5 71.5q1 18 19 17
t38 -13t36 -29.5t15 -32.5q-1 -9 -8.5 -32t-19 -55.5t-26 -70.5t-28.5 -75.5t-27 -71.5t-21 -58q-5 -22 7 -22q11 0 28 14.5t38 39t44.5 55t46.5 62.5t44 62.5t38 54.5zM282 568q-18 0 -46 10.5t-55 24.5t-46.5 29.5t-19.5 26.5q0 9 5 20t13 20t17.5 15t17.5 6q5 0 24 -16.5
t43 -36.5t47.5 -36.5t38.5 -16.5q7 0 8.5 -7t-3 -16t-15.5 -16t-29 -7z" />
    <glyph glyph-name="uacute" unicode="&#xfa;" horiz-adv-x="555" 
d="M559 341q8 12 13 9t7 -12t2 -19.5t-3 -14.5q-10 -15 -28.5 -43t-42 -61t-51.5 -68t-56 -64t-55.5 -49.5t-50.5 -24.5q-9 -3 -27.5 2t-37.5 17.5t-32 31.5t-11 44q0 8 3 19.5t8 25.5q-20 -25 -42 -49t-45.5 -43t-47.5 -30.5t-47 -11.5q-12 0 -30.5 7.5t-35 22t-27.5 35.5
t-9 48q2 18 12.5 46.5t26 63.5t32.5 72.5t32.5 72.5t26 65.5t12.5 50.5q2 18 20 17t38 -13t36 -29.5t15 -32.5q-1 -10 -13.5 -41t-30 -72t-37 -85.5t-34.5 -81.5t-21.5 -61.5t1.5 -24.5q21 0 52.5 24.5t66 62.5t68 85.5t59.5 92.5q23 54 40.5 99.5t19.5 71.5q1 18 19 17
t38 -13t36 -29.5t15 -32.5q-1 -9 -8.5 -32t-19 -55.5t-26 -70.5t-28.5 -75.5t-27 -71.5t-21 -58q-5 -22 7 -22q11 0 28 14.5t38 39t44.5 55t46.5 62.5t44 62.5t38 54.5zM185 584q14 0 38 17t47.5 37t43 37t24.5 17q8 0 17.5 -6t17 -15.5t12.5 -20.5t5 -21q0 -11 -19.5 -26
t-46 -29t-55 -24t-46.5 -10q-17 0 -28 7t-15.5 15t-3.5 15t9 7z" />
    <glyph glyph-name="ucircumflex" unicode="&#xfb;" horiz-adv-x="555" 
d="M559 341q8 12 13 9t7 -12t2 -19.5t-3 -14.5q-10 -15 -28.5 -43t-42 -61t-51.5 -68t-56 -64t-55.5 -49.5t-50.5 -24.5q-9 -3 -27.5 2t-37.5 17.5t-32 31.5t-11 44q0 8 3 19.5t8 25.5q-20 -25 -42 -49t-45.5 -43t-47.5 -30.5t-47 -11.5q-12 0 -30.5 7.5t-35 22t-27.5 35.5
t-9 48q2 18 12.5 46.5t26 63.5t32.5 72.5t32.5 72.5t26 65.5t12.5 50.5q2 18 20 17t38 -13t36 -29.5t15 -32.5q-1 -10 -13.5 -41t-30 -72t-37 -85.5t-34.5 -81.5t-21.5 -61.5t1.5 -24.5q21 0 52.5 24.5t66 62.5t68 85.5t59.5 92.5q23 54 40.5 99.5t19.5 71.5q1 18 19 17
t38 -13t36 -29.5t15 -32.5q-1 -9 -8.5 -32t-19 -55.5t-26 -70.5t-28.5 -75.5t-27 -71.5t-21 -58q-5 -22 7 -22q11 0 28 14.5t38 39t44.5 55t46.5 62.5t44 62.5t38 54.5zM152 562q-9 0 -13 3t-6 7t0 11q0 6 9.5 17t24 24.5t32 27.5t34.5 25.5t30.5 19t20.5 7.5t17 -12
t20.5 -30.5t19.5 -39.5t14 -39.5t3.5 -30.5t-11.5 -12q-15 0 -28 12.5t-24 27t-19.5 27t-14.5 12.5t-20 -9t-30.5 -19.5t-33 -19.5t-25.5 -9z" />
    <glyph glyph-name="udieresis" unicode="&#xfc;" horiz-adv-x="555" 
d="M559 341q8 12 13 9t7 -12t2 -19.5t-3 -14.5q-10 -15 -28.5 -43t-42 -61t-51.5 -68t-56 -64t-55.5 -49.5t-50.5 -24.5q-9 -3 -27.5 2t-37.5 17.5t-32 31.5t-11 44q0 8 3 19.5t8 25.5q-20 -25 -42 -49t-45.5 -43t-47.5 -30.5t-47 -11.5q-12 0 -30.5 7.5t-35 22t-27.5 35.5
t-9 48q2 18 12.5 46.5t26 63.5t32.5 72.5t32.5 72.5t26 65.5t12.5 50.5q2 18 20 17t38 -13t36 -29.5t15 -32.5q-1 -10 -13.5 -41t-30 -72t-37 -85.5t-34.5 -81.5t-21.5 -61.5t1.5 -24.5q21 0 52.5 24.5t66 62.5t68 85.5t59.5 92.5q23 54 40.5 99.5t19.5 71.5q1 18 19 17
t38 -13t36 -29.5t15 -32.5q-1 -9 -8.5 -32t-19 -55.5t-26 -70.5t-28.5 -75.5t-27 -71.5t-21 -58q-5 -22 7 -22q11 0 28 14.5t38 39t44.5 55t46.5 62.5t44 62.5t38 54.5zM189 581q-11 0 -22.5 3.5t-20.5 9.5t-14 14.5t-3 18.5q1 14 9.5 28.5t21.5 26.5t28 20t29 8
q21 0 33.5 -11.5t10.5 -34.5q-1 -12 -7 -26t-15.5 -27t-22.5 -21.5t-27 -8.5zM356 571q-12 0 -23.5 3.5t-20.5 9.5t-14.5 14t-4.5 17q1 15 10.5 30t22.5 27t28.5 20t29.5 8q21 0 33.5 -11.5t10.5 -34.5q-1 -12 -7 -26t-15.5 -27t-22.5 -21.5t-27 -8.5z" />
    <glyph glyph-name="yacute" unicode="&#xfd;" horiz-adv-x="551" 
d="M555 341q8 12 13 9t7.5 -12t2 -19.5t-2.5 -14.5q-4 -6 -22 -30t-45 -58.5t-60 -75t-65.5 -78.5t-62.5 -70.5t-51 -49.5q-2 -2 -4 -3t-4 -3q-34 -77 -71 -148.5t-76 -126.5t-78.5 -88t-76.5 -33q-32 0 -51.5 10.5t-30.5 26.5t-14.5 34t-1.5 32q1 19 20.5 42.5t51.5 50.5
t74 58t89 66q36 75 70.5 159.5t64.5 164.5q-20 -29 -45.5 -62t-54.5 -61t-60 -46.5t-61 -18.5q-12 0 -30 8t-34.5 22.5t-27.5 35.5t-9 48q1 18 12 47t26 64t32.5 73t32.5 73.5t25.5 66t12.5 50.5q1 18 19 17t38 -13t36 -29.5t15 -32.5q-1 -10 -13.5 -41.5t-30 -72.5
t-36.5 -86t-33.5 -83t-21 -62.5t1.5 -24.5q24 0 62 32.5t78.5 81t77 104.5t56.5 104q14 44 22 73.5t9 41.5q1 18 19 17t38.5 -13t36.5 -30t15 -33q-1 -7 -11.5 -43.5t-28.5 -92t-43.5 -125.5t-55.5 -145q22 24 48 54t52.5 62t52 63.5t46.5 58.5t35.5 47t20.5 28zM-79 -379
q26 0 60.5 43.5t72.5 113.5q-60 -45 -100 -79t-42 -57q-1 -15 2.5 -18t6.5 -3zM183 584q14 0 38 17t47.5 37t43 37t24.5 17q8 0 17.5 -6t17 -15.5t12.5 -20.5t5 -21q0 -11 -19.5 -26t-46 -29t-55 -24t-46.5 -10q-17 0 -28 7t-15.5 15t-3.5 15t9 7z" />
    <glyph glyph-name="ydieresis" unicode="&#xff;" horiz-adv-x="551" 
d="M555 341q8 12 13 9t7.5 -12t2 -19.5t-2.5 -14.5q-4 -6 -22 -30t-45 -58.5t-60 -75t-65.5 -78.5t-62.5 -70.5t-51 -49.5q-2 -2 -4 -3t-4 -3q-34 -77 -71 -148.5t-76 -126.5t-78.5 -88t-76.5 -33q-32 0 -51.5 10.5t-30.5 26.5t-14.5 34t-1.5 32q1 19 20.5 42.5t51.5 50.5
t74 58t89 66q36 75 70.5 159.5t64.5 164.5q-20 -29 -45.5 -62t-54.5 -61t-60 -46.5t-61 -18.5q-12 0 -30 8t-34.5 22.5t-27.5 35.5t-9 48q1 18 12 47t26 64t32.5 73t32.5 73.5t25.5 66t12.5 50.5q1 18 19 17t38 -13t36 -29.5t15 -32.5q-1 -10 -13.5 -41.5t-30 -72.5
t-36.5 -86t-33.5 -83t-21 -62.5t1.5 -24.5q24 0 62 32.5t78.5 81t77 104.5t56.5 104q14 44 22 73.5t9 41.5q1 18 19 17t38.5 -13t36.5 -30t15 -33q-1 -7 -11.5 -43.5t-28.5 -92t-43.5 -125.5t-55.5 -145q22 24 48 54t52.5 62t52 63.5t46.5 58.5t35.5 47t20.5 28zM-79 -379
q26 0 60.5 43.5t72.5 113.5q-60 -45 -100 -79t-42 -57q-1 -15 2.5 -18t6.5 -3zM169 581q-11 0 -22.5 3.5t-20.5 9.5t-14 14.5t-3 18.5q1 14 9.5 28.5t21.5 26.5t28 20t29 8q21 0 33.5 -11.5t10.5 -34.5q-1 -12 -7 -26t-15.5 -27t-22.5 -21.5t-27 -8.5zM336 571
q-12 0 -23.5 3.5t-20.5 9.5t-14.5 14t-4.5 17q1 15 10.5 30t22.5 27t28.5 20t29.5 8q21 0 33.5 -11.5t10.5 -34.5q-1 -12 -7 -26t-15.5 -27t-22.5 -21.5t-27 -8.5z" />
    <glyph glyph-name="dotlessi" unicode="&#x131;" horiz-adv-x="294" 
d="M298 340q8 12 12.5 9t6 -12t0.5 -19.5t-3 -13.5q-10 -16 -28 -43.5t-42 -60.5t-51.5 -67.5t-56 -63.5t-55.5 -48t-50 -22h-6q-8 0 -28 3t-41 11.5t-36 24.5t-13 43q1 18 12.5 51t28 73.5t35 83.5t34.5 81t27 66t12 38q1 18 19 17t38 -13t36.5 -29.5t15.5 -32.5
q-1 -9 -8 -30.5t-17.5 -51t-23.5 -64t-26 -68.5t-24.5 -65.5t-19.5 -54.5q-8 -27 5 -27q11 0 29 14.5t40 38.5t46.5 54t48 62t45.5 62t38 54z" />
    <glyph glyph-name="OE" unicode="&#x152;" horiz-adv-x="921" 
d="M921 289q0 7 5.5 6t11.5 -7t11.5 -15.5t5.5 -19.5q0 -19 -13 -48t-37 -62t-58.5 -66t-78 -60t-94 -43.5t-107.5 -16.5q-65 0 -110.5 18t-73.5 48q-42 -32 -86 -49t-89 -17q-57 0 -100.5 28t-72.5 72.5t-44 98.5t-15 105q0 91 20.5 161.5t50.5 118.5t63 72.5t59 24.5
q7 0 13 -3q22 37 48.5 69.5t56.5 57t63.5 38.5t69.5 14q39 0 78 -21t69 -55q45 35 93.5 54.5t88.5 19.5q30 0 57.5 -8t48.5 -23t33.5 -36t12.5 -47q0 -42 -13.5 -80t-34.5 -67.5t-46.5 -46.5t-50.5 -17q-8 0 -13.5 5t-8.5 10.5t-2 10.5t7 5q11 0 27.5 14t33 34.5t29 44.5
t14.5 44.5t-9.5 34.5t-43.5 14q-48 0 -93 -19.5t-79.5 -48.5t-55.5 -63t-21 -64q0 -32 19.5 -54.5t48.5 -35.5q30 8 64 12t71 4q45 0 63 -18.5t18 -41.5q0 -24 -12.5 -40t-21.5 -16q-5 0 -6.5 2t-4 5t-7 5t-13.5 2q-80 0 -140.5 -24t-101 -60t-59 -78t-13.5 -78t34.5 -60
t85.5 -24q54 0 101 18t86.5 45.5t70.5 61.5t52.5 65t33 55.5t11.5 34.5zM194 43q38 0 75.5 33t71.5 86q4 33 18 65.5t38 63t58 56.5t78 46q-40 24 -61 59.5t-21 82.5q0 35 12 67.5t33 61.5q-7 45 -25 66.5t-40 21.5q-19 0 -40.5 -19.5t-43.5 -52t-43 -74.5t-39 -86.5
t-32 -89t-21.5 -81t-8.5 -62.5t8 -35q7 -8 -1.5 -11.5t-24 -2t-35 9.5t-32.5 25q-11 -39 -11 -74q0 -74 23.5 -115t63.5 -41z" />
    <glyph glyph-name="oe" unicode="&#x153;" horiz-adv-x="682" 
d="M667 343q7 9 12.5 6.5t8.5 -9.5t3.5 -15t-1.5 -11q-11 -15 -33.5 -44.5t-53 -65t-67 -72.5t-75 -67.5t-77 -50t-73.5 -19.5q-31 0 -65.5 20.5t-58.5 47.5q-32 -34 -66.5 -55t-72.5 -21q-36 0 -64 16.5t-46.5 40.5t-28 51.5t-7.5 50.5q1 17 9 39t20 45t26.5 45.5
t28.5 42.5q9 39 30.5 74t50 61.5t60.5 42t62 15.5q39 0 67 -23.5t45 -56.5q30 32 59.5 49.5t54.5 17.5q29 0 55 -15.5t45 -38t29.5 -48t8.5 -46.5t-19 -52t-43.5 -59t-60 -48t-67.5 -20q-20 0 -35.5 2.5t-29.5 7.5q-9 -27 -15 -50.5t-6 -41t6 -28t20 -10.5q31 0 65 15.5
t68.5 41t68 57.5t63.5 64.5t55.5 62t43.5 51.5zM457 423q-11 0 -25.5 -13t-31 -35t-33.5 -51t-33 -60q39 9 68.5 34.5t47 53.5t20 49.5t-12.5 21.5zM185 470q-16 0 -34.5 -7.5t-36.5 -20t-34.5 -30.5t-29.5 -39q11 -1 28 -6t33 -13.5t26.5 -20t9.5 -25.5q-1 -7 -8 -19.5
t-17.5 -29t-24 -35.5t-26.5 -38q14 -12 31.5 -21t35.5 -15q22 36 39 75q10 30 24 60q15 43 18 74q5 60 -1 85.5t-33 25.5zM25 53q20 0 39.5 13t38.5 36q-17 8 -32 17.5t-29 22.5q-12 -18 -20.5 -34.5t-11.5 -28.5t0 -19t15 -7z" />
    <glyph glyph-name="Scaron" unicode="&#x160;" horiz-adv-x="512" 
d="M-84 190q0 -30 25.5 -48t63 -26t82 -7t82 10t63 24.5t25.5 36.5q0 23 -18 40t-45 33.5t-58.5 34.5t-58.5 42t-45 57t-18 80q0 46 16.5 93t44 90.5t64 81.5t76 66t79.5 44t75 16q45 0 78 -17t54.5 -42t32.5 -53.5t11 -50.5t-7.5 -51t-20 -60t-29.5 -60.5t-36 -52.5
t-39 -37.5t-39 -14.5q-24 0 -42.5 10.5t-29 22.5t-11 22.5t12.5 10.5q14 0 36.5 26.5t44 67t37 88t15.5 90.5q0 16 -9 24t-23 8q-21 0 -47 -15.5t-52 -41t-51.5 -59.5t-44.5 -70.5t-31 -73.5t-12 -69q0 -43 13 -72t32 -49.5t42 -37t42 -34.5t32 -41t13 -57q0 -46 -20 -79
t-55 -54t-82.5 -31t-102.5 -10q-50 0 -93 14.5t-74 37t-48.5 50.5t-17.5 55q0 38 15.5 65.5t33.5 42.5t33.5 16.5t15.5 -10.5q0 -6 -4.5 -11t-10.5 -13t-10.5 -20t-4.5 -32z" />
    <glyph glyph-name="scaron" unicode="&#x161;" horiz-adv-x="349" 
d="M351 341q8 12 13.5 10.5t8.5 -9t3 -17t-2 -12.5q-19 -31 -60 -58t-89 -53q6 -21 4 -47q-3 -30 -21 -62.5t-45.5 -59.5t-62 -44.5t-70.5 -17.5q-12 0 -23.5 7.5t-20.5 19t-14.5 25.5t-4.5 27q1 18 12 34.5t28.5 31.5t40.5 29t49 28q-3 43 -19.5 79t-39.5 70
q-5 -6 -9 -11.5t-7 -10.5t-8.5 -2t-9.5 9.5t-5.5 13.5t1.5 12t7 10t8 11q-28 42 -48.5 88t-15.5 105q3 39 24.5 72t49.5 57.5t57.5 38t49.5 13.5q22 0 36.5 -22.5t9.5 -76.5q-4 -48 -26 -101t-49 -101q27 -47 60.5 -95t51.5 -97q42 23 78.5 48.5t57.5 57.5zM66 551
q-2 -22 3 -43.5t15 -43.5q23 42 41 85.5t21 81.5q3 32 -2 43t-16 11q-9 0 -19 -14t-19 -34.5t-15.5 -43.5t-8.5 -42zM30 30q14 0 25 10.5t19.5 26t13.5 33.5t7 32q-32 -20 -53 -40.5t-23 -43.5q-1 -7 2.5 -12.5t8.5 -5.5z" />
    <glyph glyph-name="Ydieresis" unicode="&#x178;" horiz-adv-x="804" 
d="M690 788q0 18 17.5 13.5t38 -23t38 -46t17.5 -54.5q0 -16 -11 -67t-32 -123.5t-51 -160t-67 -176.5t-80.5 -172.5t-92 -148.5t-101.5 -104t-109 -39q-50 0 -90 10.5t-68 25t-44 30t-17 26.5q-2 10 4 12t16 -0.5t23.5 -6t27.5 -3.5q97 0 168 45t126 127t99.5 195t89.5 250
q-19 -33 -44 -76t-53.5 -88t-58 -88t-57 -76.5t-52 -54t-41.5 -20.5q-34 0 -64.5 13t-53 35t-35.5 50t-13 58q0 18 15 56t38 88t49 109t49 120t38 119t15 107q0 10 -3 22t-10.5 22t-19 16.5t-28.5 6.5q-42 0 -90 -17.5t-95.5 -48t-92 -71t-78 -86.5t-54 -95t-20.5 -95
q0 -21 3 -32t7 -17.5t7 -10.5t3 -10q0 -13 -18 -8.5t-39 25.5t-39 58.5t-18 90.5q0 28 19.5 65.5t54.5 77.5t83.5 79t106.5 69.5t124 49.5t135 19q95 0 151.5 -38t56.5 -113q0 -22 -15.5 -68.5t-39 -106t-50.5 -125.5t-50.5 -126t-39 -107.5t-15.5 -70.5q-1 -11 0 -19
q1 -7 3.5 -12.5t9.5 -5.5q12 0 33 21.5t47.5 57.5t57.5 82.5t62.5 97t62 101.5t56 95.5t45 78.5t28.5 51q12 51 18.5 85.5t6.5 49.5zM503 887q-11 0 -22.5 3.5t-20.5 9.5t-14 14.5t-3 18.5q1 14 9.5 28.5t21.5 26.5t28 20t29 8q21 0 33.5 -11.5t10.5 -34.5q-1 -12 -7 -26
t-15.5 -27t-22.5 -21.5t-27 -8.5zM670 877q-12 0 -23.5 3.5t-20.5 9.5t-14.5 14t-4.5 17q1 15 10.5 30t22.5 27t28.5 20t29.5 8q21 0 33.5 -11.5t10.5 -34.5q-1 -12 -7 -26t-15.5 -27t-22.5 -21.5t-27 -8.5z" />
    <glyph glyph-name="Zcaron" unicode="&#x17d;" horiz-adv-x="667" 
d="M604 861q44 0 69.5 -7.5t39 -19.5t17.5 -28t4 -32q0 -18 -8 -33.5t-19 -27.5q-17 -20 -49 -55t-74.5 -81.5t-92.5 -102t-102.5 -116.5t-105 -125t-100.5 -127q39 7 66.5 11t51 6t46 3t50.5 1q49 0 78.5 -7.5t45 -19.5t20 -27.5t4.5 -31.5q0 -17 -8 -31.5t-18.5 -26
t-21.5 -18t-17 -6.5t-10 8.5t-16 19t-38 19t-75 8.5q-29 0 -64 -2.5t-72.5 -7t-76 -10t-74.5 -10.5q-4 -2 -6 -2q-9 0 -21.5 11t-24 27.5t-19.5 35t-8 33.5q0 6 20.5 31.5t55.5 64t81 87t97.5 101.5t105 107t102.5 103.5t90.5 91l69.5 69.5q-16 4 -44 4q-44 0 -91.5 -9
t-93.5 -19.5t-87.5 -19.5t-71.5 -9t-48 13t-27.5 30.5t-12.5 34t-3 23.5q0 15 2.5 17.5t13 0t33 -7t62.5 -4.5t87 10t96.5 21.5t98.5 21.5t93 10zM565 1048q9 0 12.5 -3.5t5.5 -7.5t1 -10q0 -6 -9.5 -17t-24 -24.5t-32 -27.5t-34.5 -25.5t-30.5 -19t-20.5 -7.5t-17 12
t-20.5 30.5t-19.5 39.5t-14 39.5t-3.5 30.5t11.5 12q15 0 28 -12.5t24 -27t19.5 -27t14.5 -12.5t20 9t30.5 19.5t33 19.5t25.5 9z" />
    <glyph glyph-name="zcaron" unicode="&#x17e;" horiz-adv-x="564" 
d="M570 340q8 12 13 9t7 -12t1.5 -19.5t-3.5 -13.5q-13 -17 -34.5 -46.5t-50 -63.5t-62.5 -69.5t-71 -64t-76 -46.5t-77 -18q-28 0 -47 5t-36 11.5t-36.5 11.5t-48.5 5t-43.5 -4t-23 -8.5t-14 -8t-15.5 -3.5q-6 0 -7 13t5 30.5t19.5 35t36.5 25.5q27 31 67.5 66.5t86 74
t92.5 80.5t87 87l3 3q-22 -6 -47 -13.5t-49.5 -14.5t-46.5 -11.5t-38 -4.5q-31 0 -51.5 8t-33.5 19q-10 -11 -14 -20l-5 -10q-15 -23 -28 -41q-11 -17 -22 -32t-16 -22q-4 -6 -9 -3t-8.5 10.5t-3.5 17.5t7 19q30 44 49.5 79t22.5 69q0 3 2 5q2 12 5.5 20t8.5 8q3 0 8 -5
t14 -11.5t23.5 -11.5t36.5 -5q51 0 84 3.5t57.5 8t46.5 8.5t52 4q28 0 43.5 -12t22 -27t6 -29t-4.5 -18q-6 -14 -25 -35.5t-46.5 -48t-60.5 -56t-66.5 -59t-64.5 -57.5t-54 -51q38 -9 71.5 -18t63.5 -9q23 0 49.5 13t54 34.5t55 49.5t52.5 57.5t47 58.5t39 53zM388 708
q9 0 12.5 -3.5t5.5 -7.5t1 -10q0 -6 -9.5 -17t-24 -24.5t-32 -27.5t-34.5 -25.5t-30.5 -19t-20.5 -7.5t-17 12t-20.5 30.5t-19.5 39.5t-14 39.5t-3.5 30.5t11.5 12q15 0 28 -12.5t24 -27t19.5 -27t14.5 -12.5t20 9t30.5 19.5t33 19.5t25.5 9z" />
    <glyph glyph-name="circumflex" unicode="&#x2c6;" horiz-adv-x="525" 
d="M132 562q-9 0 -13 3t-6 7t0 11q0 6 9.5 17t24 24.5t32 27.5t34.5 25.5t30.5 19t20.5 7.5t17 -12t20.5 -30.5t19.5 -39.5t14 -39.5t3.5 -30.5t-11.5 -12q-15 0 -28 12.5t-24 27t-19.5 27t-14.5 12.5t-20 -9t-30.5 -19.5t-33 -19.5t-25.5 -9z" />
    <glyph glyph-name="caron" unicode="&#x2c7;" horiz-adv-x="525" 
d="M346 708q9 0 12.5 -3.5t5.5 -7.5t1 -10q0 -6 -9.5 -17t-24 -24.5t-32 -27.5t-34.5 -25.5t-30.5 -19t-20.5 -7.5t-17 12t-20.5 30.5t-19.5 39.5t-14 39.5t-3.5 30.5t11.5 12q15 0 28 -12.5t24 -27t19.5 -27t14.5 -12.5t20 9t30.5 19.5t33 19.5t25.5 9z" />
    <glyph glyph-name="ring" unicode="&#x2da;" horiz-adv-x="567" 
d="M272 604q-8 0 -20 4t-23.5 13t-20.5 22.5t-11 33.5q-3 19 6 44t24.5 47t35 37.5t37.5 15.5q16 0 31 -6.5t26.5 -17.5t19 -24.5t9.5 -26.5q3 -23 -3 -48t-21 -46t-37.5 -34.5t-52.5 -13.5zM323 771q-11 0 -24.5 -14.5t-26 -34t-20.5 -40t-7 -33.5q0 -13 7 -13
q19 0 34.5 12t27 29.5t17 37.5t3.5 37q-3 19 -11 19z" />
    <glyph glyph-name="tilde" unicode="&#x2dc;" horiz-adv-x="483" 
d="M125 593q-15 0 -18 17.5t5 39t26 39t45 17.5q19 0 34 -6t28 -12.5t23.5 -12.5t21.5 -6q10 0 18.5 4.5t15.5 10t13.5 10t12.5 4.5q19 0 23.5 -18t-4.5 -39t-30 -39t-52 -18q-16 0 -30 6t-26.5 13t-24.5 13t-24 6t-20 -4.5t-14.5 -10t-12 -10t-10.5 -4.5z" />
    <glyph glyph-name="endash" unicode="&#x2013;" horiz-adv-x="548" 
d="M437 364q10 2 11 -12.5t-3.5 -33.5t-13.5 -35.5t-18 -19.5q-6 -2 -29.5 -1.5t-56.5 2t-70.5 3.5t-71 3t-58.5 0.5t-33 -3.5t-15.5 -3.5t-9.5 7.5q-2 6 -2 16.5t4 21.5t11.5 21t20.5 15q15 6 48.5 6h78t98 2t109.5 11z" />
    <glyph glyph-name="emdash" unicode="&#x2014;" horiz-adv-x="651" 
d="M559 364q10 2 11 -12.5t-3.5 -33.5t-13.5 -35.5t-18 -19.5q-6 -2 -39 -1.5t-79 2t-99.5 3.5t-100.5 3t-81 0.5t-42 -3.5t-15.5 -3.5t-9.5 7.5q-2 6 -2 16.5t4 21.5t11.5 21t20.5 15q10 4 37.5 5t66 1.5t84 0t93 0t93 3.5t82.5 9z" />
    <glyph glyph-name="quoteleft" unicode="&#x2018;" horiz-adv-x="357" 
d="M252 585q0 -18 -18 -17t-40 13t-40 30t-18 34q0 14 9 30.5t19.5 36t19.5 42.5t9 50q0 15 11 20.5t23 5.5q20 0 37.5 -17.5t17.5 -57.5q0 -16 -4.5 -36t-10.5 -42t-10.5 -45.5t-4.5 -46.5z" />
    <glyph glyph-name="quoteright" unicode="&#x2019;" horiz-adv-x="357" 
d="M166 781q0 18 18 17t40 -13t40 -30t18 -34q0 -14 -9 -30.5t-19.5 -36t-19.5 -42.5t-9 -50q0 -15 -11 -20.5t-23 -5.5q-20 0 -37.5 17.5t-17.5 57.5q0 16 4.5 36t10.5 42t10.5 45.5t4.5 46.5z" />
    <glyph glyph-name="quotesinglbase" unicode="&#x201a;" horiz-adv-x="416" 
d="M166 163q0 18 18 17t40 -13t40 -30t18 -34q0 -14 -9 -30.5t-19.5 -36t-19.5 -42.5t-9 -50q0 -15 -11 -20.5t-23 -5.5q-20 0 -37.5 17.5t-17.5 57.5q0 16 4.5 36t10.5 42t10.5 45.5t4.5 46.5z" />
    <glyph glyph-name="quotedblleft" unicode="&#x201c;" horiz-adv-x="515" 
d="M388 551q0 -18 -18 -17t-40 13t-40 30t-18 34q0 14 9 30.5t19.5 36t19.5 42.5t9 50q0 15 11 20.5t23 5.5q20 0 37.5 -17.5t17.5 -57.5q0 -16 -4.5 -36t-10.5 -42t-10.5 -45.5t-4.5 -46.5zM220 551q0 -18 -18 -17t-39.5 13t-39.5 30t-18 34q0 14 9 30.5t19.5 36t19.5 42.5
t9 50q0 15 11 20.5t22 5.5q20 0 37.5 -17.5t17.5 -57.5q0 -16 -4.5 -36t-10.5 -42t-10.5 -45.5t-4.5 -46.5z" />
    <glyph glyph-name="quotedblright" unicode="&#x201d;" horiz-adv-x="515" 
d="M166 781q0 18 18 17t40 -13t40 -30t18 -34q0 -14 -9 -30.5t-19.5 -36t-19.5 -42.5t-9 -50q0 -15 -11 -20.5t-23 -5.5q-20 0 -37.5 17.5t-17.5 57.5q0 16 4.5 36t10.5 42t10.5 45.5t4.5 46.5zM334 781q0 18 18 17t39.5 -13t39.5 -30t18 -34q0 -14 -9 -30.5t-19.5 -36
t-19.5 -42.5t-9 -50q0 -15 -11 -20.5t-22 -5.5q-20 0 -37.5 17.5t-17.5 57.5q0 16 4.5 36t10.5 42t10.5 45.5t4.5 46.5z" />
    <glyph glyph-name="quotedblbase" unicode="&#x201e;" horiz-adv-x="584" 
d="M166 163q0 18 18 17t40 -13t40 -30t18 -34q0 -14 -9 -30.5t-19.5 -36t-19.5 -42.5t-9 -50q0 -15 -11 -20.5t-23 -5.5q-20 0 -37.5 17.5t-17.5 57.5q0 16 4.5 36t10.5 42t10.5 45.5t4.5 46.5zM334 163q0 18 18 17t39.5 -13t39.5 -30t18 -34q0 -14 -9 -30.5t-19.5 -36
t-19.5 -42.5t-9 -50q0 -15 -11 -20.5t-22 -5.5q-20 0 -37.5 17.5t-17.5 57.5q0 16 4.5 36t10.5 42t10.5 45.5t4.5 46.5z" />
    <glyph glyph-name="bullet" unicode="&#x2022;" horiz-adv-x="314" 
d="M148 291q-19 0 -37.5 6t-33 16t-23 24t-6.5 29q1 23 16 47.5t36.5 45t46.5 33.5t48 13q35 0 56 -20t17 -57q-1 -19 -10.5 -42.5t-25.5 -44.5t-37.5 -35.5t-46.5 -14.5z" />
    <glyph glyph-name="ellipsis" unicode="&#x2026;" horiz-adv-x="696" 
d="M72 -23q-26 0 -48 15t-20 36q1 15 11 32t24.5 30.5t32 22.5t32.5 9q23 0 37.5 -13.5t12.5 -38.5q-1 -13 -7.5 -29t-17.5 -30.5t-25.5 -24t-31.5 -9.5zM294 -23q-26 0 -48 15t-20 36q1 15 11 32t24.5 30.5t32 22.5t32.5 9q23 0 37.5 -13.5t12.5 -38.5q-1 -13 -7.5 -29
t-17.5 -30.5t-25.5 -24t-31.5 -9.5zM521 -23q-26 0 -48 15t-20 36q1 15 11 32t24.5 30.5t32 22.5t32.5 9q23 0 37.5 -13.5t12.5 -38.5q-1 -13 -7.5 -29t-17.5 -30.5t-25.5 -24t-31.5 -9.5z" />
    <glyph glyph-name="perthousand" unicode="&#x2030;" horiz-adv-x="995" 
d="M494 892q0 18 10.5 19t23 -7.5t23 -22t10.5 -25.5q0 -4 -16.5 -43t-43.5 -101t-61.5 -140t-71.5 -160t-73 -162t-65.5 -145.5t-49 -110.5t-24.5 -57q-4 -12 -13.5 -11.5t-17.5 9t-12.5 22t0.5 28.5q2 5 14 34.5t32 76t45.5 106t54 125.5t57.5 134t56 132
q-25 -17 -51.5 -29t-54.5 -17q-22 -23 -52 -37.5t-68 -14.5q-12 0 -30 6.5t-36 20.5t-32 35.5t-17 51.5q-4 30 10 68.5t37.5 72.5t53 57.5t56.5 23.5q25 0 48.5 -10.5t42.5 -27t31 -37t14 -41.5q3 -21 0 -44.5t-11 -46.5q42 14 75.5 54.5t57.5 88.5q23 54 35.5 87.5
t12.5 37.5zM118 543q19 0 35.5 9t32.5 23q-6 14 -4 30t9.5 31t20 26.5t27.5 16.5q3 12 4 24t0 23q-2 13 -4.5 20.5t-10.5 7.5q-16 0 -38 -22t-41.5 -53t-32.5 -63t-10 -52q1 -6 3.5 -13.5t8.5 -7.5zM610 206q4 -35 -6 -74t-33 -71.5t-58.5 -54t-81.5 -21.5q-11 0 -29 7
t-35.5 21t-32 35.5t-18.5 51.5t10 68.5t38 72.5t53.5 57.5t56.5 23.5q25 0 48 -10.5t42 -27t31 -37t15 -41.5zM404 34q27 0 51 18.5t41.5 46t26 59.5t5.5 59q-2 13 -4.5 20.5t-10.5 7.5q-16 0 -38 -22t-41.5 -53t-32 -63t-10.5 -52q2 -6 4 -13.5t9 -7.5zM958 206
q4 -35 -6 -74t-33 -71.5t-58.5 -54t-81.5 -21.5q-11 0 -29 7t-35.5 21t-32 35.5t-18.5 51.5t10 68.5t38 72.5t53.5 57.5t56.5 23.5q25 0 48 -10.5t42 -27t31 -37t15 -41.5zM752 34q27 0 51 18.5t41.5 46t26 59.5t5.5 59q-2 13 -4.5 20.5t-10.5 7.5q-16 0 -38 -22t-41.5 -53
t-32 -63t-10.5 -52q2 -6 4 -13.5t9 -7.5z" />
    <glyph glyph-name="guilsinglleft" unicode="&#x2039;" horiz-adv-x="381" 
d="M9 327q-2 8 2.5 18.5t18.5 18.5l3 2q6 4 23 14t36 20q22 12 45.5 25t48.5 27l4 2q8 5 19 11.5t28 15.5l43 25q32 19 49.5 28.5t19.5 11.5q4 2 10 2q4 0 6 -1q7 -3 11 -13q4 -15 -5 -40q-9 -24 -27 -35l-216 -121q18 -15 40 -35.5t41.5 -41.5t34 -39.5t17.5 -28.5
q6 -17 -1 -33.5t-19 -21.5q-8 -4 -19 -1t-19 17q-3 4 -15.5 17t-31 30t-39.5 35.5t-40 35t-33.5 28t-19.5 13.5q-12 1 -15 14z" />
    <glyph glyph-name="guilsinglright" unicode="&#x203a;" horiz-adv-x="403" 
d="M371 360q2 -9 -3 -19.5t-19 -18.5l-2 -2q-7 -4 -23.5 -13.5t-36.5 -20.5q-22 -12 -45 -25t-49 -27l-4 -2q-8 -5 -19 -11.5t-27 -15.5l-44 -25q-32 -19 -49 -28.5t-20 -10.5q-4 -3 -10 -3q-4 0 -5 1q-8 3 -11 13q-5 18 4 40q9 25 28 35l216 121q-18 15 -40 35.5
t-41.5 41.5t-34 39.5t-18.5 28.5q-6 18 1 34t19 21q8 4 19 1t19 -17q3 -4 15.5 -17t31 -30t40 -35.5t40.5 -35t33.5 -28t19.5 -13.5q11 0 15 -13z" />
    <glyph glyph-name="fraction" unicode="&#x2044;" horiz-adv-x="572" 
d="M-51 43q2 6 24 39l56 84t77.5 115t88.5 132t88 134.5t76.5 122t54 95t20.5 54.5q0 16 12 16.5t26 -9.5t26 -27t12 -36q0 -6 -20.5 -41t-54.5 -89t-77.5 -121t-89.5 -137.5t-90.5 -138.5t-80.5 -124t-59.5 -94.5t-27.5 -48.5t-15.5 -4.5t-23 18.5t-19 30t-3.5 30z" />
    <glyph glyph-name="Euro" unicode="&#x20ac;" horiz-adv-x="661" 
d="M309 518v0q30 2 49 3t24 1q7 0 15 -5.5t8 -20.5q0 -30 -17 -48t-34 -18h-4t-11.5 0.5t-25 1t-43.5 0.5q-14 -32 -24 -63q31 1 50.5 2.5t24.5 1.5q8 0 15.5 -5.5t7.5 -21.5q0 -29 -17 -47t-34 -18h-2.5t-10 0.5t-21.5 1t-37 0.5q-9 -41 -10.5 -77t5.5 -62.5t23.5 -42
t44.5 -15.5q62 0 100 21t59 48.5t28.5 54.5t7.5 38q0 5 3 10t10 5q11 0 22.5 -14t11.5 -31q0 -23 -13 -55t-40 -60.5t-69 -48.5t-99 -20q-60 0 -101 19.5t-65.5 53.5t-34 79.5t-5.5 96.5q-35 0 -57.5 -0.5t-37 -1t-21 -1t-8.5 -0.5q-11 0 -11 20q0 5 3 17t9 24t15.5 21
t23.5 9q7 -1 20 -2q11 -1 30 -1.5t48 -0.5q4 16 9 32t11 33q-53 -1 -73.5 -2t-23.5 -1q-12 0 -12 20q0 5 3 17t9 24t16 21t24 9q7 -1 19 -2q11 -1 29 -1.5t47 -0.5q28 52 64 98.5t78.5 81t89.5 55t97 20.5q30 0 55 -7.5t44 -20.5q1 3 1 8q0 11 6 15q7 5 14 5q9 0 20.5 -5
t22 -13t17.5 -18t7 -19q0 -8 -6 -21.5t-20 -39.5q-9 -17 -18.5 -37t-17.5 -40t-13.5 -38.5t-5.5 -33.5q0 -9 -7 -13q-5 -3 -12 -3q-8 0 -17.5 3.5t-17.5 10t-14 16.5t-6 22q0 19 8.5 44.5t20.5 53.5q1 5 3 9t2 21q0 13 -5.5 22t-14 15t-18 8.5t-18.5 2.5q-19 0 -38 -8.5
t-36.5 -22.5t-34 -32t-30.5 -37q-33 -44 -63 -100z" />
    <glyph glyph-name="trademark" unicode="&#x2122;" horiz-adv-x="365" 
d="M164 678q-14 0 -30.5 -1t-30.5 -3q-26 -74 -41.5 -121t-15.5 -52v-5h-5q-11 0 -22.5 9t-11.5 20q0 5 15 44q9 23 19 51.5t14 48.5q-26 -3 -41 -3q-16 0 -23 10q-5 8 -4 15.5t1 8.5l1 3h3q32 0 60.5 2.5t51.5 5.5q27 3 43 3q14 0 19 -8q5 -7 4 -15.5t-1 -9.5l-1 -3h-4z
M280 708q3 -1 8 -6t10.5 -11t9.5 -11.5t4 -8.5q0 -2 -4.5 -23.5t-10 -49t-11.5 -55.5l-9 -42l-1 -4h-4q-11 0 -23 9t-12 23q0 6 6 30.5t12 49.5l-55 -113h-3q-13 0 -23 10t-10 23q0 4 2.5 20t7.5 44q-8 -17 -14.5 -34t-11.5 -30q-6 -16 -12 -29l-2 -3h-3q-11 0 -17 10t-6 22
q0 5 11 28.5t25 51t28 54t20 37.5q-1 3 -1 7.5t2 8.5q3 3 8 3q4 0 10.5 -3t12.5 -8t10 -11t4 -11q0 -3 -1.5 -11t-3.5 -19t-4 -23.5t-4 -23.5q9 18 17 35t15 30.5t11 22.5t5 10q2 2 7 1z" />
    <glyph glyph-name="n.004" unicode="&#xe002;" horiz-adv-x="564" 
d="M632 -108q13 0 11.5 -18.5t-20 -40.5t-54.5 -40.5t-91 -18.5q-22 0 -51.5 14.5t-61 39.5t-62 57t-55 67.5t-39.5 71t-15 67.5q0 14 4 34.5t11 44.5t16 49.5t18 49.5q21 57 49 121q-19 -20 -44 -50t-52 -64t-54.5 -70t-51 -68t-40.5 -58t-24 -41q0 -12 2 -20t-5 -14
q-6 -6 -25 -2t-39 16t-35 31.5t-13 46.5q2 18 12.5 48t26.5 66t34 76t33.5 77t26.5 68.5t13 51.5q1 18 19 17t38 -13t36.5 -29.5t15.5 -32.5q-1 -9 -8.5 -32.5t-19.5 -55t-26.5 -68t-28.5 -72.5q14 18 33.5 46t42 59t46.5 63.5t46.5 60.5t42.5 48.5t34 28.5q4 3 9 4q1 1 4 1
q6 0 9 -1q12 -2 27 -10t27.5 -19t20.5 -23t7 -23q-1 -5 -10 -23.5t-23 -46.5t-30 -62.5t-29.5 -71.5t-22.5 -73.5t-9 -67.5q0 -63 19 -105t52.5 -66.5t79.5 -34.5t101 -10q21 0 33 3t18.5 7t10.5 7t10 3z" />
    <glyph glyph-name="tt.001" unicode="&#xe003;" horiz-adv-x="590" 
d="M579 639q47 0 73.5 -12.5t37 -27t7.5 -27t-14 -12.5t-13 3.5t-7 7t-19.5 7t-50.5 3.5q-11 0 -29.5 -1t-43.5 -3q-20 -58 -45.5 -129t-50.5 -140.5t-47 -130t-34 -96.5q-6 -25 7 -25q10 0 28 14.5t39.5 38.5t46 54.5t48 62t45 62t38.5 54.5q8 12 13 9t7.5 -12t2 -19.5
t-2.5 -14.5l-29 -43.5t-43 -61.5t-52.5 -68t-57 -63.5t-56 -47.5t-50.5 -20q-1 -1 -4 -1q-8 0 -28 3t-41 12t-36 25t-13 43q2 14 11.5 43t25.5 70q-24 -33 -52 -67t-56 -62t-55.5 -46.5t-49.5 -19.5q-1 -1 -4 -1q-8 0 -28 3t-41 12t-36 25t-13 43q2 18 17.5 62t38 105.5
t49.5 134.5t51 149q-13 -1 -23.5 -1h-18.5q-41 0 -67.5 18t-39 39t-11 39t15.5 18q6 0 15.5 -4.5t27.5 -10.5t46 -10.5t70 -4.5h10q17 59 28.5 113t15.5 101q1 12 12 14t27 -3t34 -15.5t33.5 -23t25 -25.5t8.5 -23q-1 -8 -12 -44.5t-30 -90.5q49 2 89 5t75 5q11 41 18 79.5
t10 73.5q1 12 12 14t27 -3t34 -15.5t33.5 -23t25 -25.5t8.5 -23q0 -5 -5.5 -23t-14.5 -45h37zM300 346q20 51 39 106t36 111q-42 -5 -85 -9t-85 -8q-21 -61 -44.5 -128t-45 -130t-40 -116.5t-29.5 -87.5q-8 -28 6 -28q10 0 28 14.5t39.5 38.5t46 54.5t48 62t45 62t38.5 54.5
q2 2 3 4z" />
    </font>
</defs>
</svg>
